M48
; DRILL file {KiCad (6.0.4)} date Tue Mar 22 23:36:38 2022
; FORMAT={-:-/ absolute / metric / decimal}
; #@! TF.CreationDate,2022-03-22T23:36:38-04:00
; #@! TF.GenerationSoftware,Kicad,Pcbnew,(6.0.4)
; #@! TF.FileFunction,Plated,1,2,PTH
FMAT,2
METRIC
; #@! TA.AperFunction,Plated,PTH,ViaDrill
T1C0.400
; #@! TA.AperFunction,Plated,PTH,ComponentDrill
T2C0.800
; #@! TA.AperFunction,Plated,PTH,ComponentDrill
T3C0.950
; #@! TA.AperFunction,Plated,PTH,ComponentDrill
T4C1.000
; #@! TA.AperFunction,Plated,PTH,ComponentDrill
T5C1.100
; #@! TA.AperFunction,Plated,PTH,ComponentDrill
T6C3.200
%
G90
G05
T1
X78.194Y-50.79
T2
X50.165Y-41.305
X50.165Y-43.805
X50.165Y-60.355
X50.165Y-62.855
X53.975Y-39.995
X53.975Y-55.235
X53.975Y-59.045
X53.975Y-74.285
X53.985Y-43.815
X53.985Y-46.355
X53.985Y-48.895
X53.985Y-51.435
X53.985Y-62.865
X53.985Y-65.405
X53.985Y-67.945
X53.985Y-70.485
X61.595Y-39.995
X61.595Y-55.235
X61.595Y-59.045
X61.595Y-74.285
X61.605Y-43.815
X61.605Y-46.355
X61.605Y-48.895
X61.605Y-51.435
X61.605Y-62.865
X61.605Y-65.405
X61.605Y-67.945
X61.605Y-70.485
X65.405Y-43.805
X65.405Y-62.855
X65.445Y-47.615
X65.445Y-51.425
X65.445Y-66.665
X65.445Y-70.475
X67.905Y-43.805
X67.905Y-62.855
X67.945Y-47.615
X67.945Y-51.425
X67.945Y-66.665
X67.945Y-70.475
T3
X107.475Y-47.25
X107.475Y-49.75
X107.475Y-52.25
X107.475Y-54.75
T4
X99.0Y-48.632
X99.0Y-53.632
X107.375Y-61.45
X107.375Y-63.95
X107.375Y-70.5
X107.375Y-73.0
T5
X76.2Y-41.9
X76.2Y-44.44
X76.2Y-46.98
X76.2Y-49.52
X76.2Y-52.06
X76.2Y-54.6
X76.2Y-57.14
X76.2Y-59.68
X76.2Y-62.22
X76.2Y-64.76
X76.2Y-67.3
X76.2Y-69.84
X76.2Y-72.38
X76.2Y-74.92
X78.74Y-41.9
X81.28Y-41.9
X83.82Y-41.9
X86.36Y-41.9
X88.9Y-41.9
X91.44Y-41.9
X91.44Y-44.44
X91.44Y-46.98
X91.44Y-49.52
X91.44Y-52.06
X91.44Y-54.6
X91.44Y-57.14
X91.44Y-59.68
X91.44Y-62.22
X91.44Y-64.76
X91.44Y-67.3
X91.44Y-69.84
X91.44Y-72.38
X91.44Y-74.92
T6
X40.0Y-40.0
X40.0Y-80.0
X100.0Y-40.0
X100.0Y-80.0
T4
G00X38.745Y-51.968
M15
G01X38.745Y-52.968
M16
G05
G00X38.745Y-71.017
M15
G01X38.745Y-72.017
M16
G05
G00X41.145Y-49.968
M15
G01X41.145Y-50.968
M16
G05
G00X41.145Y-69.017
M15
G01X41.145Y-70.017
M16
G05
G00X46.645Y-49.968
M15
G01X46.645Y-50.968
M16
G05
G00X46.645Y-69.017
M15
G01X46.645Y-70.017
M16
G05
T0
M30
