%TF.GenerationSoftware,KiCad,Pcbnew,(6.0.4)*%
%TF.CreationDate,2022-03-22T23:36:16-04:00*%
%TF.ProjectId,larson_vu,6c617273-6f6e-45f7-9675-2e6b69636164,rev?*%
%TF.SameCoordinates,Original*%
%TF.FileFunction,Legend,Bot*%
%TF.FilePolarity,Positive*%
%FSLAX46Y46*%
G04 Gerber Fmt 4.6, Leading zero omitted, Abs format (unit mm)*
G04 Created by KiCad (PCBNEW (6.0.4)) date 2022-03-22 23:36:16*
%MOMM*%
%LPD*%
G01*
G04 APERTURE LIST*
G04 Aperture macros list*
%AMRoundRect*
0 Rectangle with rounded corners*
0 $1 Rounding radius*
0 $2 $3 $4 $5 $6 $7 $8 $9 X,Y pos of 4 corners*
0 Add a 4 corners polygon primitive as box body*
4,1,4,$2,$3,$4,$5,$6,$7,$8,$9,$2,$3,0*
0 Add four circle primitives for the rounded corners*
1,1,$1+$1,$2,$3*
1,1,$1+$1,$4,$5*
1,1,$1+$1,$6,$7*
1,1,$1+$1,$8,$9*
0 Add four rect primitives between the rounded corners*
20,1,$1+$1,$2,$3,$4,$5,0*
20,1,$1+$1,$4,$5,$6,$7,0*
20,1,$1+$1,$6,$7,$8,$9,0*
20,1,$1+$1,$8,$9,$2,$3,0*%
G04 Aperture macros list end*
%ADD10O,1.508000X3.016000*%
%ADD11C,1.600000*%
%ADD12RoundRect,0.250000X0.750000X-0.600000X0.750000X0.600000X-0.750000X0.600000X-0.750000X-0.600000X0*%
%ADD13O,2.000000X1.700000*%
%ADD14R,1.600000X1.600000*%
%ADD15O,1.600000X1.600000*%
%ADD16C,6.400000*%
%ADD17R,2.000000X2.000000*%
%ADD18C,2.000000*%
%ADD19RoundRect,0.250000X0.725000X-0.600000X0.725000X0.600000X-0.725000X0.600000X-0.725000X-0.600000X0*%
%ADD20O,1.950000X1.700000*%
G04 APERTURE END LIST*
%TO.C,G\u002A\u002A\u002A*%
G36*
X75018371Y-54153309D02*
G01*
X74369064Y-54138266D01*
X74343050Y-54137658D01*
X74094705Y-54130740D01*
X73916361Y-54121928D01*
X73791455Y-54108718D01*
X73703420Y-54088602D01*
X73635693Y-54059076D01*
X73571710Y-54017632D01*
X73552555Y-54003468D01*
X73410261Y-53848101D01*
X73328022Y-53641708D01*
X73301560Y-53374098D01*
X73329102Y-53129787D01*
X73423245Y-52912591D01*
X73583186Y-52753126D01*
X73807799Y-52652991D01*
X73898563Y-52636668D01*
X74067468Y-52620209D01*
X74276964Y-52608969D01*
X74501127Y-52604751D01*
X75018371Y-52604506D01*
X75018371Y-54153309D01*
G37*
G36*
X76854261Y-43844473D02*
G01*
X77073204Y-43886688D01*
X77247824Y-43995790D01*
X77367635Y-44157870D01*
X77422150Y-44359022D01*
X77400880Y-44585340D01*
X77327861Y-44793146D01*
X77193992Y-45017623D01*
X77025930Y-45171939D01*
X76967504Y-45201754D01*
X76782378Y-45240236D01*
X76581974Y-45220817D01*
X76401985Y-45145036D01*
X76328710Y-45085187D01*
X76226948Y-44928986D01*
X76183752Y-44740131D01*
X76193544Y-44535107D01*
X76250746Y-44330397D01*
X76349780Y-44142484D01*
X76485070Y-43987853D01*
X76651036Y-43882986D01*
X76842102Y-43844367D01*
X76854261Y-43844473D01*
G37*
G36*
X62682582Y-58976516D02*
G01*
X62694627Y-59735875D01*
X62075543Y-59735875D01*
X61987083Y-59735736D01*
X61753095Y-59732837D01*
X61583834Y-59724694D01*
X61461536Y-59709357D01*
X61368436Y-59684878D01*
X61286768Y-59649306D01*
X61249185Y-59628186D01*
X61094322Y-59486396D01*
X60992566Y-59297221D01*
X60943977Y-59079718D01*
X60948616Y-58852942D01*
X61006544Y-58635949D01*
X61117820Y-58447795D01*
X61282506Y-58307536D01*
X61313301Y-58290820D01*
X61389078Y-58259952D01*
X61483608Y-58239286D01*
X61614206Y-58226821D01*
X61798188Y-58220555D01*
X62052870Y-58218487D01*
X62670538Y-58217157D01*
X62682582Y-58976516D01*
G37*
G36*
X79170763Y-73498359D02*
G01*
X79285391Y-73598216D01*
X79295307Y-73612380D01*
X79352913Y-73706282D01*
X79376430Y-73766064D01*
X79375468Y-73773286D01*
X79331763Y-73840706D01*
X79237742Y-73934308D01*
X79113778Y-74035584D01*
X78980243Y-74126023D01*
X78852733Y-74186138D01*
X78679437Y-74219302D01*
X78530573Y-74194002D01*
X78427347Y-74110821D01*
X78414421Y-74089309D01*
X78380782Y-73946893D01*
X78427405Y-73803091D01*
X78548463Y-73668359D01*
X78738129Y-73553155D01*
X78822001Y-73517978D01*
X79018017Y-73471754D01*
X79170763Y-73498359D01*
G37*
G36*
X65937388Y-53027832D02*
G01*
X65972374Y-53124950D01*
X66018200Y-53303217D01*
X66038834Y-53386065D01*
X66086673Y-53564634D01*
X66150255Y-53792674D01*
X66223788Y-54049499D01*
X66301475Y-54314425D01*
X66363421Y-54524126D01*
X66426892Y-54741667D01*
X66477233Y-54917229D01*
X66510402Y-55036691D01*
X66522357Y-55085934D01*
X66495816Y-55095660D01*
X66398933Y-55104742D01*
X66249752Y-55110515D01*
X66068077Y-55113067D01*
X65873714Y-55112489D01*
X65686468Y-55108870D01*
X65526144Y-55102302D01*
X65412547Y-55092874D01*
X65365483Y-55080676D01*
X65365491Y-55069037D01*
X65382354Y-54987156D01*
X65420127Y-54839029D01*
X65475396Y-54637262D01*
X65544747Y-54394458D01*
X65624768Y-54123223D01*
X65656246Y-54017462D01*
X65734763Y-53747729D01*
X65802552Y-53506420D01*
X65855841Y-53307471D01*
X65890856Y-53164820D01*
X65903824Y-53092403D01*
X65904025Y-53084577D01*
X65914264Y-53013747D01*
X65937388Y-53027832D01*
G37*
G36*
X83747795Y-44675735D02*
G01*
X83789961Y-44713496D01*
X83968393Y-44879429D01*
X84185954Y-45088652D01*
X84426347Y-45324900D01*
X84466303Y-45364870D01*
X84673271Y-45571908D01*
X84910426Y-45813413D01*
X85121514Y-46033151D01*
X85290236Y-46214856D01*
X85542790Y-46494357D01*
X85948258Y-46379668D01*
X85949954Y-46379189D01*
X86189194Y-46315030D01*
X86469725Y-46245186D01*
X86766304Y-46175435D01*
X87053688Y-46111555D01*
X87306630Y-46059324D01*
X87499889Y-46024521D01*
X87677594Y-45996818D01*
X88182211Y-46688068D01*
X88193845Y-46704010D01*
X88351640Y-46921463D01*
X88492036Y-47117092D01*
X88606343Y-47278623D01*
X88684648Y-47392015D01*
X88685868Y-47393781D01*
X88721920Y-47450291D01*
X88725067Y-47484676D01*
X88693376Y-47596436D01*
X88618377Y-47766428D01*
X88504722Y-47985878D01*
X88357062Y-48246008D01*
X88180049Y-48538043D01*
X87978334Y-48853208D01*
X87946803Y-48901367D01*
X87831332Y-49079843D01*
X87737828Y-49227670D01*
X87675196Y-49330611D01*
X87652340Y-49374430D01*
X87659588Y-49392292D01*
X87702289Y-49475595D01*
X87776866Y-49613771D01*
X87796898Y-49650056D01*
X87875922Y-49793197D01*
X87992064Y-50000251D01*
X88030885Y-50069692D01*
X88183317Y-50352561D01*
X88348598Y-50672036D01*
X88509244Y-50993886D01*
X88647769Y-51283882D01*
X88916309Y-51863760D01*
X88963750Y-51966204D01*
X89573643Y-51993522D01*
X89862137Y-52009162D01*
X90176803Y-52032322D01*
X90466629Y-52059798D01*
X90718988Y-52090055D01*
X90921254Y-52121556D01*
X91060797Y-52152766D01*
X91124990Y-52182150D01*
X91127236Y-52185568D01*
X91156018Y-52252484D01*
X91206255Y-52387545D01*
X91273157Y-52577206D01*
X91351930Y-52807924D01*
X91437783Y-53066157D01*
X91712133Y-53901984D01*
X91297805Y-54300476D01*
X91105542Y-54478794D01*
X90846596Y-54705906D01*
X90571832Y-54936035D01*
X90307285Y-55147436D01*
X90078994Y-55318365D01*
X90079141Y-55343181D01*
X90092333Y-55441682D01*
X90118396Y-55601536D01*
X90154933Y-55808239D01*
X90199544Y-56047292D01*
X90216318Y-56136444D01*
X90271152Y-56444476D01*
X90324379Y-56765613D01*
X90370643Y-57066737D01*
X90404585Y-57314731D01*
X90432102Y-57537418D01*
X90458855Y-57753888D01*
X90480903Y-57932257D01*
X90495201Y-58047886D01*
X90517829Y-58230781D01*
X90922953Y-58371457D01*
X90946086Y-58379588D01*
X91151094Y-58456847D01*
X91401880Y-58558059D01*
X91668837Y-58671017D01*
X91922357Y-58783513D01*
X92516638Y-59054893D01*
X92516638Y-60944885D01*
X91966378Y-61196744D01*
X91734731Y-61299701D01*
X91457726Y-61417044D01*
X91190091Y-61525249D01*
X90966833Y-61609849D01*
X90517547Y-61771094D01*
X90495802Y-61953051D01*
X90481605Y-62069926D01*
X90424670Y-62508772D01*
X90361955Y-62952650D01*
X90296958Y-63378389D01*
X90233182Y-63762816D01*
X90174124Y-64082758D01*
X90162631Y-64141242D01*
X90123737Y-64348501D01*
X90094741Y-64518112D01*
X90078277Y-64633883D01*
X90076982Y-64679623D01*
X90091997Y-64690798D01*
X90529462Y-65029849D01*
X90940074Y-65373339D01*
X91297805Y-65699523D01*
X91712133Y-66098015D01*
X91438456Y-66933843D01*
X91425218Y-66974153D01*
X91339508Y-67229504D01*
X91260588Y-67455469D01*
X91193438Y-67638421D01*
X91143038Y-67764735D01*
X91114366Y-67820782D01*
X91095527Y-67831799D01*
X90996925Y-67859276D01*
X90833717Y-67888933D01*
X90622050Y-67918967D01*
X90378068Y-67947579D01*
X90117918Y-67972968D01*
X89857745Y-67993332D01*
X89613695Y-68006871D01*
X89401915Y-68011785D01*
X88980982Y-68011785D01*
X88854485Y-68267495D01*
X88496451Y-68991248D01*
X88414769Y-69155584D01*
X88268317Y-69446663D01*
X88127484Y-69722409D01*
X88000513Y-69966871D01*
X87895646Y-70164098D01*
X87821125Y-70298142D01*
X87630330Y-70625574D01*
X87893023Y-71021611D01*
X87967927Y-71134537D01*
X88102066Y-71340246D01*
X88246213Y-71571413D01*
X88287910Y-71638283D01*
X88447200Y-71909859D01*
X88575090Y-72145883D01*
X88666736Y-72337260D01*
X88717294Y-72474900D01*
X88721920Y-72549709D01*
X88720978Y-72551526D01*
X88681554Y-72612603D01*
X88618765Y-72703302D01*
X88599274Y-72731457D01*
X88482829Y-72895814D01*
X88340911Y-73093397D01*
X88182211Y-73311932D01*
X87677594Y-74003181D01*
X87499889Y-73975478D01*
X87499464Y-73975412D01*
X87305541Y-73940468D01*
X87051987Y-73888084D01*
X86764025Y-73824038D01*
X86466878Y-73754102D01*
X86185767Y-73684053D01*
X85945915Y-73619666D01*
X85538104Y-73504313D01*
X85154996Y-73916541D01*
X85116337Y-73958098D01*
X84861622Y-74229078D01*
X84636907Y-74461515D01*
X84534768Y-74563259D01*
X84418085Y-74679490D01*
X84181047Y-74907083D01*
X83901686Y-75168373D01*
X83474602Y-75564461D01*
X83603778Y-75976481D01*
X83652784Y-76144031D01*
X83720861Y-76402777D01*
X83787854Y-76681570D01*
X83835515Y-76901692D01*
X83844542Y-76943383D01*
X83848429Y-76962707D01*
X83892250Y-77179760D01*
X83931015Y-77370440D01*
X83960646Y-77514764D01*
X83977064Y-77592745D01*
X83978405Y-77614872D01*
X83961591Y-77658599D01*
X83913622Y-77716308D01*
X83826236Y-77795205D01*
X83691170Y-77902491D01*
X83500163Y-78045371D01*
X83244952Y-78231047D01*
X83171006Y-78284236D01*
X82951284Y-78439693D01*
X82758025Y-78572640D01*
X82602346Y-78675665D01*
X82495364Y-78741356D01*
X82448194Y-78762301D01*
X82423254Y-78752578D01*
X82321367Y-78701491D01*
X82167144Y-78616888D01*
X81975916Y-78507789D01*
X81763012Y-78383219D01*
X81543760Y-78252199D01*
X81333491Y-78123751D01*
X81147534Y-78006899D01*
X81001218Y-77910663D01*
X80883256Y-77830844D01*
X80743590Y-77738641D01*
X80643881Y-77675656D01*
X80600343Y-77652339D01*
X80575214Y-77662935D01*
X80486603Y-77709543D01*
X80351216Y-77784762D01*
X80186126Y-77879240D01*
X80056563Y-77951622D01*
X79868093Y-78052296D01*
X79643473Y-78169110D01*
X79395404Y-78295766D01*
X79136586Y-78425966D01*
X78879720Y-78553414D01*
X78637505Y-78671811D01*
X78422642Y-78774860D01*
X78247832Y-78856263D01*
X78125774Y-78909723D01*
X78069170Y-78928942D01*
X78064031Y-78932450D01*
X78045414Y-78997253D01*
X78027003Y-79134551D01*
X78010156Y-79332249D01*
X77996234Y-79578249D01*
X77995047Y-79603577D01*
X77981606Y-79826768D01*
X77962467Y-80073323D01*
X77939358Y-80327360D01*
X77914007Y-80572996D01*
X77888143Y-80794352D01*
X77863495Y-80975543D01*
X77841790Y-81100690D01*
X77824758Y-81153909D01*
X77800391Y-81164817D01*
X77703926Y-81199489D01*
X77549454Y-81251721D01*
X77352640Y-81316517D01*
X77129149Y-81388881D01*
X76894647Y-81463819D01*
X76664798Y-81536333D01*
X76455269Y-81601430D01*
X76281725Y-81654112D01*
X76159830Y-81689385D01*
X76105251Y-81702253D01*
X76085942Y-81697609D01*
X75999298Y-81638620D01*
X75867469Y-81516248D01*
X75695492Y-81336084D01*
X75488402Y-81103721D01*
X75251236Y-80824752D01*
X74989028Y-80504767D01*
X74706816Y-80149360D01*
X74691211Y-80129878D01*
X74660943Y-80102157D01*
X74618023Y-80087886D01*
X74547684Y-80087674D01*
X74435160Y-80102128D01*
X74265686Y-80131856D01*
X74024494Y-80177467D01*
X73703021Y-80237110D01*
X73135194Y-80333277D01*
X72633298Y-80405431D01*
X72206310Y-80452214D01*
X72165696Y-80455887D01*
X71952376Y-80482605D01*
X71813981Y-80517593D01*
X71739222Y-80564922D01*
X71716811Y-80628659D01*
X71710873Y-80663497D01*
X71675882Y-80777957D01*
X71614767Y-80948635D01*
X71533588Y-81160246D01*
X71438405Y-81397505D01*
X71335276Y-81645128D01*
X71230261Y-81887830D01*
X71129420Y-82110327D01*
X70928725Y-82540411D01*
X69053553Y-82516637D01*
X68912761Y-82230502D01*
X68846738Y-82093816D01*
X68585959Y-81505100D01*
X68347018Y-80887978D01*
X68204578Y-80491901D01*
X67682619Y-80437465D01*
X67523696Y-80419456D01*
X67209540Y-80378250D01*
X66861183Y-80327128D01*
X66502963Y-80270031D01*
X66159222Y-80210899D01*
X65854297Y-80153673D01*
X65612528Y-80102295D01*
X65349775Y-80040998D01*
X65110676Y-80361673D01*
X65013827Y-80487709D01*
X64857606Y-80680413D01*
X64685098Y-80883949D01*
X64506610Y-81087047D01*
X64332449Y-81278439D01*
X64172921Y-81446856D01*
X64038333Y-81581029D01*
X63938992Y-81669688D01*
X63885205Y-81701564D01*
X63880844Y-81701212D01*
X63807499Y-81683879D01*
X63666688Y-81643510D01*
X63472332Y-81584328D01*
X63238357Y-81510561D01*
X62978683Y-81426435D01*
X62142288Y-81151993D01*
X62088680Y-80777816D01*
X62079247Y-80704531D01*
X62058073Y-80494600D01*
X62037340Y-80234921D01*
X62019020Y-79951619D01*
X62005087Y-79670820D01*
X61975101Y-78938000D01*
X61596476Y-78775454D01*
X61566886Y-78762618D01*
X61339986Y-78658561D01*
X61062356Y-78524031D01*
X60755779Y-78370242D01*
X60442041Y-78208406D01*
X60142927Y-78049738D01*
X59880221Y-77905451D01*
X59675708Y-77786758D01*
X59402618Y-77620851D01*
X58963998Y-77920141D01*
X58770387Y-78048073D01*
X58549295Y-78187069D01*
X58318392Y-78326625D01*
X58091674Y-78458741D01*
X57883139Y-78575421D01*
X57706786Y-78668666D01*
X57576612Y-78730478D01*
X57506614Y-78752859D01*
X57484786Y-78744004D01*
X57399448Y-78692669D01*
X57264840Y-78603894D01*
X57094353Y-78487234D01*
X56901376Y-78352247D01*
X56699299Y-78208488D01*
X56501514Y-78065516D01*
X56321410Y-77932886D01*
X56172377Y-77820155D01*
X56067805Y-77736881D01*
X56021085Y-77692619D01*
X56016780Y-77642958D01*
X56030085Y-77518668D01*
X56059900Y-77337173D01*
X56102847Y-77113459D01*
X56155547Y-76862510D01*
X56158671Y-76848591D01*
X61459966Y-76848591D01*
X61468076Y-76857373D01*
X61539468Y-76899351D01*
X61675043Y-76967866D01*
X61863254Y-77057368D01*
X62092551Y-77162305D01*
X62351387Y-77277126D01*
X62468820Y-77328478D01*
X62719001Y-77438037D01*
X62936597Y-77533538D01*
X63109583Y-77609692D01*
X63225931Y-77661209D01*
X63273615Y-77682797D01*
X63287182Y-77684831D01*
X63325456Y-77650524D01*
X63378765Y-77553464D01*
X63453371Y-77383218D01*
X63519430Y-77224148D01*
X63274544Y-77116908D01*
X64441547Y-77116908D01*
X64456587Y-77162434D01*
X64507621Y-77197995D01*
X64611115Y-77234056D01*
X64783536Y-77281085D01*
X64797322Y-77284724D01*
X65027363Y-77345837D01*
X65186486Y-77386261D01*
X65288720Y-77405677D01*
X65348092Y-77403769D01*
X65378630Y-77380217D01*
X65394363Y-77334704D01*
X65409319Y-77266913D01*
X65449452Y-77102079D01*
X65523640Y-77242871D01*
X65653564Y-77414588D01*
X65867794Y-77566676D01*
X66148141Y-77672490D01*
X66269474Y-77702192D01*
X66390151Y-77727127D01*
X66454570Y-77734386D01*
X66485786Y-77730225D01*
X66584326Y-77711497D01*
X66650410Y-77676477D01*
X66697289Y-77607835D01*
X66738214Y-77488242D01*
X66786434Y-77300367D01*
X66807191Y-77212728D01*
X66840805Y-77048556D01*
X66858670Y-76926351D01*
X66857261Y-76867647D01*
X66852753Y-76862150D01*
X66848590Y-76859965D01*
X67512825Y-76859965D01*
X67514028Y-76926351D01*
X67515906Y-77030056D01*
X67539396Y-77278498D01*
X67591379Y-77471677D01*
X67678220Y-77629356D01*
X67806282Y-77771296D01*
X67911076Y-77850913D01*
X68122151Y-77948184D01*
X68356161Y-77998921D01*
X68584464Y-77998129D01*
X68778423Y-77940814D01*
X68823995Y-77918309D01*
X68883896Y-77902570D01*
X68899480Y-77935102D01*
X68904288Y-77949975D01*
X68971176Y-77990774D01*
X69103718Y-78020533D01*
X69242687Y-78038218D01*
X69356405Y-78046726D01*
X69412628Y-78039012D01*
X69427730Y-78014788D01*
X69428682Y-77999070D01*
X69435898Y-77908305D01*
X69449275Y-77749223D01*
X69467708Y-77534746D01*
X69490090Y-77277799D01*
X69515316Y-76991304D01*
X69522070Y-76913813D01*
X70220811Y-76913813D01*
X70285021Y-77248197D01*
X70416225Y-77538138D01*
X70611364Y-77776319D01*
X70867382Y-77955424D01*
X70915958Y-77975598D01*
X71083703Y-78012260D01*
X71289773Y-78027793D01*
X71500118Y-78020761D01*
X71680690Y-77989728D01*
X71683478Y-77988938D01*
X71946606Y-77875111D01*
X72155648Y-77695625D01*
X72318635Y-77443606D01*
X72375710Y-77318083D01*
X72417695Y-77184375D01*
X72436633Y-77036595D01*
X72439889Y-76837955D01*
X72434921Y-76706396D01*
X72381603Y-76388923D01*
X72265476Y-76119086D01*
X72080706Y-75881347D01*
X71923388Y-75751595D01*
X71682155Y-75637739D01*
X71420905Y-75590257D01*
X71154021Y-75604706D01*
X70895887Y-75676641D01*
X70822964Y-75715424D01*
X70660887Y-75801622D01*
X70463403Y-75975203D01*
X70317819Y-76192943D01*
X70238520Y-76450398D01*
X70226651Y-76542304D01*
X70220811Y-76913813D01*
X69522070Y-76913813D01*
X69524434Y-76886694D01*
X69549425Y-76582636D01*
X69570916Y-76295897D01*
X69587708Y-76044061D01*
X69598599Y-75844709D01*
X69602391Y-75715424D01*
X69587747Y-75499355D01*
X69514475Y-75239995D01*
X69375315Y-75035726D01*
X69182726Y-74893045D01*
X75271663Y-74893045D01*
X75283801Y-74927155D01*
X75327520Y-75035646D01*
X75399016Y-75207623D01*
X75494168Y-75433319D01*
X75608851Y-75702969D01*
X75738946Y-76006807D01*
X75880329Y-76335067D01*
X75991477Y-76591685D01*
X76098834Y-76837955D01*
X76125513Y-76899154D01*
X76245969Y-77173260D01*
X76348618Y-77404494D01*
X76429233Y-77583347D01*
X76483587Y-77700310D01*
X76507453Y-77745873D01*
X76527636Y-77744244D01*
X76618450Y-77715447D01*
X76771019Y-77658257D01*
X76973771Y-77577225D01*
X77215134Y-77476905D01*
X77483536Y-77361850D01*
X77648200Y-77290291D01*
X77902927Y-77179760D01*
X78123931Y-77084067D01*
X78299462Y-77008289D01*
X78417771Y-76957504D01*
X78467108Y-76936790D01*
X78468234Y-76901692D01*
X78442006Y-76810883D01*
X78396680Y-76690880D01*
X78342261Y-76567963D01*
X78288756Y-76468409D01*
X78251220Y-76478007D01*
X78145211Y-76517772D01*
X77983715Y-76582876D01*
X77779641Y-76668107D01*
X77545899Y-76768255D01*
X77324978Y-76862979D01*
X77118055Y-76949566D01*
X76952676Y-77016457D01*
X76841854Y-77058394D01*
X76798603Y-77070121D01*
X76779616Y-77043085D01*
X76733215Y-76948816D01*
X76678077Y-76815823D01*
X76622932Y-76668016D01*
X76576509Y-76529303D01*
X76547537Y-76423596D01*
X76544745Y-76374803D01*
X76595056Y-76346377D01*
X76710170Y-76291540D01*
X76872263Y-76218708D01*
X77063919Y-76135895D01*
X77251890Y-76055550D01*
X77408445Y-75987519D01*
X77516482Y-75939303D01*
X77559687Y-75918071D01*
X77558895Y-75906819D01*
X77536200Y-75837317D01*
X77494471Y-75729304D01*
X77445364Y-75611242D01*
X77400532Y-75511595D01*
X77371632Y-75458825D01*
X77369857Y-75458355D01*
X77315893Y-75474339D01*
X77199302Y-75518674D01*
X77035606Y-75585252D01*
X76840325Y-75667961D01*
X76809710Y-75681074D01*
X76615889Y-75760165D01*
X76453679Y-75819840D01*
X76339291Y-75854495D01*
X76288936Y-75858529D01*
X76287241Y-75856509D01*
X76255058Y-75797264D01*
X76197321Y-75675281D01*
X76121669Y-75507129D01*
X76035742Y-75309381D01*
X75936093Y-75074805D01*
X75854456Y-74885429D01*
X75793334Y-74758106D01*
X75744034Y-74683537D01*
X75697865Y-74652422D01*
X75646134Y-74655463D01*
X75580151Y-74683359D01*
X75491222Y-74726813D01*
X75395847Y-74776772D01*
X75302515Y-74843193D01*
X75271663Y-74893045D01*
X69182726Y-74893045D01*
X69165489Y-74880275D01*
X68880219Y-74767370D01*
X68618843Y-74691898D01*
X68505310Y-74825040D01*
X68454638Y-74884464D01*
X68384670Y-74969046D01*
X68321784Y-75052042D01*
X68302158Y-75088755D01*
X68332662Y-75100496D01*
X68428122Y-75128878D01*
X68563815Y-75165579D01*
X68668867Y-75196299D01*
X68818815Y-75250967D01*
X68922709Y-75302073D01*
X68939113Y-75313982D01*
X69030318Y-75429428D01*
X69084676Y-75580761D01*
X69085379Y-75724353D01*
X69065349Y-75768311D01*
X69023973Y-75762746D01*
X68937962Y-75704368D01*
X68889635Y-75674013D01*
X68706148Y-75610039D01*
X68487911Y-75585693D01*
X68268494Y-75602620D01*
X68081468Y-75662461D01*
X68065401Y-75670822D01*
X67880196Y-75794149D01*
X67737382Y-75954837D01*
X67614022Y-76178191D01*
X67593186Y-76225241D01*
X67552340Y-76341494D01*
X67527859Y-76469000D01*
X67515952Y-76633307D01*
X67512825Y-76859965D01*
X66848590Y-76859965D01*
X66784827Y-76826498D01*
X66673790Y-76796343D01*
X66658902Y-76793500D01*
X66538452Y-76767187D01*
X66457078Y-76744110D01*
X66425906Y-76748737D01*
X66384633Y-76817684D01*
X66343147Y-76966795D01*
X66315680Y-77071458D01*
X66277703Y-77172907D01*
X66246180Y-77212131D01*
X66212386Y-77202743D01*
X66116760Y-77160697D01*
X65991346Y-77096328D01*
X65805647Y-76959222D01*
X65683524Y-76778425D01*
X65641941Y-76566868D01*
X65642016Y-76562453D01*
X65654222Y-76471170D01*
X65683259Y-76328196D01*
X65723293Y-76156504D01*
X65768493Y-75979068D01*
X65813025Y-75818860D01*
X65851057Y-75698853D01*
X65876755Y-75642020D01*
X65905185Y-75639619D01*
X65998444Y-75655853D01*
X66129818Y-75690419D01*
X66261349Y-75727759D01*
X66394039Y-75754296D01*
X66473401Y-75744715D01*
X66516912Y-75695278D01*
X66542050Y-75602246D01*
X66544883Y-75587399D01*
X66570867Y-75467971D01*
X66593352Y-75388207D01*
X66581967Y-75364672D01*
X66512432Y-75328365D01*
X66375779Y-75281494D01*
X66165586Y-75221904D01*
X65875433Y-75147443D01*
X65680796Y-75098916D01*
X65452466Y-75041621D01*
X65262608Y-74993565D01*
X65126887Y-74958718D01*
X65060965Y-74941048D01*
X65022937Y-74938995D01*
X64977794Y-74984214D01*
X64936969Y-75101510D01*
X64908541Y-75232308D01*
X64916094Y-75335573D01*
X64979942Y-75394561D01*
X65110396Y-75428732D01*
X65150210Y-75436286D01*
X65258063Y-75466289D01*
X65312708Y-75496812D01*
X65313356Y-75498651D01*
X65307647Y-75557985D01*
X65284586Y-75682054D01*
X65248500Y-75852493D01*
X65203717Y-76050941D01*
X65154563Y-76259032D01*
X65105366Y-76458404D01*
X65060452Y-76630692D01*
X65024150Y-76757533D01*
X65000785Y-76820563D01*
X64976818Y-76828049D01*
X64887489Y-76820801D01*
X64759042Y-76793279D01*
X64641326Y-76763821D01*
X64564313Y-76755735D01*
X64524690Y-76779239D01*
X64497104Y-76838734D01*
X64469541Y-76930639D01*
X64444445Y-77065532D01*
X64441547Y-77116908D01*
X63274544Y-77116908D01*
X62841864Y-76927430D01*
X62670754Y-76851400D01*
X62469055Y-76758562D01*
X62308579Y-76680900D01*
X62202577Y-76624876D01*
X62164298Y-76596952D01*
X62170874Y-76565432D01*
X62206102Y-76469429D01*
X62262191Y-76338964D01*
X62328211Y-76197190D01*
X62393233Y-76067257D01*
X62446326Y-75972319D01*
X62476560Y-75935528D01*
X62485247Y-75937148D01*
X62558785Y-75963714D01*
X62684422Y-76016117D01*
X62840842Y-76085575D01*
X62919900Y-76121631D01*
X63104547Y-76204217D01*
X63229385Y-76251953D01*
X63309913Y-76265308D01*
X63361634Y-76244753D01*
X63400048Y-76190761D01*
X63440656Y-76103802D01*
X63466739Y-76044186D01*
X63510320Y-75931739D01*
X63527976Y-75865542D01*
X63503693Y-75839055D01*
X63412930Y-75783079D01*
X63270580Y-75710163D01*
X63093292Y-75629351D01*
X62657641Y-75441138D01*
X62826480Y-75061932D01*
X62868904Y-74968757D01*
X62941540Y-74819211D01*
X62998944Y-74713698D01*
X63031442Y-74670686D01*
X63066902Y-74678838D01*
X63172273Y-74717276D01*
X63332859Y-74781821D01*
X63534866Y-74866897D01*
X63764500Y-74966931D01*
X63954488Y-75050761D01*
X64158671Y-75140322D01*
X64322152Y-75211424D01*
X64431679Y-75258308D01*
X64473996Y-75275216D01*
X64488177Y-75254444D01*
X64528787Y-75172305D01*
X64583845Y-75049068D01*
X64594409Y-75024274D01*
X64641786Y-74897431D01*
X64650444Y-74825040D01*
X64623383Y-74787230D01*
X64600354Y-74774752D01*
X64503464Y-74728380D01*
X64350857Y-74658809D01*
X64156150Y-74571936D01*
X63932958Y-74473657D01*
X63694900Y-74369868D01*
X63455591Y-74266466D01*
X63228648Y-74169348D01*
X63027687Y-74084409D01*
X62866326Y-74017548D01*
X62763084Y-73976603D01*
X77879723Y-73976603D01*
X77901646Y-74175931D01*
X77984445Y-74364918D01*
X78140681Y-74546836D01*
X78178051Y-74580707D01*
X78271613Y-74643184D01*
X78385544Y-74677072D01*
X78553623Y-74694446D01*
X78652842Y-74696788D01*
X78935996Y-74652710D01*
X79199566Y-74528548D01*
X79453116Y-74320323D01*
X79639854Y-74133693D01*
X79706236Y-74262061D01*
X79752165Y-74380809D01*
X79772617Y-74497443D01*
X79757347Y-74573149D01*
X79672933Y-74700014D01*
X79530933Y-74818788D01*
X79349944Y-74917924D01*
X79148564Y-74985875D01*
X78945392Y-75011092D01*
X78794163Y-75011092D01*
X78825458Y-75220190D01*
X78836333Y-75287616D01*
X78859021Y-75402296D01*
X78877075Y-75462305D01*
X78899014Y-75482965D01*
X78945449Y-75488723D01*
X79036392Y-75477449D01*
X79192586Y-75448218D01*
X79237235Y-75438651D01*
X79497996Y-75354432D01*
X79750007Y-75230109D01*
X79973639Y-75078629D01*
X80149264Y-74912938D01*
X80257254Y-74745982D01*
X80269107Y-74710920D01*
X80292403Y-74563259D01*
X80291157Y-74397274D01*
X80289975Y-74385841D01*
X80273999Y-74297028D01*
X80241339Y-74199432D01*
X80185422Y-74080255D01*
X80099672Y-73926699D01*
X79977517Y-73725968D01*
X79812381Y-73465262D01*
X79801034Y-73447537D01*
X79658525Y-73225064D01*
X79532552Y-73028650D01*
X79430841Y-72870320D01*
X79361118Y-72762103D01*
X79331109Y-72716026D01*
X79301183Y-72714631D01*
X79215677Y-72749961D01*
X79098912Y-72818069D01*
X78978749Y-72904522D01*
X78919546Y-72973790D01*
X78916090Y-73036073D01*
X78917145Y-73039459D01*
X78920179Y-73090113D01*
X78874632Y-73112904D01*
X78760919Y-73118197D01*
X78607530Y-73134356D01*
X78378747Y-73224686D01*
X78151097Y-73398256D01*
X78143713Y-73405242D01*
X77988602Y-73583415D01*
X77904830Y-73764864D01*
X77879723Y-73976603D01*
X62763084Y-73976603D01*
X62758182Y-73974659D01*
X62716870Y-73961640D01*
X62711739Y-73970633D01*
X62676572Y-74044995D01*
X62613566Y-74184319D01*
X62527594Y-74377410D01*
X62423529Y-74613074D01*
X62306245Y-74880118D01*
X62180615Y-75167348D01*
X62051514Y-75463569D01*
X61923814Y-75757588D01*
X61802389Y-76038210D01*
X61692113Y-76294243D01*
X61597859Y-76514491D01*
X61524500Y-76687761D01*
X61476912Y-76802859D01*
X61459966Y-76848591D01*
X56158671Y-76848591D01*
X56214622Y-76599312D01*
X56276695Y-76338849D01*
X56338388Y-76096106D01*
X56396322Y-75886067D01*
X56447119Y-75723719D01*
X56487402Y-75624045D01*
X56499566Y-75587521D01*
X56484502Y-75529460D01*
X56421191Y-75450483D01*
X56298930Y-75334125D01*
X56215491Y-75256832D01*
X56051016Y-75099505D01*
X55849632Y-74903018D01*
X55625667Y-74681696D01*
X55393447Y-74449863D01*
X55167297Y-74221844D01*
X54961545Y-74011963D01*
X54790517Y-73834546D01*
X54668538Y-73703918D01*
X54461704Y-73475253D01*
X54162958Y-73576863D01*
X54050074Y-73613392D01*
X53749331Y-73699204D01*
X53401897Y-73786131D01*
X53035795Y-73867386D01*
X52679050Y-73936184D01*
X52537961Y-73959368D01*
X52402314Y-73974054D01*
X52320642Y-73968574D01*
X52274561Y-73943248D01*
X52272929Y-73941516D01*
X52227410Y-73884616D01*
X52140103Y-73769274D01*
X52019928Y-73607491D01*
X51875801Y-73411265D01*
X51716641Y-73192595D01*
X51212277Y-72496630D01*
X51220061Y-72482488D01*
X56934337Y-72482488D01*
X57107903Y-72628206D01*
X57119821Y-72638160D01*
X57225680Y-72717545D01*
X57293899Y-72742259D01*
X57345761Y-72720566D01*
X57377761Y-72698850D01*
X57403804Y-72714711D01*
X57410052Y-72803967D01*
X57443821Y-72940167D01*
X57529631Y-73073317D01*
X57643987Y-73175641D01*
X57763394Y-73219509D01*
X57860871Y-73215353D01*
X57994448Y-73192335D01*
X58062762Y-73177301D01*
X58100405Y-73191825D01*
X58091285Y-73260939D01*
X58082688Y-73349900D01*
X58118481Y-73521180D01*
X58205808Y-73685767D01*
X58329994Y-73809916D01*
X58362470Y-73830598D01*
X58551067Y-73901975D01*
X58739707Y-73886840D01*
X58934943Y-73784921D01*
X58971163Y-73755676D01*
X59071665Y-73663444D01*
X59207674Y-73530520D01*
X59368336Y-73368350D01*
X59542794Y-73188380D01*
X59720196Y-73002056D01*
X59889684Y-72820824D01*
X60040404Y-72656130D01*
X60161501Y-72519419D01*
X60242119Y-72422137D01*
X60271404Y-72375731D01*
X60260396Y-72354554D01*
X60254095Y-72347833D01*
X80170201Y-72347833D01*
X80170207Y-72353111D01*
X80173767Y-72375731D01*
X80210844Y-72611326D01*
X80321720Y-72877166D01*
X80489810Y-73130888D01*
X80702089Y-73352751D01*
X80945534Y-73523013D01*
X81094481Y-73592792D01*
X81385781Y-73664783D01*
X81673178Y-73648924D01*
X81957611Y-73545235D01*
X82007549Y-73515177D01*
X82155215Y-73392837D01*
X82303923Y-73232155D01*
X82428770Y-73061982D01*
X82504854Y-72911173D01*
X82519591Y-72853276D01*
X82535315Y-72703302D01*
X82531365Y-72543217D01*
X82509558Y-72405353D01*
X82471713Y-72322042D01*
X82449132Y-72312957D01*
X82355103Y-72324544D01*
X82213618Y-72373978D01*
X82095248Y-72426940D01*
X82026337Y-72476905D01*
X81999938Y-72544623D01*
X81995668Y-72656520D01*
X81973644Y-72804685D01*
X81883467Y-72971036D01*
X81739632Y-73088223D01*
X81559425Y-73143527D01*
X81360131Y-73124227D01*
X81175714Y-73035752D01*
X80992702Y-72883533D01*
X80840187Y-72693110D01*
X80735771Y-72486719D01*
X80697054Y-72286594D01*
X80698025Y-72262223D01*
X80747751Y-72106318D01*
X80856896Y-71969086D01*
X81003404Y-71866659D01*
X81165221Y-71815167D01*
X81320293Y-71830742D01*
X81369882Y-71847935D01*
X81433965Y-71851744D01*
X81488217Y-71808213D01*
X81559630Y-71702925D01*
X81596429Y-71644109D01*
X81665540Y-71523177D01*
X81688325Y-71449338D01*
X81667331Y-71403842D01*
X81605102Y-71367937D01*
X81336743Y-71288007D01*
X81071000Y-71294972D01*
X80810546Y-71389642D01*
X80556006Y-71571898D01*
X80508109Y-71616468D01*
X80316782Y-71843934D01*
X80206174Y-72083643D01*
X80170201Y-72347833D01*
X60254095Y-72347833D01*
X60197993Y-72287993D01*
X60098829Y-72201873D01*
X59926255Y-72063188D01*
X59367855Y-72675802D01*
X59188553Y-72870139D01*
X59026060Y-73041805D01*
X58890897Y-73180039D01*
X58793537Y-73274127D01*
X58744455Y-73313358D01*
X58684949Y-73331038D01*
X58554257Y-73325608D01*
X58468863Y-73257739D01*
X58441216Y-73142612D01*
X58483765Y-72995412D01*
X58516014Y-72946078D01*
X58604837Y-72831885D01*
X58734095Y-72677484D01*
X58892103Y-72496732D01*
X59067177Y-72303486D01*
X59580784Y-71746550D01*
X59408850Y-71574725D01*
X59236915Y-71402901D01*
X58673482Y-72018140D01*
X58515955Y-72187120D01*
X58334984Y-72372974D01*
X58182602Y-72519976D01*
X58068473Y-72618879D01*
X58002264Y-72660432D01*
X57908658Y-72673059D01*
X57789645Y-72639272D01*
X57728924Y-72543614D01*
X57735479Y-72395023D01*
X57742616Y-72377114D01*
X57799383Y-72288226D01*
X57900871Y-72155241D01*
X58035438Y-71992943D01*
X58191440Y-71816111D01*
X58237803Y-71765043D01*
X58400884Y-71584551D01*
X58548627Y-71419806D01*
X58666351Y-71287228D01*
X58739377Y-71203236D01*
X58858130Y-71062587D01*
X58691402Y-70899782D01*
X58524674Y-70736976D01*
X57829904Y-71490414D01*
X57724499Y-71604839D01*
X57526841Y-71820054D01*
X57349057Y-72014446D01*
X57201127Y-72177064D01*
X57093027Y-72296956D01*
X57034736Y-72363170D01*
X56934337Y-72482488D01*
X51220061Y-72482488D01*
X51434947Y-72092076D01*
X51574408Y-71844209D01*
X51758202Y-71531858D01*
X51938329Y-71240175D01*
X52102796Y-70988477D01*
X52239613Y-70796076D01*
X52382052Y-70608963D01*
X52215029Y-70314453D01*
X55210856Y-70314453D01*
X55212099Y-70326270D01*
X55249923Y-70399841D01*
X55324150Y-70495256D01*
X55413024Y-70589044D01*
X55494792Y-70657736D01*
X55547698Y-70677861D01*
X55561335Y-70670463D01*
X55638119Y-70617575D01*
X55764213Y-70524104D01*
X55925716Y-70400475D01*
X56108728Y-70257113D01*
X56266153Y-70133671D01*
X56481611Y-69971945D01*
X56649604Y-69859515D01*
X56781733Y-69790813D01*
X56889598Y-69760269D01*
X56984797Y-69762317D01*
X57078932Y-69791387D01*
X57203928Y-69868186D01*
X57324215Y-70010104D01*
X57393245Y-70179830D01*
X57402396Y-70353938D01*
X57343046Y-70509004D01*
X57314172Y-70541173D01*
X57220105Y-70628367D01*
X57078225Y-70750426D01*
X56901961Y-70895898D01*
X56704745Y-71053330D01*
X56567467Y-71161955D01*
X56395011Y-71301048D01*
X56257765Y-71414915D01*
X56167194Y-71493995D01*
X56134763Y-71528725D01*
X56149802Y-71555982D01*
X56209844Y-71634167D01*
X56299841Y-71739433D01*
X56463605Y-71923407D01*
X57374013Y-71211183D01*
X57604734Y-71030011D01*
X57825352Y-70855361D01*
X58012915Y-70705393D01*
X58158309Y-70587444D01*
X58252419Y-70508850D01*
X58286131Y-70476949D01*
X58282707Y-70470821D01*
X81755989Y-70470821D01*
X81758450Y-70476949D01*
X81759858Y-70480454D01*
X81810899Y-70535561D01*
X81898532Y-70608636D01*
X81993933Y-70676903D01*
X82068279Y-70717587D01*
X82080823Y-70717899D01*
X82147827Y-70675974D01*
X82243558Y-70580220D01*
X82353648Y-70446191D01*
X82463731Y-70289441D01*
X82482577Y-70290344D01*
X82560671Y-70332088D01*
X82687055Y-70416282D01*
X82849556Y-70534641D01*
X83036001Y-70678882D01*
X83150727Y-70769991D01*
X83323478Y-70907007D01*
X83463622Y-71017940D01*
X83559057Y-71093220D01*
X83597685Y-71123271D01*
X83598395Y-71124890D01*
X83573079Y-71169532D01*
X83504473Y-71260426D01*
X83405524Y-71380257D01*
X83196093Y-71625399D01*
X83366244Y-71775685D01*
X83430455Y-71830959D01*
X83515735Y-71898892D01*
X83558406Y-71925020D01*
X83568754Y-71918638D01*
X83624126Y-71859666D01*
X83712686Y-71752393D01*
X83821929Y-71613377D01*
X83855379Y-71569449D01*
X84319755Y-71569449D01*
X84325169Y-71695098D01*
X84414810Y-71821585D01*
X84422101Y-71828709D01*
X84560915Y-71913114D01*
X84704914Y-71917712D01*
X84835009Y-71841594D01*
X84917242Y-71713371D01*
X84932812Y-71571413D01*
X84885067Y-71442732D01*
X84782420Y-71349364D01*
X84633288Y-71313345D01*
X84510750Y-71335850D01*
X84397996Y-71429333D01*
X84397917Y-71429434D01*
X84319755Y-71569449D01*
X83855379Y-71569449D01*
X83939351Y-71459172D01*
X84052446Y-71306337D01*
X84148711Y-71171428D01*
X84215640Y-71071000D01*
X84240728Y-71021611D01*
X84239354Y-71017316D01*
X84193847Y-70965762D01*
X84091546Y-70870681D01*
X83942802Y-70741132D01*
X83757969Y-70586177D01*
X83547401Y-70414875D01*
X83501565Y-70378053D01*
X83295916Y-70211390D01*
X83118050Y-70064913D01*
X82978258Y-69947261D01*
X82886835Y-69867072D01*
X82854073Y-69832985D01*
X82875776Y-69793379D01*
X82939358Y-69703831D01*
X83030156Y-69586080D01*
X83114508Y-69476784D01*
X83180830Y-69383641D01*
X83206238Y-69337664D01*
X83178737Y-69301014D01*
X83105269Y-69232732D01*
X83012803Y-69156278D01*
X82928470Y-69094009D01*
X82879395Y-69068284D01*
X82852781Y-69092846D01*
X82780163Y-69175345D01*
X82672339Y-69303805D01*
X82539422Y-69465598D01*
X82391527Y-69648098D01*
X82238767Y-69838677D01*
X82091257Y-70024709D01*
X81959109Y-70193566D01*
X81852440Y-70332622D01*
X81781362Y-70429249D01*
X81755989Y-70470821D01*
X58282707Y-70470821D01*
X58269436Y-70447073D01*
X58208490Y-70366864D01*
X58117973Y-70258392D01*
X58051749Y-70183805D01*
X57976482Y-70113388D01*
X57924476Y-70095895D01*
X57877172Y-70120715D01*
X57852553Y-70140038D01*
X57814529Y-70148253D01*
X57806239Y-70080254D01*
X57805127Y-70042219D01*
X57752580Y-69802230D01*
X57633175Y-69571750D01*
X57463238Y-69375863D01*
X57259094Y-69239649D01*
X57049768Y-69171362D01*
X56846062Y-69172022D01*
X56624081Y-69245242D01*
X56621684Y-69246347D01*
X56532201Y-69297983D01*
X56396150Y-69388437D01*
X56226693Y-69507750D01*
X56036995Y-69645964D01*
X55840218Y-69793118D01*
X55649525Y-69939255D01*
X55478080Y-70074416D01*
X55339044Y-70188642D01*
X55245582Y-70271974D01*
X55210856Y-70314453D01*
X52215029Y-70314453D01*
X52106663Y-70123373D01*
X52011096Y-69949664D01*
X51878396Y-69698612D01*
X51731003Y-69411909D01*
X51580923Y-69112940D01*
X51440160Y-68825091D01*
X51304497Y-68543198D01*
X53229043Y-68543198D01*
X53232409Y-68627224D01*
X53296268Y-68904728D01*
X53431265Y-69162061D01*
X53624546Y-69379107D01*
X53863259Y-69535751D01*
X53901901Y-69552659D01*
X54060361Y-69605022D01*
X54218139Y-69636138D01*
X54348283Y-69642019D01*
X54423840Y-69618679D01*
X54428968Y-69589436D01*
X54422658Y-69493376D01*
X54402466Y-69358196D01*
X54378478Y-69238775D01*
X54346662Y-69154680D01*
X54294865Y-69113398D01*
X54205221Y-69090699D01*
X54078340Y-69047660D01*
X53940068Y-68948542D01*
X53836819Y-68816621D01*
X53775309Y-68669494D01*
X53762253Y-68524757D01*
X53804367Y-68400009D01*
X53908367Y-68312846D01*
X53982593Y-68288614D01*
X54084588Y-68289107D01*
X54208132Y-68330229D01*
X54368382Y-68417469D01*
X54580491Y-68556318D01*
X54778496Y-68689531D01*
X54986659Y-68819718D01*
X55155199Y-68908503D01*
X55300833Y-68963231D01*
X55440274Y-68991245D01*
X55590240Y-68999886D01*
X55665788Y-68999632D01*
X55811186Y-68986673D01*
X55926335Y-68946794D01*
X56052085Y-68868359D01*
X56089089Y-68841346D01*
X56285455Y-68644913D01*
X56401961Y-68412772D01*
X56421533Y-68275910D01*
X62120278Y-68275910D01*
X62915787Y-68275910D01*
X62903214Y-66671305D01*
X62903126Y-66659966D01*
X62901110Y-66296313D01*
X62900783Y-65963624D01*
X62902041Y-65671412D01*
X62904776Y-65429187D01*
X62908882Y-65246463D01*
X62914253Y-65132751D01*
X62920784Y-65097561D01*
X62920890Y-65097677D01*
X62939627Y-65146909D01*
X62979075Y-65271188D01*
X63036395Y-65460879D01*
X63108746Y-65706347D01*
X63193288Y-65997957D01*
X63287181Y-66326076D01*
X63387584Y-66681069D01*
X63389224Y-66686901D01*
X63489481Y-67041408D01*
X63583101Y-67368781D01*
X63667257Y-67659407D01*
X63739120Y-67903670D01*
X63795864Y-68091958D01*
X63834658Y-68214656D01*
X63852676Y-68262150D01*
X63857861Y-68266690D01*
X63902973Y-68268720D01*
X63903863Y-68267284D01*
X63923274Y-68210744D01*
X63963269Y-68080068D01*
X64021110Y-67884655D01*
X64094060Y-67633904D01*
X64179382Y-67337215D01*
X64274340Y-67003987D01*
X64376197Y-66643619D01*
X64827557Y-65040381D01*
X64839104Y-66658145D01*
X64850652Y-68275910D01*
X65641941Y-68275910D01*
X65828283Y-68275910D01*
X66808493Y-68275788D01*
X66888139Y-68000719D01*
X66929649Y-67857763D01*
X66994687Y-67634723D01*
X67055081Y-67428509D01*
X67142377Y-67131369D01*
X68843558Y-67131369D01*
X69012888Y-67703639D01*
X69182218Y-68275910D01*
X69657141Y-68275910D01*
X69809504Y-68273851D01*
X69977816Y-68265402D01*
X70090779Y-68251745D01*
X70132063Y-68234310D01*
X70131694Y-68231962D01*
X70114046Y-68170831D01*
X70071616Y-68034487D01*
X70006738Y-67830168D01*
X69921747Y-67565111D01*
X69818975Y-67246553D01*
X69700757Y-66881731D01*
X69569426Y-66477883D01*
X69427317Y-66042246D01*
X69289521Y-65621053D01*
X70111364Y-65621053D01*
X70120708Y-65943118D01*
X70147829Y-66235952D01*
X70192725Y-66471057D01*
X70209344Y-66529740D01*
X70381476Y-66981435D01*
X70614124Y-67371795D01*
X70905205Y-67698428D01*
X71252635Y-67958940D01*
X71654334Y-68150937D01*
X71656542Y-68151745D01*
X71751963Y-68183545D01*
X71851096Y-68207995D01*
X71967997Y-68226394D01*
X72054277Y-68234310D01*
X72116720Y-68240039D01*
X72311320Y-68250228D01*
X72565851Y-68258258D01*
X72894368Y-68265427D01*
X73873830Y-68284400D01*
X73873830Y-68275910D01*
X74060267Y-68275910D01*
X74550325Y-68275849D01*
X75040382Y-68275788D01*
X75120361Y-68000719D01*
X75162350Y-67857265D01*
X75228219Y-67634460D01*
X75289726Y-67428509D01*
X75379113Y-67131369D01*
X77081101Y-67131369D01*
X77153954Y-67384488D01*
X77199469Y-67542085D01*
X77260940Y-67754023D01*
X77319969Y-67956759D01*
X77413132Y-68275910D01*
X78370947Y-68275910D01*
X78345020Y-68160956D01*
X83522692Y-68160956D01*
X83537894Y-68275910D01*
X83559508Y-68439357D01*
X83672825Y-68700275D01*
X83857303Y-68934417D01*
X84107599Y-69132487D01*
X84418371Y-69285191D01*
X84453311Y-69297813D01*
X84770378Y-69369683D01*
X85067671Y-69359786D01*
X85338528Y-69269193D01*
X85576288Y-69098975D01*
X85610942Y-69064489D01*
X85795073Y-68821166D01*
X85912544Y-68549972D01*
X85960225Y-68267495D01*
X85934984Y-67990327D01*
X85833689Y-67735056D01*
X85704714Y-67559759D01*
X85472034Y-67351680D01*
X85192515Y-67188294D01*
X84887976Y-67081636D01*
X84580238Y-67043740D01*
X84417733Y-67057447D01*
X84149896Y-67145011D01*
X83915539Y-67307588D01*
X83723401Y-67538291D01*
X83582221Y-67830231D01*
X83567720Y-67874369D01*
X83522692Y-68160956D01*
X78345020Y-68160956D01*
X78343643Y-68154852D01*
X78325555Y-68092959D01*
X78282373Y-67954844D01*
X78216614Y-67748354D01*
X78130753Y-67481151D01*
X78027266Y-67160896D01*
X77908630Y-66795251D01*
X77777320Y-66391879D01*
X77635813Y-65958441D01*
X77486583Y-65502599D01*
X76656828Y-62971403D01*
X75792103Y-62971403D01*
X75601424Y-63565684D01*
X75555789Y-63707142D01*
X75481538Y-63935961D01*
X75386793Y-64227005D01*
X75275265Y-64568913D01*
X75150662Y-64950323D01*
X75016695Y-65359872D01*
X74877073Y-65786197D01*
X74735506Y-66217937D01*
X74060267Y-68275910D01*
X73873830Y-68275910D01*
X73873830Y-62949393D01*
X73092461Y-62950929D01*
X73018950Y-62951280D01*
X72698670Y-62957543D01*
X72403763Y-62970629D01*
X72155096Y-62989386D01*
X71973538Y-63012664D01*
X71558187Y-63128182D01*
X71182067Y-63319226D01*
X70853548Y-63581181D01*
X70576544Y-63910220D01*
X70354965Y-64302517D01*
X70192725Y-64754246D01*
X70189986Y-64764463D01*
X70146003Y-65003227D01*
X70119796Y-65298257D01*
X70111364Y-65621053D01*
X69289521Y-65621053D01*
X69276763Y-65582057D01*
X68421464Y-62971403D01*
X67559692Y-62971403D01*
X67289134Y-63807799D01*
X67272671Y-63858652D01*
X67191989Y-64107186D01*
X67089822Y-64421076D01*
X66970932Y-64785729D01*
X66840083Y-65186548D01*
X66702041Y-65608939D01*
X66561568Y-66038305D01*
X66423429Y-66460052D01*
X65828283Y-68275910D01*
X65641941Y-68275910D01*
X65641941Y-62949393D01*
X64767773Y-62949393D01*
X64702058Y-63180502D01*
X64686464Y-63236803D01*
X64646505Y-63384643D01*
X64589531Y-63597771D01*
X64518714Y-63864243D01*
X64437225Y-64172116D01*
X64348235Y-64509449D01*
X64254917Y-64864298D01*
X64184004Y-65133906D01*
X64099108Y-65455364D01*
X64023313Y-65740899D01*
X63959253Y-65980659D01*
X63909563Y-66164795D01*
X63876877Y-66283454D01*
X63863829Y-66326787D01*
X63861818Y-66322752D01*
X63841564Y-66257263D01*
X63801862Y-66118696D01*
X63745187Y-65916001D01*
X63674015Y-65658131D01*
X63590821Y-65354038D01*
X63498080Y-65012674D01*
X63398267Y-64642991D01*
X62942367Y-62949393D01*
X62120278Y-62949393D01*
X62120278Y-68275910D01*
X56421533Y-68275910D01*
X56440871Y-68140684D01*
X56440082Y-68089102D01*
X56389794Y-67767438D01*
X56267643Y-67483683D01*
X56082592Y-67247013D01*
X55843606Y-67066603D01*
X55559650Y-66951629D01*
X55239689Y-66911265D01*
X55021924Y-66911265D01*
X55049437Y-67048830D01*
X55068036Y-67169868D01*
X55076950Y-67292326D01*
X55089552Y-67363337D01*
X55131976Y-67414584D01*
X55162373Y-67423145D01*
X55266286Y-67451059D01*
X55402009Y-67486609D01*
X55477716Y-67510395D01*
X55667470Y-67611448D01*
X55816437Y-67750800D01*
X55913774Y-67912411D01*
X55948637Y-68080243D01*
X55910184Y-68238259D01*
X55904577Y-68248592D01*
X55797015Y-68386413D01*
X55663009Y-68451675D01*
X55496971Y-68444195D01*
X55293316Y-68363794D01*
X55046453Y-68210291D01*
X54811833Y-68050427D01*
X54548811Y-67889873D01*
X54329532Y-67783431D01*
X54142990Y-67726931D01*
X53978183Y-67716205D01*
X53824108Y-67747082D01*
X53780299Y-67763053D01*
X53562577Y-67892003D01*
X53388203Y-68078289D01*
X53272062Y-68301993D01*
X53229043Y-68543198D01*
X51304497Y-68543198D01*
X51049047Y-68012399D01*
X50608569Y-68012092D01*
X50546434Y-68011380D01*
X50334530Y-68003072D01*
X50080258Y-67987005D01*
X49805337Y-67965159D01*
X49531486Y-67939511D01*
X49280424Y-67912039D01*
X49073870Y-67884722D01*
X48933542Y-67859537D01*
X48929043Y-67858309D01*
X48892527Y-67833766D01*
X48852512Y-67775953D01*
X48804643Y-67674657D01*
X48744566Y-67519664D01*
X48667927Y-67300760D01*
X48570370Y-67007733D01*
X48558694Y-66972098D01*
X48476036Y-66716011D01*
X48404381Y-66487534D01*
X48347961Y-66300636D01*
X48311006Y-66169291D01*
X48297747Y-66107468D01*
X48302224Y-66093037D01*
X48356691Y-66019676D01*
X48464178Y-65904752D01*
X48613503Y-65758519D01*
X48793486Y-65591230D01*
X48992944Y-65413140D01*
X49200697Y-65234501D01*
X49405563Y-65065568D01*
X49596361Y-64916594D01*
X49698403Y-64839831D01*
X49829092Y-64741798D01*
X49920073Y-64673910D01*
X49956054Y-64647604D01*
X49954845Y-64630916D01*
X49940259Y-64545494D01*
X49913116Y-64404214D01*
X49876929Y-64225806D01*
X49834837Y-64012686D01*
X49776729Y-63691954D01*
X49718221Y-63343662D01*
X49662857Y-62990587D01*
X49614179Y-62655505D01*
X49575728Y-62361193D01*
X49551048Y-62130427D01*
X49520082Y-61773680D01*
X49272086Y-61696620D01*
X49113217Y-61643265D01*
X48856589Y-61547798D01*
X48567744Y-61432863D01*
X48273160Y-61309346D01*
X47999314Y-61188134D01*
X47772685Y-61080114D01*
X47461352Y-60923330D01*
X47461352Y-60308145D01*
X50180612Y-60308145D01*
X53278088Y-60313069D01*
X53684806Y-60314022D01*
X54170050Y-60316016D01*
X54618034Y-60318809D01*
X55022413Y-60322314D01*
X55376837Y-60326442D01*
X55674960Y-60331105D01*
X55910432Y-60336215D01*
X56076906Y-60341684D01*
X56168035Y-60347423D01*
X56177470Y-60353345D01*
X56137324Y-60360357D01*
X55950781Y-60390621D01*
X55770278Y-60417150D01*
X55561179Y-60445602D01*
X55561179Y-60827979D01*
X54702773Y-61170470D01*
X53844368Y-61512961D01*
X53844368Y-61978305D01*
X53283103Y-61990626D01*
X52721837Y-62002946D01*
X52708635Y-62256066D01*
X52695433Y-62509185D01*
X51531079Y-62509185D01*
X51394281Y-62509371D01*
X51033638Y-62512098D01*
X50747081Y-62517977D01*
X50538091Y-62526875D01*
X50410146Y-62538662D01*
X50366725Y-62553206D01*
X50376735Y-62560329D01*
X50461163Y-62573306D01*
X50628847Y-62583599D01*
X50876574Y-62591094D01*
X51201132Y-62595674D01*
X51599307Y-62597227D01*
X52831889Y-62597227D01*
X52831889Y-62112998D01*
X53976430Y-62112998D01*
X53976430Y-61593778D01*
X55627210Y-60933920D01*
X55649220Y-60742090D01*
X55671231Y-60550260D01*
X56133449Y-60491434D01*
X56228694Y-60479307D01*
X56432431Y-60452317D01*
X56567922Y-60429997D01*
X56649081Y-60407423D01*
X56689823Y-60379672D01*
X56704065Y-60341820D01*
X56705720Y-60288942D01*
X56705720Y-60178935D01*
X57850291Y-60166504D01*
X58135351Y-60164103D01*
X58413840Y-60163255D01*
X58650460Y-60164125D01*
X58833668Y-60166618D01*
X58951926Y-60170636D01*
X58993692Y-60176083D01*
X58959888Y-60207265D01*
X58865683Y-60281494D01*
X58722236Y-60390259D01*
X58540707Y-60525101D01*
X58332255Y-60677560D01*
X58331286Y-60678263D01*
X58124123Y-60829878D01*
X57945096Y-60963142D01*
X57805046Y-61069800D01*
X57714813Y-61141597D01*
X57685239Y-61170276D01*
X57707250Y-61166672D01*
X57799745Y-61139310D01*
X57951310Y-61089875D01*
X58147874Y-61022997D01*
X58375366Y-60943302D01*
X58534292Y-60887480D01*
X58742376Y-60816352D01*
X58910040Y-60761413D01*
X59023161Y-60727250D01*
X59067614Y-60718451D01*
X59043585Y-60746572D01*
X58961296Y-60827485D01*
X58827568Y-60954344D01*
X58649616Y-61120417D01*
X58434660Y-61318969D01*
X58189917Y-61543268D01*
X57922605Y-61786581D01*
X57672872Y-62013651D01*
X57425899Y-62239278D01*
X57207980Y-62439477D01*
X57026371Y-62607532D01*
X56888328Y-62736726D01*
X56801109Y-62820340D01*
X56771970Y-62851659D01*
X56783105Y-62847153D01*
X56856719Y-62805999D01*
X56991437Y-62726644D01*
X57178246Y-62614517D01*
X57408131Y-62475043D01*
X57672078Y-62313651D01*
X57961071Y-62135767D01*
X58113214Y-62042017D01*
X58390708Y-61872072D01*
X58638712Y-61721540D01*
X58848170Y-61595836D01*
X59010029Y-61500376D01*
X59115232Y-61440577D01*
X59154725Y-61421853D01*
X59140963Y-61453011D01*
X59086679Y-61549951D01*
X58997020Y-61702680D01*
X58877973Y-61901133D01*
X58735528Y-62135249D01*
X58575672Y-62394962D01*
X58435622Y-62622073D01*
X58288892Y-62861923D01*
X58164025Y-63068110D01*
X58067194Y-63230368D01*
X58004569Y-63338432D01*
X57982323Y-63382033D01*
X58002690Y-63369758D01*
X58076301Y-63305848D01*
X58194037Y-63197014D01*
X58345822Y-63052601D01*
X58521577Y-62881954D01*
X58559870Y-62844455D01*
X58832040Y-62579281D01*
X59046535Y-62373234D01*
X59206976Y-62223088D01*
X59316985Y-62125619D01*
X59380184Y-62077602D01*
X59400195Y-62075810D01*
X59380640Y-62117020D01*
X59344584Y-62176541D01*
X59268194Y-62303738D01*
X59157664Y-62488294D01*
X59018566Y-62720890D01*
X58856473Y-62992207D01*
X58676957Y-63292925D01*
X58485592Y-63613727D01*
X58305577Y-63915387D01*
X58121907Y-64222702D01*
X57953994Y-64503177D01*
X57807694Y-64747050D01*
X57688865Y-64944559D01*
X57603362Y-65085942D01*
X57557042Y-65161438D01*
X57527090Y-65210350D01*
X57481618Y-65293599D01*
X57472584Y-65326516D01*
X57477151Y-65325372D01*
X57491234Y-65314910D01*
X57516701Y-65288585D01*
X57558319Y-65240457D01*
X57620853Y-65164587D01*
X57709071Y-65055035D01*
X57827737Y-64905862D01*
X57981618Y-64711128D01*
X58175480Y-64464894D01*
X58414090Y-64161221D01*
X58702212Y-63794169D01*
X59570249Y-62688043D01*
X67922974Y-62688043D01*
X68460025Y-62675650D01*
X68997075Y-62663258D01*
X69685626Y-61379277D01*
X69797148Y-61171623D01*
X69955003Y-60878799D01*
X70096748Y-60617159D01*
X70217312Y-60395999D01*
X70311619Y-60224613D01*
X70374597Y-60112296D01*
X70401171Y-60068343D01*
X70413410Y-60070060D01*
X70472009Y-60118511D01*
X70564194Y-60215963D01*
X70676301Y-60348502D01*
X70924437Y-60655615D01*
X70924437Y-62685268D01*
X71804853Y-62685268D01*
X71804853Y-62652335D01*
X72024957Y-62652335D01*
X72053073Y-62663455D01*
X72153084Y-62674748D01*
X72308482Y-62682432D01*
X72501354Y-62685268D01*
X72977751Y-62685268D01*
X76515078Y-62685268D01*
X77306368Y-62685268D01*
X77317915Y-61067504D01*
X77329463Y-59449740D01*
X77789107Y-61068362D01*
X77808515Y-61136569D01*
X77911109Y-61492434D01*
X78007148Y-61818004D01*
X78093796Y-62104190D01*
X78168219Y-62341902D01*
X78227580Y-62522051D01*
X78269046Y-62635550D01*
X78289780Y-62673308D01*
X78310391Y-62630042D01*
X78351646Y-62511337D01*
X78410534Y-62326765D01*
X78484140Y-62085872D01*
X78569548Y-61798203D01*
X78663841Y-61473303D01*
X78764103Y-61120717D01*
X78860766Y-60778502D01*
X78955216Y-60446350D01*
X79040510Y-60148640D01*
X79113738Y-59895441D01*
X79171985Y-59696822D01*
X79212339Y-59562852D01*
X79231888Y-59503600D01*
X79232561Y-59502381D01*
X79240310Y-59533642D01*
X79247427Y-59643079D01*
X79253706Y-59821589D01*
X79258944Y-60060071D01*
X79262938Y-60349423D01*
X79265484Y-60680542D01*
X79266378Y-61044328D01*
X79266378Y-62663258D01*
X80036742Y-62688696D01*
X80036742Y-57405219D01*
X80432929Y-57405219D01*
X80433354Y-60034239D01*
X80433780Y-62663258D01*
X80453769Y-62688696D01*
X80658620Y-62949393D01*
X81471480Y-63983850D01*
X81509922Y-64032765D01*
X81740249Y-64325583D01*
X81952667Y-64595195D01*
X82141104Y-64833925D01*
X82299487Y-65034096D01*
X82421743Y-65188030D01*
X82501798Y-65288052D01*
X82533581Y-65326485D01*
X82537513Y-65329855D01*
X82545686Y-65332251D01*
X82539701Y-65312917D01*
X82516095Y-65265881D01*
X82471403Y-65185171D01*
X82402161Y-65064817D01*
X82304906Y-64898846D01*
X82176172Y-64681288D01*
X82012497Y-64406171D01*
X81810416Y-64067525D01*
X81566465Y-63659376D01*
X81452387Y-63468419D01*
X81256628Y-63139799D01*
X81078185Y-62839069D01*
X80921725Y-62574164D01*
X80791911Y-62353015D01*
X80693411Y-62183555D01*
X80630890Y-62073716D01*
X80609012Y-62031433D01*
X80611789Y-62031084D01*
X80657842Y-62066553D01*
X80751819Y-62150448D01*
X80882388Y-62272449D01*
X81038215Y-62422236D01*
X81231194Y-62609508D01*
X81502579Y-62870449D01*
X81715018Y-63071077D01*
X81870231Y-63212948D01*
X81969934Y-63297615D01*
X82015846Y-63326634D01*
X82009684Y-63301559D01*
X81989873Y-63269419D01*
X81923853Y-63162777D01*
X81823233Y-63000515D01*
X81695464Y-62794643D01*
X81547997Y-62557164D01*
X81388279Y-62300086D01*
X81281917Y-62128230D01*
X81139953Y-61896419D01*
X81020446Y-61698344D01*
X80929476Y-61544220D01*
X80873125Y-61444256D01*
X80857473Y-61408665D01*
X80861120Y-61410005D01*
X80919760Y-61442518D01*
X81041397Y-61514159D01*
X81216455Y-61619161D01*
X81435359Y-61751755D01*
X81688531Y-61906174D01*
X81966396Y-62076647D01*
X82019251Y-62109159D01*
X82299750Y-62281529D01*
X82558413Y-62440205D01*
X82784616Y-62578689D01*
X82967733Y-62690485D01*
X83097142Y-62769094D01*
X83162219Y-62808018D01*
X83177830Y-62816381D01*
X83192866Y-62818460D01*
X83176493Y-62794003D01*
X83124449Y-62738975D01*
X83032472Y-62649338D01*
X82896302Y-62521055D01*
X82711678Y-62350089D01*
X82474337Y-62132404D01*
X82180018Y-61863963D01*
X81824460Y-61540728D01*
X81801468Y-61519840D01*
X81569646Y-61308270D01*
X81362200Y-61117241D01*
X81187333Y-60954436D01*
X81053244Y-60827540D01*
X80968136Y-60744237D01*
X80940209Y-60712211D01*
X80965458Y-60716515D01*
X81061571Y-60745044D01*
X81216295Y-60795486D01*
X81415751Y-60863285D01*
X81646061Y-60943887D01*
X81819816Y-61004931D01*
X82028573Y-61076602D01*
X82196177Y-61132173D01*
X82308735Y-61167067D01*
X82352354Y-61176704D01*
X82331090Y-61156430D01*
X82251010Y-61093247D01*
X82124109Y-60996913D01*
X81963788Y-60877266D01*
X81783449Y-60744146D01*
X81596492Y-60607392D01*
X81416317Y-60476844D01*
X81256326Y-60362340D01*
X81129918Y-60273721D01*
X81050495Y-60220826D01*
X81019167Y-60197430D01*
X81006474Y-60167471D01*
X81044662Y-60164621D01*
X81160442Y-60162539D01*
X81341838Y-60161679D01*
X81576952Y-60162051D01*
X81853887Y-60163663D01*
X82160746Y-60166527D01*
X83294281Y-60178982D01*
X83294281Y-60288966D01*
X83294343Y-60312951D01*
X83299609Y-60359064D01*
X83323228Y-60392072D01*
X83379016Y-60416663D01*
X83480789Y-60437522D01*
X83642364Y-60459336D01*
X83877557Y-60486789D01*
X84350780Y-60541254D01*
X84350780Y-60915079D01*
X85154160Y-61234815D01*
X85181371Y-61245656D01*
X85430243Y-61345923D01*
X85651347Y-61436913D01*
X85831135Y-61512909D01*
X85956057Y-61568194D01*
X86012565Y-61597050D01*
X86030997Y-61623327D01*
X86057548Y-61726633D01*
X86067591Y-61876274D01*
X86067591Y-62112998D01*
X87168111Y-62112998D01*
X87168111Y-62597227D01*
X88398096Y-62597227D01*
X88615798Y-62596762D01*
X88968926Y-62593534D01*
X89254572Y-62587385D01*
X89467602Y-62578494D01*
X89602885Y-62567041D01*
X89655286Y-62553206D01*
X89653801Y-62547974D01*
X89591226Y-62534141D01*
X89442391Y-62523297D01*
X89208597Y-62515490D01*
X88891143Y-62510769D01*
X88491333Y-62509185D01*
X87300174Y-62509185D01*
X87300174Y-61980936D01*
X86155633Y-61980936D01*
X86155633Y-61512955D01*
X85330243Y-61183890D01*
X84504853Y-60854826D01*
X84491554Y-60650398D01*
X84478254Y-60445969D01*
X84227429Y-60415760D01*
X84211034Y-60413775D01*
X84073415Y-60395903D01*
X83976478Y-60380313D01*
X83924167Y-60366842D01*
X83920431Y-60355329D01*
X83969217Y-60345610D01*
X84074470Y-60337524D01*
X84240137Y-60330907D01*
X84470165Y-60325597D01*
X84768501Y-60321432D01*
X85139091Y-60318249D01*
X85585882Y-60315886D01*
X86112821Y-60314180D01*
X86723854Y-60312968D01*
X89823272Y-60308145D01*
X89791277Y-59350693D01*
X89790156Y-59317779D01*
X89777299Y-58996460D01*
X89761257Y-58672180D01*
X89743358Y-58367682D01*
X89724925Y-58105711D01*
X89707284Y-57909012D01*
X89655286Y-57424783D01*
X87190122Y-57424783D01*
X87176920Y-57677903D01*
X87163718Y-57931022D01*
X86071985Y-57931022D01*
X86058783Y-58184142D01*
X86045581Y-58437261D01*
X84372791Y-59111407D01*
X84359699Y-59305608D01*
X84346608Y-59499810D01*
X83831450Y-59562816D01*
X83316291Y-59625823D01*
X83302497Y-59768890D01*
X83288703Y-59911958D01*
X80987800Y-59911958D01*
X81557765Y-59494541D01*
X81578085Y-59479663D01*
X81852359Y-59279121D01*
X82058441Y-59126993D01*
X82198258Y-59018901D01*
X82273738Y-58950472D01*
X82286809Y-58917328D01*
X82239399Y-58915095D01*
X82133434Y-58939396D01*
X81970843Y-58985855D01*
X81753553Y-59050098D01*
X81652023Y-59079910D01*
X81426902Y-59145909D01*
X81232004Y-59202915D01*
X81085410Y-59245642D01*
X81005200Y-59268807D01*
X81001848Y-59269752D01*
X80971988Y-59276886D01*
X80955857Y-59275398D01*
X80958727Y-59260374D01*
X80985869Y-59226899D01*
X81042552Y-59170058D01*
X81134049Y-59084936D01*
X81265628Y-58966617D01*
X81442562Y-58810188D01*
X81670120Y-58610733D01*
X81953574Y-58363337D01*
X82298195Y-58063085D01*
X82382316Y-57989751D01*
X82623292Y-57778898D01*
X82838151Y-57589753D01*
X83018811Y-57429509D01*
X83157191Y-57305357D01*
X83245207Y-57224489D01*
X83274778Y-57194096D01*
X83268250Y-57196284D01*
X83202335Y-57230280D01*
X83073155Y-57300968D01*
X82890086Y-57403096D01*
X82662504Y-57531414D01*
X82399786Y-57680671D01*
X82111308Y-57845617D01*
X82006817Y-57905494D01*
X81721799Y-58068284D01*
X81463058Y-58215305D01*
X81240597Y-58340923D01*
X81064419Y-58439504D01*
X80944527Y-58505412D01*
X80890925Y-58533015D01*
X80885769Y-58529127D01*
X80910215Y-58470151D01*
X80979914Y-58346619D01*
X81091532Y-58163824D01*
X81241735Y-57927062D01*
X81427188Y-57641625D01*
X81644559Y-57312807D01*
X81890511Y-56945902D01*
X81898983Y-56933306D01*
X81981044Y-56807087D01*
X82036008Y-56714885D01*
X82052373Y-56675889D01*
X82047435Y-56677767D01*
X81991177Y-56717936D01*
X81880646Y-56803713D01*
X81725936Y-56927077D01*
X81537139Y-57080006D01*
X81324350Y-57254478D01*
X81249670Y-57315921D01*
X81045306Y-57482598D01*
X80869206Y-57624095D01*
X80731223Y-57732627D01*
X80641207Y-57800412D01*
X80609012Y-57819663D01*
X80613571Y-57810109D01*
X80655796Y-57738572D01*
X80738254Y-57604230D01*
X80855993Y-57414992D01*
X81004062Y-57178768D01*
X81177511Y-56903466D01*
X81371388Y-56596997D01*
X81580744Y-56267269D01*
X81684508Y-56103920D01*
X81882633Y-55790769D01*
X82060474Y-55508013D01*
X82213506Y-55262950D01*
X82337206Y-55062875D01*
X82427050Y-54915085D01*
X82478512Y-54826876D01*
X82487070Y-54805546D01*
X82446712Y-54853066D01*
X82358262Y-54962100D01*
X82228517Y-55124171D01*
X82064011Y-55331057D01*
X81871281Y-55574537D01*
X81656865Y-55846391D01*
X81427297Y-56138398D01*
X80475174Y-57351399D01*
X80432929Y-57405219D01*
X80036742Y-57405219D01*
X80036742Y-57358752D01*
X79167035Y-57358752D01*
X79124100Y-57523830D01*
X78987583Y-58048362D01*
X78834793Y-58634457D01*
X78699311Y-59153015D01*
X78581802Y-59601505D01*
X78482933Y-59977395D01*
X78403370Y-60278154D01*
X78343779Y-60501251D01*
X78304826Y-60644154D01*
X78287177Y-60704332D01*
X78285168Y-60709540D01*
X78262847Y-60737502D01*
X78243443Y-60682322D01*
X78239228Y-60664653D01*
X78214333Y-60567932D01*
X78171032Y-60403511D01*
X78112581Y-60183499D01*
X78042238Y-59920005D01*
X77963261Y-59625138D01*
X77878908Y-59311006D01*
X77792436Y-58989720D01*
X77707101Y-58673388D01*
X77626163Y-58374120D01*
X77552879Y-58104023D01*
X77490505Y-57875209D01*
X77442300Y-57699785D01*
X77411521Y-57589861D01*
X77345226Y-57358752D01*
X76515078Y-57358752D01*
X76515078Y-62685268D01*
X72977751Y-62685268D01*
X73151520Y-62101993D01*
X73325289Y-61518717D01*
X74164936Y-61506786D01*
X75004583Y-61494854D01*
X75179415Y-62079056D01*
X75354246Y-62663258D01*
X75851903Y-62675754D01*
X75950151Y-62678099D01*
X76132667Y-62680594D01*
X76246855Y-62676974D01*
X76306633Y-62665268D01*
X76325921Y-62643507D01*
X76318638Y-62609723D01*
X76318363Y-62609011D01*
X76298290Y-62550578D01*
X76253406Y-62416267D01*
X76186171Y-62213547D01*
X76099048Y-61949887D01*
X75994499Y-61632754D01*
X75874987Y-61269617D01*
X75742973Y-60867945D01*
X75600920Y-60435206D01*
X75451290Y-59978868D01*
X75441981Y-59950466D01*
X75293197Y-59496994D01*
X75152405Y-59068806D01*
X75022024Y-58673201D01*
X74904476Y-58317481D01*
X74802179Y-58008945D01*
X74717555Y-57754894D01*
X74653022Y-57562626D01*
X74611003Y-57439444D01*
X74593915Y-57392646D01*
X74576284Y-57384379D01*
X74486861Y-57371210D01*
X74341076Y-57362134D01*
X74159472Y-57358752D01*
X73745977Y-57358752D01*
X73036887Y-59526776D01*
X73013499Y-59598282D01*
X72871208Y-60033317D01*
X72733030Y-60455751D01*
X72602288Y-60855429D01*
X72482303Y-61222199D01*
X72376398Y-61545905D01*
X72287894Y-61816394D01*
X72220113Y-62023510D01*
X72176377Y-62157101D01*
X72124689Y-62316898D01*
X72073041Y-62481511D01*
X72037918Y-62599470D01*
X72024957Y-62652335D01*
X71804853Y-62652335D01*
X71804853Y-57358752D01*
X70926090Y-57358752D01*
X70914258Y-58359757D01*
X70902427Y-59360763D01*
X70116819Y-58359757D01*
X69331211Y-57358752D01*
X68272584Y-57358752D01*
X68423356Y-57545840D01*
X68628036Y-57799925D01*
X68927241Y-58171857D01*
X69175288Y-58480952D01*
X69374911Y-58730643D01*
X69528844Y-58924362D01*
X69639820Y-59065541D01*
X69710572Y-59157613D01*
X69743834Y-59204010D01*
X69747537Y-59212752D01*
X69746389Y-59254416D01*
X69725020Y-59325644D01*
X69680140Y-59433167D01*
X69608458Y-59583718D01*
X69506686Y-59784027D01*
X69371532Y-60040827D01*
X69199708Y-60360849D01*
X68987924Y-60750826D01*
X68979871Y-60765601D01*
X68794315Y-61105779D01*
X68617177Y-61430118D01*
X68454070Y-61728370D01*
X68310606Y-61990286D01*
X68192398Y-62205619D01*
X68105059Y-62364122D01*
X68054203Y-62455546D01*
X67924540Y-62685268D01*
X67922974Y-62688043D01*
X59570249Y-62688043D01*
X59572427Y-62685268D01*
X60013907Y-62685268D01*
X61025784Y-62685268D01*
X61527378Y-61650780D01*
X62028972Y-60616291D01*
X62692548Y-60616291D01*
X62692548Y-62685268D01*
X63572964Y-62685268D01*
X63572964Y-62080111D01*
X64133014Y-62080111D01*
X64137250Y-62263209D01*
X64151276Y-62685268D01*
X67710919Y-62685268D01*
X67710919Y-57358752D01*
X64274109Y-57358752D01*
X64286708Y-57787955D01*
X64299307Y-58217157D01*
X65542895Y-58228848D01*
X66786482Y-58240539D01*
X66786482Y-59515771D01*
X65157713Y-59515771D01*
X65157713Y-60352166D01*
X66786482Y-60352166D01*
X66786482Y-61804852D01*
X65473195Y-61804852D01*
X65359258Y-61804920D01*
X65036965Y-61805883D01*
X64747754Y-61807865D01*
X64502617Y-61810718D01*
X64312545Y-61814291D01*
X64188531Y-61818436D01*
X64141566Y-61823001D01*
X64137299Y-61842111D01*
X64133096Y-61933041D01*
X64133014Y-62080111D01*
X63572964Y-62080111D01*
X63572964Y-57351399D01*
X62373397Y-57367760D01*
X62299977Y-57368774D01*
X61953575Y-57374165D01*
X61681208Y-57380103D01*
X61471064Y-57387498D01*
X61311331Y-57397261D01*
X61190198Y-57410301D01*
X61095853Y-57427529D01*
X61016484Y-57449854D01*
X60940278Y-57478188D01*
X60767557Y-57559840D01*
X60483872Y-57762913D01*
X60263886Y-58023159D01*
X60110650Y-58335242D01*
X60027215Y-58693826D01*
X60016633Y-59093575D01*
X60031576Y-59236434D01*
X60123791Y-59591493D01*
X60287845Y-59905453D01*
X60517946Y-60168955D01*
X60808301Y-60372641D01*
X60914644Y-60429928D01*
X61012127Y-60483219D01*
X61054728Y-60507601D01*
X61054885Y-60508046D01*
X61037037Y-60554268D01*
X60985647Y-60668532D01*
X60905520Y-60840607D01*
X60801464Y-61060260D01*
X60678287Y-61317261D01*
X60540797Y-61601377D01*
X60037858Y-62635998D01*
X60013907Y-62685268D01*
X59572427Y-62685268D01*
X59611092Y-62635998D01*
X59609797Y-60030391D01*
X59608501Y-57424783D01*
X58564303Y-56097377D01*
X58391004Y-55877441D01*
X58108637Y-55521122D01*
X57879394Y-55234874D01*
X57703285Y-55018709D01*
X57580320Y-54872638D01*
X57510510Y-54796674D01*
X57493864Y-54790828D01*
X57530393Y-54855113D01*
X57620107Y-54989540D01*
X57645093Y-55027035D01*
X57718872Y-55140355D01*
X57828493Y-55310249D01*
X57967007Y-55525828D01*
X58127467Y-55776205D01*
X58302925Y-56050490D01*
X58486433Y-56337798D01*
X58671045Y-56627238D01*
X58849812Y-56907925D01*
X59015786Y-57168969D01*
X59162020Y-57399482D01*
X59281567Y-57588577D01*
X59367478Y-57725366D01*
X59412806Y-57798960D01*
X59415119Y-57802889D01*
X59430916Y-57842188D01*
X59388433Y-57817053D01*
X59366956Y-57800638D01*
X59253907Y-57711504D01*
X59098811Y-57586642D01*
X58917469Y-57439047D01*
X58725682Y-57281716D01*
X58539248Y-57127643D01*
X58373968Y-56989824D01*
X58245642Y-56881256D01*
X58170071Y-56814934D01*
X58128435Y-56777807D01*
X58048599Y-56717155D01*
X58007867Y-56702243D01*
X58016564Y-56725896D01*
X58066083Y-56814356D01*
X58153231Y-56958431D01*
X58271688Y-57147909D01*
X58415135Y-57372579D01*
X58577251Y-57622229D01*
X58699150Y-57809214D01*
X58848592Y-58040686D01*
X58975087Y-58239219D01*
X59072247Y-58394679D01*
X59133685Y-58496930D01*
X59153014Y-58535836D01*
X59152362Y-58535986D01*
X59105722Y-58514831D01*
X58993568Y-58455731D01*
X58825796Y-58364139D01*
X58612302Y-58245507D01*
X58362984Y-58105288D01*
X58087737Y-57948933D01*
X57804638Y-57787405D01*
X57537691Y-57635174D01*
X57300178Y-57499809D01*
X57103856Y-57388008D01*
X56960479Y-57306467D01*
X56881803Y-57261883D01*
X56867705Y-57253970D01*
X56798643Y-57217567D01*
X56784735Y-57219632D01*
X56829501Y-57266874D01*
X56936462Y-57365999D01*
X56947361Y-57375917D01*
X57045229Y-57463456D01*
X57197033Y-57597733D01*
X57392131Y-57769400D01*
X57619883Y-57969108D01*
X57869645Y-58187508D01*
X58130777Y-58415251D01*
X58214905Y-58488596D01*
X58455839Y-58699487D01*
X58670614Y-58888711D01*
X58851154Y-59049072D01*
X58989384Y-59173370D01*
X59077227Y-59254409D01*
X59106609Y-59284991D01*
X59077978Y-59280146D01*
X58977282Y-59253941D01*
X58817388Y-59209013D01*
X58612154Y-59149273D01*
X58375439Y-59078634D01*
X58183438Y-59021204D01*
X57970702Y-58958919D01*
X57800495Y-58910632D01*
X57686702Y-58880270D01*
X57643210Y-58871753D01*
X57643191Y-58872303D01*
X57679574Y-58904791D01*
X57775463Y-58980245D01*
X57920201Y-59090536D01*
X58103132Y-59227537D01*
X58313601Y-59383119D01*
X58332542Y-59397043D01*
X58541960Y-59551743D01*
X58723767Y-59687385D01*
X58867093Y-59795756D01*
X58961062Y-59868638D01*
X58994801Y-59897817D01*
X58959248Y-59901313D01*
X58846571Y-59904763D01*
X58668041Y-59907696D01*
X58435229Y-59909968D01*
X58159707Y-59911437D01*
X57853049Y-59911958D01*
X56711298Y-59911958D01*
X56697503Y-59768890D01*
X56683709Y-59625823D01*
X55671231Y-59493761D01*
X55649220Y-59302536D01*
X55627210Y-59111311D01*
X53958246Y-58437261D01*
X53970529Y-58184142D01*
X53982813Y-57931022D01*
X52836283Y-57931022D01*
X52823081Y-57677903D01*
X52809879Y-57424783D01*
X50392676Y-57424783D01*
X50361410Y-57578856D01*
X50358998Y-57591278D01*
X50337770Y-57738578D01*
X50314595Y-57957051D01*
X50290608Y-58231718D01*
X50266939Y-58547604D01*
X50244721Y-58889732D01*
X50225086Y-59243125D01*
X50209166Y-59592807D01*
X50180612Y-60308145D01*
X47461352Y-60308145D01*
X47461352Y-59076670D01*
X47772685Y-58919885D01*
X47942442Y-58838091D01*
X48207667Y-58719008D01*
X48499667Y-58595126D01*
X48791981Y-58477327D01*
X49058149Y-58376491D01*
X49271710Y-58303498D01*
X49519329Y-58226557D01*
X49548685Y-57891701D01*
X49568396Y-57695777D01*
X49610659Y-57352583D01*
X49664854Y-56969899D01*
X49726772Y-56575440D01*
X49792204Y-56196917D01*
X49856940Y-55862045D01*
X49896612Y-55667946D01*
X49928832Y-55504851D01*
X49949456Y-55393943D01*
X49955211Y-55352205D01*
X49938184Y-55339798D01*
X49864001Y-55284459D01*
X49744978Y-55195189D01*
X49596361Y-55083406D01*
X49528913Y-55031880D01*
X49331673Y-54874416D01*
X49124454Y-54700744D01*
X48918438Y-54521116D01*
X48724806Y-54345787D01*
X48656584Y-54281292D01*
X59815787Y-54281292D01*
X59821583Y-54652369D01*
X59854215Y-55005758D01*
X59913259Y-55308560D01*
X59948645Y-55429615D01*
X60125739Y-55863780D01*
X60363577Y-56238343D01*
X60658937Y-56549731D01*
X61008600Y-56794371D01*
X61409345Y-56968688D01*
X61470208Y-56987525D01*
X61583068Y-57016246D01*
X61708473Y-57038023D01*
X61861521Y-57054275D01*
X62057312Y-57066421D01*
X62310946Y-57075878D01*
X62637522Y-57084065D01*
X63572964Y-57104461D01*
X63572964Y-57039601D01*
X63794839Y-57039601D01*
X63816743Y-57064511D01*
X63895931Y-57082031D01*
X64042680Y-57091675D01*
X64267143Y-57094627D01*
X64741219Y-57094627D01*
X68239168Y-57094627D01*
X71804853Y-57094627D01*
X71804853Y-53330868D01*
X72358257Y-53330868D01*
X72388755Y-53695505D01*
X72493438Y-54036616D01*
X72666557Y-54342175D01*
X72902362Y-54600155D01*
X73195104Y-54798529D01*
X73422248Y-54915598D01*
X72899686Y-55989637D01*
X72893464Y-56002426D01*
X72756406Y-56284774D01*
X72633121Y-56539898D01*
X72528579Y-56757421D01*
X72447751Y-56926963D01*
X72395609Y-57038146D01*
X72377123Y-57080593D01*
X72410495Y-57085844D01*
X72515633Y-57088817D01*
X72675440Y-57088610D01*
X72872357Y-57085064D01*
X73367591Y-57072617D01*
X73870835Y-56049133D01*
X74374078Y-55025650D01*
X75018371Y-55025650D01*
X75018371Y-57094627D01*
X75942808Y-57094627D01*
X75942808Y-54555031D01*
X76279019Y-54555031D01*
X76301096Y-54905336D01*
X76351800Y-55207087D01*
X76414727Y-55429563D01*
X76594847Y-55863726D01*
X76834352Y-56238896D01*
X77129637Y-56550896D01*
X77477096Y-56795552D01*
X77873123Y-56968688D01*
X77933986Y-56987525D01*
X78046847Y-57016246D01*
X78172251Y-57038023D01*
X78325299Y-57054275D01*
X78521091Y-57066421D01*
X78774724Y-57075878D01*
X79101300Y-57084065D01*
X80036742Y-57104461D01*
X80036742Y-52977374D01*
X84080839Y-52977374D01*
X84107017Y-53044044D01*
X84153250Y-53133868D01*
X84197752Y-53217777D01*
X84257534Y-53317734D01*
X84294917Y-53363802D01*
X84299351Y-53363305D01*
X84361394Y-53336188D01*
X84486819Y-53273459D01*
X84664940Y-53180944D01*
X84885072Y-53064469D01*
X85136528Y-52929861D01*
X85408623Y-52782946D01*
X85690670Y-52629551D01*
X85971983Y-52475502D01*
X86241877Y-52326626D01*
X86489666Y-52188749D01*
X86704663Y-52067697D01*
X86876184Y-51969298D01*
X86993541Y-51899377D01*
X87046049Y-51863760D01*
X87043957Y-51831241D01*
X87005466Y-51728265D01*
X86930710Y-51564834D01*
X86824208Y-51349795D01*
X86690479Y-51091995D01*
X86534039Y-50800281D01*
X86359407Y-50483500D01*
X86171101Y-50150500D01*
X86064060Y-49963564D01*
X85842017Y-50076082D01*
X85773608Y-50112951D01*
X85666758Y-50190169D01*
X85643353Y-50249525D01*
X85659652Y-50283702D01*
X85713607Y-50387695D01*
X85797057Y-50544407D01*
X85902418Y-50739634D01*
X86022109Y-50959169D01*
X86111042Y-51124493D01*
X86212190Y-51321312D01*
X86288848Y-51481174D01*
X86334741Y-51590848D01*
X86343595Y-51637103D01*
X86340064Y-51639870D01*
X86277487Y-51679172D01*
X86162653Y-51745686D01*
X86017468Y-51826679D01*
X85938407Y-51869106D01*
X85805719Y-51931549D01*
X85725349Y-51951205D01*
X85683002Y-51932601D01*
X85653903Y-51886468D01*
X85590324Y-51775207D01*
X85504670Y-51619634D01*
X85407095Y-51437955D01*
X85322517Y-51279047D01*
X85242541Y-51129721D01*
X85186359Y-51025917D01*
X85162662Y-50983782D01*
X85133777Y-50989170D01*
X85050088Y-51024398D01*
X84938382Y-51078422D01*
X84825437Y-51137641D01*
X84738032Y-51188455D01*
X84702947Y-51217264D01*
X84703341Y-51219060D01*
X84727276Y-51269520D01*
X84728590Y-51272290D01*
X84787455Y-51385216D01*
X84871899Y-51542643D01*
X84973882Y-51729377D01*
X84990844Y-51759620D01*
X85060198Y-51883281D01*
X85141610Y-52032500D01*
X85184757Y-52141495D01*
X85183593Y-52224778D01*
X85132072Y-52296861D01*
X85024147Y-52372257D01*
X84853774Y-52465479D01*
X84614905Y-52591038D01*
X84571650Y-52614048D01*
X84360034Y-52726644D01*
X84214313Y-52808495D01*
X84125319Y-52870380D01*
X84083883Y-52923080D01*
X84080839Y-52977374D01*
X80036742Y-52977374D01*
X80036742Y-51759620D01*
X79972990Y-51760855D01*
X79057279Y-51778594D01*
X79048990Y-51778754D01*
X78722288Y-51785928D01*
X78469257Y-51793993D01*
X78275842Y-51804245D01*
X78127987Y-51817982D01*
X78011640Y-51836503D01*
X77912744Y-51861104D01*
X77817245Y-51893083D01*
X77738341Y-51923438D01*
X77352953Y-52121202D01*
X77026359Y-52381044D01*
X76756245Y-52705639D01*
X76540298Y-53097663D01*
X76376205Y-53559793D01*
X76318768Y-53842768D01*
X76285076Y-54189675D01*
X76279019Y-54555031D01*
X75942808Y-54555031D01*
X75942808Y-51760855D01*
X74721231Y-51778070D01*
X74518449Y-51781097D01*
X74154250Y-51788500D01*
X73861149Y-51799351D01*
X73627686Y-51816063D01*
X73442402Y-51841045D01*
X73293837Y-51876710D01*
X73170532Y-51925468D01*
X73061026Y-51989731D01*
X72953861Y-52071911D01*
X72837576Y-52174418D01*
X72744108Y-52266565D01*
X72574106Y-52494335D01*
X72456133Y-52763038D01*
X72379907Y-53093321D01*
X72358257Y-53330868D01*
X71804853Y-53330868D01*
X71804853Y-51768111D01*
X68415252Y-51768111D01*
X68415237Y-52197313D01*
X68415223Y-52626516D01*
X70902427Y-52626516D01*
X70902427Y-53903119D01*
X70099047Y-53915118D01*
X69295668Y-53927116D01*
X69295668Y-54761525D01*
X70924437Y-54761525D01*
X70924437Y-56214211D01*
X68239168Y-56214211D01*
X68239168Y-57094627D01*
X64741219Y-57094627D01*
X64916450Y-56511352D01*
X65091681Y-55928076D01*
X66779689Y-55904188D01*
X66852347Y-56158246D01*
X66901020Y-56326302D01*
X66963418Y-56538577D01*
X67024116Y-56742461D01*
X67123227Y-57072617D01*
X67620449Y-57085113D01*
X67717695Y-57087437D01*
X67900446Y-57089949D01*
X68014833Y-57086341D01*
X68074793Y-57074641D01*
X68094262Y-57052879D01*
X68087178Y-57019082D01*
X68086896Y-57018342D01*
X68066863Y-56959787D01*
X68022021Y-56825365D01*
X67954828Y-56622542D01*
X67867747Y-56358786D01*
X67763235Y-56041563D01*
X67643755Y-55678341D01*
X67511766Y-55276586D01*
X67369728Y-54843766D01*
X67220102Y-54387348D01*
X67210834Y-54359068D01*
X67061790Y-53905404D01*
X66920361Y-53477007D01*
X66789005Y-53081183D01*
X66670177Y-52725237D01*
X66566335Y-52416475D01*
X66479934Y-52162202D01*
X66413430Y-51969725D01*
X66369282Y-51846350D01*
X66349944Y-51799381D01*
X66331274Y-51791727D01*
X66238938Y-51780465D01*
X66091039Y-51775321D01*
X65909099Y-51777370D01*
X65501828Y-51790121D01*
X64649219Y-54387348D01*
X64628289Y-54451121D01*
X64478746Y-54907646D01*
X64337949Y-55338983D01*
X64208248Y-55737829D01*
X64091998Y-56096881D01*
X63991550Y-56408834D01*
X63909258Y-56666387D01*
X63847473Y-56862234D01*
X63808549Y-56989073D01*
X63794839Y-57039601D01*
X63572964Y-57039601D01*
X63572964Y-51759620D01*
X62593501Y-51778594D01*
X62585212Y-51778754D01*
X62258510Y-51785928D01*
X62005479Y-51793993D01*
X61812064Y-51804245D01*
X61664209Y-51817982D01*
X61547862Y-51836503D01*
X61448966Y-51861104D01*
X61353467Y-51893083D01*
X61259637Y-51929741D01*
X60870426Y-52137330D01*
X60535098Y-52412445D01*
X60257525Y-52750574D01*
X60041578Y-53147203D01*
X59891129Y-53597818D01*
X59886408Y-53617659D01*
X59837254Y-53925423D01*
X59815787Y-54281292D01*
X48656584Y-54281292D01*
X48554740Y-54185011D01*
X48419420Y-54049040D01*
X48330029Y-53948129D01*
X48297747Y-53892531D01*
X48297996Y-53888788D01*
X48314673Y-53816845D01*
X48354480Y-53677250D01*
X48413186Y-53483974D01*
X48486560Y-53250989D01*
X48570370Y-52992266D01*
X48583750Y-52951562D01*
X48678476Y-52668280D01*
X48752826Y-52457855D01*
X48811152Y-52310074D01*
X48857811Y-52214724D01*
X48897156Y-52161591D01*
X48933542Y-52140462D01*
X48974499Y-52131868D01*
X49141356Y-52105606D01*
X49366715Y-52077966D01*
X49628829Y-52050923D01*
X49836376Y-52032595D01*
X53817971Y-52032595D01*
X53844333Y-52142184D01*
X53877331Y-52219781D01*
X53938747Y-52309626D01*
X54033070Y-52403848D01*
X54169472Y-52509436D01*
X54357127Y-52633384D01*
X54605204Y-52782681D01*
X54922877Y-52964320D01*
X55137817Y-53085001D01*
X55340692Y-53198257D01*
X55505877Y-53289780D01*
X55620386Y-53352375D01*
X55671231Y-53378849D01*
X55710549Y-53357268D01*
X55772843Y-53282694D01*
X55839154Y-53181480D01*
X55891861Y-53080665D01*
X55913345Y-53007289D01*
X55882730Y-52977803D01*
X55786315Y-52911955D01*
X55636036Y-52818409D01*
X55444125Y-52704759D01*
X55222814Y-52578599D01*
X54979041Y-52440833D01*
X54738464Y-52299548D01*
X54563933Y-52187182D01*
X54448715Y-52097266D01*
X54386077Y-52023334D01*
X54369285Y-51958919D01*
X54391607Y-51897553D01*
X54446309Y-51832770D01*
X54471464Y-51811256D01*
X54541559Y-51781937D01*
X54636369Y-51783747D01*
X54765781Y-51819950D01*
X54939686Y-51893811D01*
X55167972Y-52008594D01*
X55460530Y-52167564D01*
X55625957Y-52259430D01*
X55823781Y-52369269D01*
X55984607Y-52458547D01*
X56095112Y-52519867D01*
X56141974Y-52545834D01*
X56159621Y-52538103D01*
X56211157Y-52478135D01*
X56276560Y-52382384D01*
X56339425Y-52277217D01*
X56383345Y-52189003D01*
X56391917Y-52144110D01*
X56353035Y-52120162D01*
X56249037Y-52059914D01*
X56092473Y-51970611D01*
X55895739Y-51859324D01*
X55671231Y-51733122D01*
X55477372Y-51623007D01*
X55230269Y-51475203D01*
X55051589Y-51355187D01*
X54934502Y-51256866D01*
X54872182Y-51174147D01*
X54857799Y-51100937D01*
X54884525Y-51031142D01*
X54898784Y-51012620D01*
X54981299Y-50968688D01*
X55126639Y-50958425D01*
X55167979Y-50961144D01*
X55262179Y-50979996D01*
X55378329Y-51021518D01*
X55529691Y-51091576D01*
X55729523Y-51196033D01*
X55991085Y-51340755D01*
X56663106Y-51718386D01*
X56772016Y-51503461D01*
X56813585Y-51414144D01*
X56848220Y-51315537D01*
X56848349Y-51269520D01*
X56733450Y-51203347D01*
X56552083Y-51100749D01*
X56336686Y-50980270D01*
X56099583Y-50848665D01*
X55853096Y-50712690D01*
X55609547Y-50579099D01*
X55381258Y-50454648D01*
X55180552Y-50346094D01*
X55019752Y-50260191D01*
X54911179Y-50203695D01*
X54867155Y-50183362D01*
X54849473Y-50193068D01*
X54793939Y-50258826D01*
X54726275Y-50366204D01*
X54694358Y-50424043D01*
X54654475Y-50512052D01*
X54656181Y-50562762D01*
X54696158Y-50602166D01*
X54752623Y-50652669D01*
X54756681Y-50696665D01*
X54677869Y-50711611D01*
X54592098Y-50721934D01*
X54448767Y-50801910D01*
X54346289Y-50957269D01*
X54312610Y-51052631D01*
X54309678Y-51147883D01*
X54350016Y-51267247D01*
X54391960Y-51369309D01*
X54411037Y-51434081D01*
X54395942Y-51457096D01*
X54346255Y-51459965D01*
X54317482Y-51461329D01*
X54152988Y-51514637D01*
X54000708Y-51631697D01*
X53886712Y-51793583D01*
X53878991Y-51809653D01*
X53827844Y-51935568D01*
X53817971Y-52032595D01*
X49836376Y-52032595D01*
X49905951Y-52026451D01*
X50176333Y-52006525D01*
X50418228Y-51993121D01*
X50609888Y-51988215D01*
X51051683Y-51988215D01*
X51332896Y-51370082D01*
X51368707Y-51292372D01*
X51505880Y-51006442D01*
X51664937Y-50688348D01*
X51828923Y-50371593D01*
X51980884Y-50089677D01*
X52077183Y-49914215D01*
X52185008Y-49713453D01*
X52270700Y-49548911D01*
X52272597Y-49545060D01*
X55300082Y-49545060D01*
X55328092Y-49577827D01*
X55416805Y-49658817D01*
X55557321Y-49779454D01*
X55740506Y-49932035D01*
X55957224Y-50108862D01*
X56198341Y-50302234D01*
X57094882Y-51015387D01*
X57257256Y-50817231D01*
X57340320Y-50712490D01*
X57383888Y-50639371D01*
X57383734Y-50589188D01*
X57347249Y-50539096D01*
X57307490Y-50489897D01*
X57314777Y-50456417D01*
X57397487Y-50432999D01*
X57439575Y-50422333D01*
X57647810Y-50321983D01*
X57835548Y-50159342D01*
X57982309Y-49955809D01*
X58067614Y-49732783D01*
X58075977Y-49538351D01*
X81754786Y-49538351D01*
X81904601Y-49717789D01*
X81922753Y-49739074D01*
X82047220Y-49854643D01*
X82146099Y-49886741D01*
X82182323Y-49885531D01*
X82226732Y-49915864D01*
X82237782Y-50009984D01*
X82248437Y-50101754D01*
X82319309Y-50292118D01*
X82442093Y-50485256D01*
X82599652Y-50656554D01*
X82774851Y-50781398D01*
X82862580Y-50816497D01*
X83073181Y-50844246D01*
X83298047Y-50814767D01*
X83503923Y-50730386D01*
X83628718Y-50638488D01*
X83773434Y-50455623D01*
X83846160Y-50241201D01*
X83847469Y-50006238D01*
X83777938Y-49761750D01*
X83638141Y-49518751D01*
X83428653Y-49288259D01*
X83355086Y-49225571D01*
X83256415Y-49153856D01*
X83195107Y-49125280D01*
X83169371Y-49111279D01*
X83197407Y-49071530D01*
X83268268Y-49018582D01*
X83362050Y-48965079D01*
X83458851Y-48923663D01*
X83538765Y-48906977D01*
X83542294Y-48907000D01*
X83684599Y-48949603D01*
X83825739Y-49062287D01*
X83952852Y-49228341D01*
X84053076Y-49431056D01*
X84113549Y-49653722D01*
X84125649Y-49720560D01*
X84153670Y-49793165D01*
X84207073Y-49817787D01*
X84304473Y-49799098D01*
X84464482Y-49741766D01*
X84534921Y-49707087D01*
X84565816Y-49650056D01*
X84556981Y-49542469D01*
X84552788Y-49518672D01*
X84476815Y-49271625D01*
X84348856Y-49016527D01*
X84184975Y-48777187D01*
X84001238Y-48577411D01*
X83813712Y-48441010D01*
X83772352Y-48422304D01*
X83584520Y-48383261D01*
X83377378Y-48393098D01*
X83193048Y-48451128D01*
X83122350Y-48495321D01*
X82991945Y-48586721D01*
X82819375Y-48713298D01*
X82618575Y-48864819D01*
X82403477Y-49031049D01*
X81760568Y-49533829D01*
X81754786Y-49538351D01*
X58075977Y-49538351D01*
X58076172Y-49533829D01*
X58028113Y-49311287D01*
X57931138Y-49116802D01*
X57923396Y-49106969D01*
X57853285Y-49035937D01*
X57733992Y-48927520D01*
X57578369Y-48792284D01*
X57399267Y-48640797D01*
X57209538Y-48483624D01*
X57022034Y-48331333D01*
X56849607Y-48194491D01*
X56705109Y-48083664D01*
X56601393Y-48009419D01*
X56551309Y-47982322D01*
X56524740Y-47991569D01*
X56482982Y-48030530D01*
X56415103Y-48113213D01*
X56308600Y-48253593D01*
X56220992Y-48370791D01*
X56809934Y-48840111D01*
X56956438Y-48958998D01*
X57139719Y-49114247D01*
X57291269Y-49250200D01*
X57398415Y-49355380D01*
X57448485Y-49418312D01*
X57493757Y-49591806D01*
X57466475Y-49779277D01*
X57361091Y-49945335D01*
X57182848Y-50076981D01*
X57157348Y-50089994D01*
X57094984Y-50117386D01*
X57033996Y-50130900D01*
X56966545Y-50126027D01*
X56884789Y-50098261D01*
X56780889Y-50043092D01*
X56647005Y-49956014D01*
X56475295Y-49832519D01*
X56257920Y-49668099D01*
X55987039Y-49458246D01*
X55654812Y-49198454D01*
X55608276Y-49184724D01*
X55542858Y-49223019D01*
X55446369Y-49326079D01*
X55392531Y-49392908D01*
X55325532Y-49488792D01*
X55300082Y-49545060D01*
X52272597Y-49545060D01*
X52327253Y-49434096D01*
X52347661Y-49382515D01*
X52342151Y-49362382D01*
X52297207Y-49282337D01*
X52221791Y-49177218D01*
X52208084Y-49159502D01*
X52087905Y-48990346D01*
X51939602Y-48763027D01*
X51774075Y-48495128D01*
X51602223Y-48204233D01*
X51434947Y-47907924D01*
X51212277Y-47503370D01*
X51716641Y-46807404D01*
X51730304Y-46788558D01*
X51767825Y-46737045D01*
X56978976Y-46737045D01*
X56989986Y-46866207D01*
X57006987Y-46983218D01*
X57024638Y-47039311D01*
X57059964Y-47042188D01*
X57157141Y-47018683D01*
X57288455Y-46970737D01*
X57415494Y-46915058D01*
X57486428Y-46867917D01*
X57510716Y-46812742D01*
X57506634Y-46729312D01*
X57505463Y-46717807D01*
X57529682Y-46530361D01*
X57624551Y-46355030D01*
X57775361Y-46219708D01*
X57794558Y-46208209D01*
X57934844Y-46145240D01*
X58048101Y-46147891D01*
X58162412Y-46215883D01*
X58197977Y-46249710D01*
X58243797Y-46331799D01*
X58255203Y-46443650D01*
X58230887Y-46597476D01*
X58169540Y-46805487D01*
X58069855Y-47079896D01*
X58067573Y-47085868D01*
X57947376Y-47448774D01*
X57887988Y-47755104D01*
X57890548Y-48012914D01*
X57956194Y-48230257D01*
X58086066Y-48415188D01*
X58281300Y-48575761D01*
X58291737Y-48582510D01*
X58504408Y-48674045D01*
X58747868Y-48712395D01*
X58980187Y-48690666D01*
X59162316Y-48627147D01*
X59429357Y-48463696D01*
X59651886Y-48236169D01*
X59814668Y-47957942D01*
X59832655Y-47908911D01*
X59871718Y-47721531D01*
X59872146Y-47715270D01*
X80187224Y-47715270D01*
X80194024Y-47823319D01*
X80245283Y-47990606D01*
X80393621Y-48253619D01*
X80607353Y-48475152D01*
X80873137Y-48639177D01*
X80941953Y-48667396D01*
X81215713Y-48723768D01*
X81491366Y-48692978D01*
X81766365Y-48575609D01*
X82038161Y-48372246D01*
X82220849Y-48178071D01*
X82395013Y-47917600D01*
X82506352Y-47649196D01*
X82544961Y-47392015D01*
X82521016Y-47169425D01*
X82420222Y-46907290D01*
X82238330Y-46671468D01*
X81972799Y-46457812D01*
X81949369Y-46442548D01*
X81819843Y-46373125D01*
X81689264Y-46340543D01*
X81514654Y-46333102D01*
X81393438Y-46338669D01*
X81247337Y-46358454D01*
X81152628Y-46387343D01*
X81057942Y-46440024D01*
X81173220Y-46656210D01*
X81178942Y-46666938D01*
X81246101Y-46785286D01*
X81303047Y-46845597D01*
X81378781Y-46866368D01*
X81502302Y-46866094D01*
X81565201Y-46865101D01*
X81679143Y-46877380D01*
X81766306Y-46924608D01*
X81866892Y-47024223D01*
X81933513Y-47103229D01*
X81999462Y-47223947D01*
X82017678Y-47356766D01*
X82013968Y-47414384D01*
X81952350Y-47615064D01*
X81828689Y-47812065D01*
X81660889Y-47985718D01*
X81466854Y-48116348D01*
X81264490Y-48184287D01*
X81255722Y-48185490D01*
X81081958Y-48167080D01*
X80924376Y-48080424D01*
X80800407Y-47944354D01*
X80727483Y-47777703D01*
X80723034Y-47599304D01*
X80730057Y-47555050D01*
X80720226Y-47491848D01*
X80664543Y-47439749D01*
X80545220Y-47376462D01*
X80471046Y-47341615D01*
X80363325Y-47295891D01*
X80304915Y-47277989D01*
X80297371Y-47279878D01*
X80260417Y-47334207D01*
X80226013Y-47443215D01*
X80214024Y-47505388D01*
X80199751Y-47579402D01*
X80187224Y-47715270D01*
X59872146Y-47715270D01*
X59886494Y-47505388D01*
X59875884Y-47297940D01*
X59838788Y-47136643D01*
X59790664Y-47017308D01*
X59565384Y-47116730D01*
X59340105Y-47216152D01*
X59332531Y-47502230D01*
X59323812Y-47636728D01*
X59276536Y-47840326D01*
X59180458Y-47993423D01*
X59025425Y-48116321D01*
X58995888Y-48133613D01*
X58832658Y-48194323D01*
X58690008Y-48174870D01*
X58551207Y-48073750D01*
X58493649Y-48008276D01*
X58443735Y-47913323D01*
X58429374Y-47799804D01*
X58451566Y-47652698D01*
X58511314Y-47456983D01*
X58609619Y-47197635D01*
X58707850Y-46922115D01*
X58785931Y-46589430D01*
X58796612Y-46317512D01*
X77835702Y-46317512D01*
X77862321Y-46343921D01*
X77951991Y-46411849D01*
X78093539Y-46511974D01*
X78275149Y-46635962D01*
X78485009Y-46775480D01*
X78660633Y-46890817D01*
X78863779Y-47024237D01*
X79035728Y-47137176D01*
X79162346Y-47220352D01*
X79229504Y-47264483D01*
X79274546Y-47290482D01*
X79323524Y-47292799D01*
X79376958Y-47245289D01*
X79456318Y-47135768D01*
X79587943Y-46944457D01*
X79328114Y-46776221D01*
X79318743Y-46770139D01*
X79192205Y-46684800D01*
X79102416Y-46618439D01*
X79068285Y-46584975D01*
X79072688Y-46571914D01*
X79113547Y-46497429D01*
X79188981Y-46373782D01*
X79288802Y-46216431D01*
X79402823Y-46040833D01*
X79520856Y-45862444D01*
X79632716Y-45696722D01*
X79728214Y-45559125D01*
X79797165Y-45465109D01*
X79829380Y-45430132D01*
X79871891Y-45447415D01*
X79968136Y-45502784D01*
X80092917Y-45583189D01*
X80202907Y-45655086D01*
X80301119Y-45714464D01*
X80349456Y-45737261D01*
X80359610Y-45731990D01*
X80408073Y-45678445D01*
X80474412Y-45588436D01*
X80540689Y-45488489D01*
X80588966Y-45405125D01*
X80601305Y-45364870D01*
X80599408Y-45363445D01*
X80548684Y-45329006D01*
X80440989Y-45257189D01*
X80290574Y-45157467D01*
X80111684Y-45039315D01*
X79636366Y-44725906D01*
X79130857Y-45495708D01*
X79083602Y-45567452D01*
X78935198Y-45789845D01*
X78804303Y-45981687D01*
X78698498Y-46132140D01*
X78625365Y-46230361D01*
X78592486Y-46265511D01*
X78553307Y-46252917D01*
X78472793Y-46207380D01*
X78454042Y-46195011D01*
X78348155Y-46127822D01*
X78223720Y-46051469D01*
X78061478Y-45953690D01*
X77948590Y-46119819D01*
X77915991Y-46169142D01*
X77858474Y-46265045D01*
X77835702Y-46317512D01*
X58796612Y-46317512D01*
X58796956Y-46308751D01*
X58740484Y-46076642D01*
X58616074Y-45889668D01*
X58423287Y-45744393D01*
X58399731Y-45731669D01*
X58159572Y-45640089D01*
X57925422Y-45627018D01*
X57684733Y-45693674D01*
X57424958Y-45841275D01*
X57288950Y-45950572D01*
X57106634Y-46178059D01*
X57002069Y-46442708D01*
X56978976Y-46737045D01*
X51767825Y-46737045D01*
X51888548Y-46571305D01*
X52031014Y-46377499D01*
X52148784Y-46219138D01*
X52232939Y-46108223D01*
X52274561Y-46056751D01*
X52308179Y-46035487D01*
X52380391Y-46025832D01*
X52502364Y-46035885D01*
X52692029Y-46066046D01*
X52801904Y-46086195D01*
X53096597Y-46146389D01*
X53409044Y-46217302D01*
X53713107Y-46292575D01*
X53982646Y-46365851D01*
X54191521Y-46430773D01*
X54428622Y-46512619D01*
X55465853Y-45475633D01*
X55639851Y-45300834D01*
X55872303Y-45064476D01*
X56077831Y-44852168D01*
X56249288Y-44671469D01*
X56379527Y-44529939D01*
X56461401Y-44435138D01*
X56487764Y-44394627D01*
X56450488Y-44279840D01*
X62190414Y-44279840D01*
X62210268Y-44572975D01*
X62292198Y-44864148D01*
X62427060Y-45136451D01*
X62605713Y-45372974D01*
X62819014Y-45556809D01*
X63057821Y-45671044D01*
X63232301Y-45716807D01*
X63372341Y-45731090D01*
X63511853Y-45710986D01*
X63691191Y-45655505D01*
X63802989Y-45613780D01*
X64057603Y-45483322D01*
X64245693Y-45320983D01*
X64381938Y-45115283D01*
X64450858Y-44938553D01*
X64495489Y-44656345D01*
X64474141Y-44369072D01*
X64394046Y-44089841D01*
X64262437Y-43831762D01*
X64086547Y-43607943D01*
X63873609Y-43431491D01*
X63630854Y-43315516D01*
X63365516Y-43273125D01*
X63247379Y-43278629D01*
X62959627Y-43342119D01*
X62697013Y-43467823D01*
X62474796Y-43644693D01*
X62308235Y-43861683D01*
X62212592Y-44107746D01*
X62190414Y-44279840D01*
X56450488Y-44279840D01*
X56442053Y-44253864D01*
X56378099Y-44033844D01*
X56310506Y-43780915D01*
X56242626Y-43509807D01*
X56177811Y-43235251D01*
X56119413Y-42971977D01*
X56070786Y-42734717D01*
X56066908Y-42713253D01*
X64777489Y-42713253D01*
X64783164Y-42761499D01*
X64807583Y-42883599D01*
X64848213Y-43068312D01*
X64902519Y-43304399D01*
X64967968Y-43580617D01*
X65042024Y-43885728D01*
X65123369Y-44212839D01*
X65212126Y-44552830D01*
X65241913Y-44656345D01*
X65290167Y-44824040D01*
X65361714Y-45036108D01*
X65430993Y-45198676D01*
X65502229Y-45321384D01*
X65579646Y-45413873D01*
X65667469Y-45485783D01*
X65769922Y-45546755D01*
X65827608Y-45575013D01*
X66011101Y-45632132D01*
X66232141Y-45648546D01*
X66312195Y-45647760D01*
X66461194Y-45636786D01*
X66555482Y-45603062D01*
X66618759Y-45534243D01*
X66674723Y-45417982D01*
X66722233Y-45297025D01*
X66737723Y-45210275D01*
X66700765Y-45166168D01*
X66599564Y-45152512D01*
X66422325Y-45157117D01*
X66419883Y-45157223D01*
X66185192Y-45150676D01*
X66017120Y-45102620D01*
X65901252Y-45005732D01*
X65823172Y-44852688D01*
X65797758Y-44770893D01*
X65803346Y-44735062D01*
X65851788Y-44746116D01*
X65866939Y-44751931D01*
X66117429Y-44801224D01*
X66368587Y-44771308D01*
X66476085Y-44724655D01*
X75640979Y-44724655D01*
X75687571Y-45009894D01*
X75810763Y-45263469D01*
X76008471Y-45478285D01*
X76278609Y-45647251D01*
X76350798Y-45677106D01*
X76545944Y-45734999D01*
X76734586Y-45766754D01*
X76962281Y-45756075D01*
X77221068Y-45671389D01*
X77453723Y-45517744D01*
X77651172Y-45305293D01*
X77804337Y-45044189D01*
X77904142Y-44744586D01*
X77941511Y-44416637D01*
X77941574Y-44408781D01*
X77936701Y-44309431D01*
X79905584Y-44309431D01*
X79911119Y-44408781D01*
X79913275Y-44447468D01*
X79985182Y-44563888D01*
X80110012Y-44628200D01*
X80252304Y-44628750D01*
X80384895Y-44573996D01*
X80482785Y-44474369D01*
X80520971Y-44340305D01*
X80505423Y-44266393D01*
X80429019Y-44148914D01*
X80314990Y-44057355D01*
X80192816Y-44020450D01*
X80170032Y-44021518D01*
X80043739Y-44070866D01*
X79952331Y-44175367D01*
X79905584Y-44309431D01*
X77936701Y-44309431D01*
X77929809Y-44168909D01*
X77882468Y-43982701D01*
X77787249Y-43819677D01*
X77631852Y-43649360D01*
X77501018Y-43546185D01*
X77282939Y-43428662D01*
X77047706Y-43346880D01*
X76832578Y-43316363D01*
X76757979Y-43318994D01*
X76470808Y-43381294D01*
X76214176Y-43524506D01*
X75991698Y-43746068D01*
X75806990Y-44043417D01*
X75785943Y-44087555D01*
X75673075Y-44414844D01*
X75640979Y-44724655D01*
X66476085Y-44724655D01*
X66604650Y-44668859D01*
X66809853Y-44500558D01*
X66968429Y-44273081D01*
X67012120Y-44168059D01*
X67046237Y-44001310D01*
X67055481Y-43779941D01*
X67048855Y-43621322D01*
X66991427Y-43281056D01*
X66880743Y-42984547D01*
X66723614Y-42739028D01*
X66526854Y-42551736D01*
X66297276Y-42429905D01*
X66041694Y-42380771D01*
X65766920Y-42411569D01*
X65700322Y-42432370D01*
X65544127Y-42503668D01*
X65425034Y-42586712D01*
X65359960Y-42644609D01*
X65305249Y-42670877D01*
X65276162Y-42639805D01*
X65266871Y-42620598D01*
X65231675Y-42597520D01*
X65158233Y-42602253D01*
X65023740Y-42634299D01*
X64935039Y-42658765D01*
X64827422Y-42692180D01*
X64777627Y-42713072D01*
X64777489Y-42713253D01*
X56066908Y-42713253D01*
X56035281Y-42538200D01*
X56016251Y-42397157D01*
X56017049Y-42326319D01*
X56035383Y-42304265D01*
X56115433Y-42234422D01*
X56246107Y-42130729D01*
X56414011Y-42002892D01*
X56605750Y-41860613D01*
X56807930Y-41713598D01*
X57007156Y-41571552D01*
X57190032Y-41444179D01*
X57343163Y-41341182D01*
X57453156Y-41272268D01*
X57506614Y-41247140D01*
X57573671Y-41268453D01*
X57701851Y-41329079D01*
X57876155Y-41420916D01*
X58082342Y-41535852D01*
X58306171Y-41665774D01*
X58533400Y-41802570D01*
X58749789Y-41938126D01*
X58941097Y-42064330D01*
X59093066Y-42166443D01*
X59238325Y-42260431D01*
X59343253Y-42324181D01*
X59391887Y-42347660D01*
X59408246Y-42342621D01*
X59488898Y-42303172D01*
X59616661Y-42233064D01*
X59723174Y-42171205D01*
X67451885Y-42171205D01*
X67474125Y-42490542D01*
X67476736Y-42528198D01*
X67492197Y-42736135D01*
X67510025Y-42873254D01*
X67538859Y-42954275D01*
X67587338Y-42993921D01*
X67664101Y-43006913D01*
X67777789Y-43007972D01*
X68019064Y-43007972D01*
X68019064Y-42467459D01*
X68244736Y-42494186D01*
X68390497Y-42520372D01*
X68566276Y-42592247D01*
X68695243Y-42711529D01*
X68783506Y-42887655D01*
X68837175Y-43130060D01*
X68862359Y-43448180D01*
X68874347Y-43779941D01*
X68877470Y-43866377D01*
X68569324Y-43888388D01*
X68422087Y-43902978D01*
X68302590Y-43929643D01*
X68265581Y-43965424D01*
X68266450Y-43977717D01*
X68271281Y-44069869D01*
X68276586Y-44196533D01*
X68279130Y-44253866D01*
X68294315Y-44336307D01*
X68342445Y-44365693D01*
X68448267Y-44366530D01*
X68479542Y-44364877D01*
X68599949Y-44356503D01*
X68778068Y-44342861D01*
X68993618Y-44325632D01*
X69226316Y-44306493D01*
X69455882Y-44287125D01*
X69662033Y-44269206D01*
X69734978Y-44262565D01*
X70286136Y-44262565D01*
X71144541Y-44336091D01*
X71145508Y-44336174D01*
X71426310Y-44359507D01*
X71690669Y-44380160D01*
X71920775Y-44396843D01*
X72098813Y-44408262D01*
X72206973Y-44413127D01*
X72411000Y-44416637D01*
X72437781Y-44185528D01*
X72449819Y-44073804D01*
X72468978Y-43877248D01*
X72491341Y-43632755D01*
X72515915Y-43352656D01*
X72541709Y-43049282D01*
X72567730Y-42734963D01*
X72592985Y-42422032D01*
X72616483Y-42122818D01*
X72637231Y-41849652D01*
X72654237Y-41614866D01*
X72666508Y-41430791D01*
X72673052Y-41309757D01*
X72672877Y-41264095D01*
X72660717Y-41259954D01*
X72576998Y-41246955D01*
X72427614Y-41229792D01*
X72227873Y-41209731D01*
X71993082Y-41188041D01*
X71738549Y-41165987D01*
X71479580Y-41144837D01*
X71231484Y-41125858D01*
X71009567Y-41110317D01*
X70829136Y-41099480D01*
X70705501Y-41094615D01*
X70653966Y-41096989D01*
X70639112Y-41125685D01*
X70622680Y-41222808D01*
X70616291Y-41359790D01*
X70617605Y-41460952D01*
X70628562Y-41552282D01*
X70658185Y-41591701D01*
X70715338Y-41600780D01*
X70796182Y-41604524D01*
X70944397Y-41615306D01*
X71132910Y-41631279D01*
X71343431Y-41650645D01*
X71557670Y-41671608D01*
X71757338Y-41692369D01*
X71924145Y-41711131D01*
X72039800Y-41726098D01*
X72086014Y-41735472D01*
X72090837Y-41758602D01*
X72090473Y-41850916D01*
X72082070Y-41987989D01*
X72068116Y-42143503D01*
X72051097Y-42291142D01*
X72033498Y-42404589D01*
X72017805Y-42457527D01*
X71987277Y-42463870D01*
X71883495Y-42464997D01*
X71726035Y-42457829D01*
X71534529Y-42442957D01*
X71391526Y-42430183D01*
X71228511Y-42416635D01*
X71116181Y-42408569D01*
X71073016Y-42407410D01*
X71067763Y-42434087D01*
X71054520Y-42527218D01*
X71037307Y-42663019D01*
X71007091Y-42912346D01*
X71306925Y-42939654D01*
X71459984Y-42954265D01*
X71649829Y-42973886D01*
X71798255Y-42990825D01*
X71989751Y-43014688D01*
X71958908Y-43418523D01*
X71951143Y-43511050D01*
X71933378Y-43676247D01*
X71915182Y-43795812D01*
X71899475Y-43848623D01*
X71863149Y-43853318D01*
X71750987Y-43852154D01*
X71578123Y-43844125D01*
X71359349Y-43829948D01*
X71109458Y-43810339D01*
X70900859Y-43793325D01*
X70677894Y-43776827D01*
X70499207Y-43765518D01*
X70379270Y-43760296D01*
X70332550Y-43762061D01*
X70324970Y-43789386D01*
X70312705Y-43884310D01*
X70301601Y-44020450D01*
X70294035Y-44138902D01*
X70286136Y-44262565D01*
X69734978Y-44262565D01*
X69824488Y-44254416D01*
X69922964Y-44244434D01*
X69941301Y-44222714D01*
X69953884Y-44138902D01*
X69949686Y-44020831D01*
X69928234Y-43899393D01*
X69918617Y-43869786D01*
X69882563Y-43825032D01*
X69807279Y-43804974D01*
X69668466Y-43800346D01*
X69435242Y-43800346D01*
X69402920Y-43459185D01*
X69386983Y-43253875D01*
X69373140Y-42997495D01*
X69366148Y-42765858D01*
X69361699Y-42413691D01*
X69597816Y-42400212D01*
X69833933Y-42386732D01*
X69806914Y-42251642D01*
X69788811Y-42133919D01*
X69779896Y-42011617D01*
X69780407Y-41987080D01*
X69778516Y-41954473D01*
X69762568Y-41933245D01*
X69720292Y-41922844D01*
X69639422Y-41922718D01*
X69507687Y-41932317D01*
X69312818Y-41951090D01*
X69042548Y-41978484D01*
X68911468Y-41994027D01*
X68841215Y-42017859D01*
X68815213Y-42066407D01*
X68811439Y-42156647D01*
X68811439Y-42311466D01*
X68677375Y-42198658D01*
X68562346Y-42121826D01*
X68332494Y-42036819D01*
X68074320Y-42003444D01*
X67816162Y-42024221D01*
X67586355Y-42101668D01*
X67451885Y-42171205D01*
X59723174Y-42171205D01*
X59772533Y-42142539D01*
X59821664Y-42114040D01*
X59991105Y-42020822D01*
X60215949Y-41901832D01*
X60479183Y-41765895D01*
X60763796Y-41621836D01*
X61052773Y-41478480D01*
X61988215Y-41019542D01*
X61991270Y-40506045D01*
X61996217Y-40309950D01*
X62012683Y-40010887D01*
X62037717Y-39700169D01*
X62068306Y-39420277D01*
X62142288Y-38848007D01*
X62978683Y-38573565D01*
X63019186Y-38560301D01*
X63275856Y-38477474D01*
X63504716Y-38405648D01*
X63691843Y-38349049D01*
X63823314Y-38311903D01*
X63885205Y-38298435D01*
X63910884Y-38309750D01*
X63992703Y-38376717D01*
X64113903Y-38493966D01*
X64264362Y-38650110D01*
X64433961Y-38833761D01*
X64612581Y-39033531D01*
X64790102Y-39238034D01*
X64956404Y-39435881D01*
X65101368Y-39615686D01*
X65214873Y-39766060D01*
X65286801Y-39875618D01*
X65308159Y-39895778D01*
X65356050Y-39906137D01*
X65441339Y-39902996D01*
X65576205Y-39885146D01*
X65772826Y-39851377D01*
X66043379Y-39800479D01*
X66072717Y-39794894D01*
X66295432Y-39754905D01*
X66558405Y-39710921D01*
X66845750Y-39665266D01*
X67141582Y-39620262D01*
X67430015Y-39578232D01*
X67695165Y-39541500D01*
X67921145Y-39512386D01*
X68092072Y-39493215D01*
X68192059Y-39486308D01*
X68226263Y-39452697D01*
X68259492Y-39365251D01*
X68282814Y-39288088D01*
X68339733Y-39128381D01*
X68419239Y-38920745D01*
X68513775Y-38683746D01*
X68615782Y-38435956D01*
X68717704Y-38195941D01*
X68811982Y-37982272D01*
X68891059Y-37813518D01*
X69053553Y-37483362D01*
X69991139Y-37471475D01*
X70928725Y-37459589D01*
X71128935Y-37889673D01*
X71245243Y-38144235D01*
X71422012Y-38552774D01*
X71566927Y-38917396D01*
X71673483Y-39222183D01*
X71750014Y-39464298D01*
X71986532Y-39497377D01*
X72021650Y-39502268D01*
X72175601Y-39523510D01*
X72385929Y-39552351D01*
X72629546Y-39585628D01*
X72883363Y-39620181D01*
X72904122Y-39623019D01*
X73201354Y-39666550D01*
X73523709Y-39718142D01*
X73833677Y-39771581D01*
X74093750Y-39820657D01*
X74114719Y-39824878D01*
X74335099Y-39868578D01*
X74486129Y-39895369D01*
X74583474Y-39905911D01*
X74642798Y-39900866D01*
X74679766Y-39880894D01*
X74710041Y-39846657D01*
X74830084Y-39693995D01*
X75099099Y-39359312D01*
X75348110Y-39059771D01*
X75571750Y-38801331D01*
X75764651Y-38589951D01*
X75921446Y-38431587D01*
X76036769Y-38332200D01*
X76105251Y-38297747D01*
X76133517Y-38303623D01*
X76234841Y-38332025D01*
X76393006Y-38379492D01*
X76592346Y-38441028D01*
X76817197Y-38511638D01*
X77051892Y-38586326D01*
X77280768Y-38660096D01*
X77488157Y-38727953D01*
X77658395Y-38784902D01*
X77775817Y-38825946D01*
X77824758Y-38846090D01*
X77826298Y-38847886D01*
X77843622Y-38909370D01*
X77865587Y-39040885D01*
X77890430Y-39226420D01*
X77916390Y-39449965D01*
X77941706Y-39695511D01*
X77964616Y-39947046D01*
X77983359Y-40188562D01*
X77996174Y-40404048D01*
X78025850Y-41035653D01*
X78293948Y-41150872D01*
X78366875Y-41182660D01*
X78643702Y-41309757D01*
X78681966Y-41327325D01*
X79039482Y-41500737D01*
X79413300Y-41689756D01*
X79777296Y-41881242D01*
X80105348Y-42062054D01*
X80616427Y-42352203D01*
X80997902Y-42091608D01*
X81059160Y-42050560D01*
X81226205Y-41943279D01*
X81425742Y-41819595D01*
X81642467Y-41688520D01*
X81861073Y-41559066D01*
X82066255Y-41440245D01*
X82242706Y-41341069D01*
X82375121Y-41270550D01*
X82448194Y-41237699D01*
X82456082Y-41239074D01*
X82523564Y-41275116D01*
X82647309Y-41353537D01*
X82816199Y-41466925D01*
X83019119Y-41607867D01*
X83244952Y-41768952D01*
X83403551Y-41883934D01*
X83619936Y-42043525D01*
X83776986Y-42164563D01*
X83882961Y-42254251D01*
X83946124Y-42319793D01*
X83974738Y-42368393D01*
X83977064Y-42407254D01*
X83976271Y-42410867D01*
X83958551Y-42495365D01*
X83927970Y-42644479D01*
X83888607Y-42838224D01*
X83844542Y-43056616D01*
X83800340Y-43263408D01*
X83734721Y-43541604D01*
X83666191Y-43807111D01*
X83603959Y-44022939D01*
X83504460Y-44340305D01*
X83474966Y-44434379D01*
X83747795Y-44675735D01*
G37*
G36*
X62682037Y-54420364D02*
G01*
X62693536Y-56214211D01*
X62281413Y-56214211D01*
X62198966Y-56213249D01*
X62000804Y-56203706D01*
X61831111Y-56186125D01*
X61719654Y-56163208D01*
X61445135Y-56026691D01*
X61199023Y-55815406D01*
X60999779Y-55544238D01*
X60858920Y-55225735D01*
X60829842Y-55110896D01*
X60794132Y-54878634D01*
X60771529Y-54608634D01*
X60763434Y-54331165D01*
X60771248Y-54076495D01*
X60796374Y-53874895D01*
X60893255Y-53551774D01*
X61039176Y-53256260D01*
X61223122Y-53004096D01*
X61434261Y-52810121D01*
X61661763Y-52689175D01*
X61703427Y-52677624D01*
X61852856Y-52652960D01*
X62046216Y-52635457D01*
X62252340Y-52628326D01*
X62670538Y-52626516D01*
X62682037Y-54420364D01*
G37*
G36*
X74186135Y-58652045D02*
G01*
X74216599Y-58759964D01*
X74252554Y-58906008D01*
X74271963Y-58984597D01*
X74320035Y-59164856D01*
X74384033Y-59394481D01*
X74457962Y-59652093D01*
X74535830Y-59916318D01*
X74594683Y-60114274D01*
X74658336Y-60331122D01*
X74708883Y-60506484D01*
X74742222Y-60626092D01*
X74754246Y-60675676D01*
X74750706Y-60678791D01*
X74687104Y-60688819D01*
X74556011Y-60696928D01*
X74373403Y-60702354D01*
X74155256Y-60704332D01*
X74048917Y-60704162D01*
X73838302Y-60701773D01*
X73698524Y-60695463D01*
X73617295Y-60683834D01*
X73582325Y-60665486D01*
X73581327Y-60639022D01*
X73612675Y-60547069D01*
X73662410Y-60387963D01*
X73725033Y-60180180D01*
X73795760Y-59940343D01*
X73869806Y-59685073D01*
X73942388Y-59430994D01*
X74008721Y-59194727D01*
X74064023Y-58992896D01*
X74103507Y-58842123D01*
X74122392Y-58759030D01*
X74128997Y-58721245D01*
X74150734Y-58633332D01*
X74168687Y-58607393D01*
X74186135Y-58652045D01*
G37*
G36*
X84687624Y-67578915D02*
G01*
X84918781Y-67640977D01*
X85126965Y-67755367D01*
X85295909Y-67908876D01*
X85409346Y-68088293D01*
X85451010Y-68280405D01*
X85446120Y-68341486D01*
X85387096Y-68519333D01*
X85278400Y-68681481D01*
X85141833Y-68791864D01*
X84973261Y-68841264D01*
X84765139Y-68833123D01*
X84553977Y-68768218D01*
X84357975Y-68657134D01*
X84195333Y-68510456D01*
X84084249Y-68338772D01*
X84042925Y-68152666D01*
X84046451Y-68087094D01*
X84105006Y-67886999D01*
X84223572Y-67723073D01*
X84386524Y-67612278D01*
X84578235Y-67571577D01*
X84687624Y-67578915D01*
G37*
G36*
X83025438Y-49507213D02*
G01*
X83150392Y-49633607D01*
X83268226Y-49792395D01*
X83351044Y-49947786D01*
X83382323Y-50073557D01*
X83382062Y-50078670D01*
X83348046Y-50158706D01*
X83274272Y-50251394D01*
X83221776Y-50299942D01*
X83128641Y-50350480D01*
X83030170Y-50337073D01*
X82898072Y-50260398D01*
X82741789Y-50110720D01*
X82630638Y-49909120D01*
X82589948Y-49691812D01*
X82591786Y-49639812D01*
X82624692Y-49527590D01*
X82715774Y-49439450D01*
X82841599Y-49349854D01*
X83025438Y-49507213D01*
G37*
G36*
X66065994Y-42899894D02*
G01*
X66230339Y-42999036D01*
X66365376Y-43163642D01*
X66461717Y-43381386D01*
X66509976Y-43639944D01*
X66515564Y-43802798D01*
X66489904Y-43994800D01*
X66417562Y-44134963D01*
X66292345Y-44240369D01*
X66182323Y-44293984D01*
X65980853Y-44324133D01*
X65782270Y-44266839D01*
X65780313Y-44265821D01*
X65725988Y-44228840D01*
X65682211Y-44171787D01*
X65641800Y-44078145D01*
X65597574Y-43931395D01*
X65542350Y-43715018D01*
X65521794Y-43630947D01*
X65477958Y-43442713D01*
X65454467Y-43315420D01*
X65449761Y-43231174D01*
X65462277Y-43172084D01*
X65490455Y-43120255D01*
X65527514Y-43075324D01*
X65650275Y-42979688D01*
X65797362Y-42905641D01*
X65928077Y-42875910D01*
X66065994Y-42899894D01*
G37*
G36*
X72949394Y-67451511D02*
G01*
X72542201Y-67429867D01*
X72369915Y-67417003D01*
X72113730Y-67376729D01*
X71910177Y-67311097D01*
X71752027Y-67228269D01*
X71504161Y-67023736D01*
X71306525Y-66753186D01*
X71162174Y-66422640D01*
X71074160Y-66038121D01*
X71045537Y-65605652D01*
X71048500Y-65481048D01*
X71098936Y-65055666D01*
X71209665Y-64680399D01*
X71378160Y-64362048D01*
X71601896Y-64107411D01*
X71700902Y-64026932D01*
X71860502Y-63930890D01*
X72039936Y-63870378D01*
X72261454Y-63838862D01*
X72547309Y-63829809D01*
X72949394Y-63829809D01*
X72949394Y-67451511D01*
G37*
G36*
X63540609Y-43840694D02*
G01*
X63710401Y-43982127D01*
X63855311Y-44205477D01*
X63933284Y-44411516D01*
X63961361Y-44646119D01*
X63921411Y-44855639D01*
X63816360Y-45026730D01*
X63649133Y-45146047D01*
X63555475Y-45179031D01*
X63353106Y-45191355D01*
X63162248Y-45130091D01*
X62994081Y-45005060D01*
X62859786Y-44826078D01*
X62770544Y-44602965D01*
X62737536Y-44345538D01*
X62740432Y-44264278D01*
X62787865Y-44073032D01*
X62901023Y-43932131D01*
X63089747Y-43827088D01*
X63138473Y-43809554D01*
X63348959Y-43782672D01*
X63540609Y-43840694D01*
G37*
G36*
X68039728Y-64358059D02*
G01*
X68040649Y-64363110D01*
X68064654Y-64465810D01*
X68109614Y-64636087D01*
X68171130Y-64858604D01*
X68244804Y-65118021D01*
X68326236Y-65399002D01*
X68411029Y-65686207D01*
X68494783Y-65964298D01*
X68573100Y-66217937D01*
X68577026Y-66245235D01*
X68559348Y-66267762D01*
X68505471Y-66282267D01*
X68402435Y-66290482D01*
X68237283Y-66294139D01*
X67997054Y-66294974D01*
X67785849Y-66294383D01*
X67610806Y-66291211D01*
X67499656Y-66283713D01*
X67439412Y-66270157D01*
X67417086Y-66248809D01*
X67419692Y-66217937D01*
X67501277Y-65941989D01*
X67602489Y-65597225D01*
X67697850Y-65269844D01*
X67783494Y-64973242D01*
X67855558Y-64720816D01*
X67910177Y-64525963D01*
X67943487Y-64402079D01*
X68005122Y-64159965D01*
X68039728Y-64358059D01*
G37*
G36*
X71514559Y-76144329D02*
G01*
X71696752Y-76255371D01*
X71833344Y-76432288D01*
X71879054Y-76547888D01*
X71912579Y-76759558D01*
X71899443Y-76980137D01*
X71844276Y-77186543D01*
X71751705Y-77355692D01*
X71626360Y-77464503D01*
X71493867Y-77505074D01*
X71317374Y-77517785D01*
X71145566Y-77498553D01*
X71017510Y-77448413D01*
X70996244Y-77432466D01*
X70874822Y-77288598D01*
X70794791Y-77098406D01*
X70756172Y-76882550D01*
X70758985Y-76661692D01*
X70803252Y-76456491D01*
X70888993Y-76287608D01*
X71016229Y-76175704D01*
X71088884Y-76143584D01*
X71305643Y-76105090D01*
X71514559Y-76144329D01*
G37*
G36*
X68721351Y-76111060D02*
G01*
X68814605Y-76141739D01*
X68929676Y-76213427D01*
X68996198Y-76322941D01*
X69021590Y-76485680D01*
X69013269Y-76717043D01*
X69012762Y-76723089D01*
X68990350Y-76973653D01*
X68969431Y-77151842D01*
X68945973Y-77272830D01*
X68915944Y-77351791D01*
X68875315Y-77403899D01*
X68820052Y-77444330D01*
X68708962Y-77492970D01*
X68509406Y-77516858D01*
X68308086Y-77477353D01*
X68294263Y-77471678D01*
X68168035Y-77371980D01*
X68078580Y-77213450D01*
X68027184Y-77015996D01*
X68015131Y-76799528D01*
X68043706Y-76583952D01*
X68114196Y-76389177D01*
X68227885Y-76235112D01*
X68378333Y-76123753D01*
X68533399Y-76083952D01*
X68721351Y-76111060D01*
G37*
G36*
X79145815Y-54420364D02*
G01*
X79157314Y-56214211D01*
X78745191Y-56214211D01*
X78662744Y-56213249D01*
X78464582Y-56203706D01*
X78294889Y-56186125D01*
X78183432Y-56163208D01*
X78051912Y-56110127D01*
X77780864Y-55935382D01*
X77561167Y-55692045D01*
X77394930Y-55383613D01*
X77284263Y-55013580D01*
X77231274Y-54585442D01*
X77226348Y-54371942D01*
X77261476Y-53928134D01*
X77360118Y-53540135D01*
X77521490Y-53210452D01*
X77744809Y-52941589D01*
X77861363Y-52841422D01*
X78024326Y-52738322D01*
X78206044Y-52673297D01*
X78429110Y-52639060D01*
X78716118Y-52628326D01*
X79134316Y-52626516D01*
X79145815Y-54420364D01*
G37*
G36*
X76268413Y-64336048D02*
G01*
X76269438Y-64341282D01*
X76291711Y-64432826D01*
X76333719Y-64590426D01*
X76390727Y-64797505D01*
X76458003Y-65037486D01*
X76530810Y-65293790D01*
X76604416Y-65549841D01*
X76674085Y-65789059D01*
X76735083Y-65994868D01*
X76782676Y-66150690D01*
X76812131Y-66239948D01*
X76807931Y-66257629D01*
X76760184Y-66275403D01*
X76654804Y-66286914D01*
X76481676Y-66293118D01*
X76230686Y-66294974D01*
X76017656Y-66294373D01*
X75842678Y-66291184D01*
X75731517Y-66283671D01*
X75671190Y-66270109D01*
X75648716Y-66248773D01*
X75651114Y-66217937D01*
X75659028Y-66191090D01*
X75690561Y-66085161D01*
X75739782Y-65920389D01*
X75801741Y-65713342D01*
X75871485Y-65480589D01*
X75897251Y-65394228D01*
X75974412Y-65131057D01*
X76047511Y-64875669D01*
X76109319Y-64653534D01*
X76152606Y-64490121D01*
X76235742Y-64159965D01*
X76268413Y-64336048D01*
G37*
%TD*%
%LPC*%
D10*
%TO.C,A2*%
X38745000Y-71517500D03*
X41145000Y-69517500D03*
X46645000Y-69517500D03*
%TD*%
D11*
%TO.C,C3*%
X67945000Y-51425000D03*
X65445000Y-51425000D03*
%TD*%
D12*
%TO.C,J2*%
X107375000Y-73000000D03*
D13*
X107375000Y-70500000D03*
%TD*%
D11*
%TO.C,C6*%
X65405000Y-62855000D03*
X67905000Y-62855000D03*
%TD*%
D14*
%TO.C,U1*%
X91440000Y-74920000D03*
D11*
X91440000Y-72380000D03*
X91440000Y-69840000D03*
X91440000Y-67300000D03*
X91440000Y-64760000D03*
X91440000Y-62220000D03*
X91440000Y-59680000D03*
X91440000Y-57140000D03*
X91440000Y-54600000D03*
X91440000Y-52060000D03*
X91440000Y-49520000D03*
X91440000Y-46980000D03*
X91440000Y-44440000D03*
X91440000Y-41900000D03*
X88900000Y-41900000D03*
X86360000Y-41900000D03*
X83820000Y-41900000D03*
X81280000Y-41900000D03*
X78740000Y-41900000D03*
X76200000Y-41900000D03*
X76200000Y-44440000D03*
X76200000Y-46980000D03*
X76200000Y-49520000D03*
X76200000Y-52060000D03*
X76200000Y-54600000D03*
X76200000Y-57140000D03*
X76200000Y-59680000D03*
X76200000Y-62220000D03*
X76200000Y-64760000D03*
X76200000Y-67300000D03*
X76200000Y-69840000D03*
X76200000Y-72380000D03*
X76200000Y-74920000D03*
%TD*%
%TO.C,R2*%
X53975000Y-74285000D03*
D15*
X61595000Y-74285000D03*
%TD*%
D11*
%TO.C,R4*%
X53975000Y-59045000D03*
D15*
X61595000Y-59045000D03*
%TD*%
D16*
%TO.C,H1*%
X40000000Y-40000000D03*
%TD*%
%TO.C,H4*%
X100000000Y-40000000D03*
%TD*%
D11*
%TO.C,C1*%
X50165000Y-43805000D03*
X50165000Y-41305000D03*
%TD*%
%TO.C,R3*%
X53975000Y-39995000D03*
D15*
X61595000Y-39995000D03*
%TD*%
D10*
%TO.C,A1*%
X38745000Y-52467500D03*
X41145000Y-50467500D03*
X46645000Y-50467500D03*
%TD*%
D12*
%TO.C,J1*%
X107375000Y-63950000D03*
D13*
X107375000Y-61450000D03*
%TD*%
D11*
%TO.C,C4*%
X67945000Y-70475000D03*
X65445000Y-70475000D03*
%TD*%
D16*
%TO.C,H2*%
X100000000Y-80000000D03*
%TD*%
D14*
%TO.C,U2*%
X53985000Y-43815000D03*
D15*
X53985000Y-46355000D03*
X53985000Y-48895000D03*
X53985000Y-51435000D03*
X61605000Y-51435000D03*
X61605000Y-48895000D03*
X61605000Y-46355000D03*
X61605000Y-43815000D03*
%TD*%
D11*
%TO.C,C7*%
X67945000Y-47615000D03*
X65445000Y-47615000D03*
%TD*%
%TO.C,C8*%
X67945000Y-66665000D03*
X65445000Y-66665000D03*
%TD*%
D17*
%TO.C,C9*%
X99000000Y-48632323D03*
D18*
X99000000Y-53632323D03*
%TD*%
D14*
%TO.C,U3*%
X53985000Y-62865000D03*
D15*
X53985000Y-65405000D03*
X53985000Y-67945000D03*
X53985000Y-70485000D03*
X61605000Y-70485000D03*
X61605000Y-67945000D03*
X61605000Y-65405000D03*
X61605000Y-62865000D03*
%TD*%
D11*
%TO.C,C2*%
X50165000Y-62855000D03*
X50165000Y-60355000D03*
%TD*%
D16*
%TO.C,H3*%
X40000000Y-80000000D03*
%TD*%
D19*
%TO.C,J3*%
X107475000Y-54750000D03*
D20*
X107475000Y-52250000D03*
X107475000Y-49750000D03*
X107475000Y-47250000D03*
%TD*%
D11*
%TO.C,C5*%
X65405000Y-43805000D03*
X67905000Y-43805000D03*
%TD*%
%TO.C,R1*%
X53975000Y-55235000D03*
D15*
X61595000Y-55235000D03*
%TD*%
M02*
