%TF.GenerationSoftware,KiCad,Pcbnew,(6.0.4)*%
%TF.CreationDate,2022-04-07T16:53:33-04:00*%
%TF.ProjectId,larson_vu_pcb,6c617273-6f6e-45f7-9675-5f7063622e6b,rev?*%
%TF.SameCoordinates,Original*%
%TF.FileFunction,Legend,Bot*%
%TF.FilePolarity,Positive*%
%FSLAX46Y46*%
G04 Gerber Fmt 4.6, Leading zero omitted, Abs format (unit mm)*
G04 Created by KiCad (PCBNEW (6.0.4)) date 2022-04-07 16:53:33*
%MOMM*%
%LPD*%
G01*
G04 APERTURE LIST*
%ADD10C,0.150000*%
%ADD11C,0.120000*%
G04 APERTURE END LIST*
D10*
X72750000Y-90140595D02*
X72797619Y-90235833D01*
X72797619Y-90378690D01*
X72750000Y-90521547D01*
X72654761Y-90616785D01*
X72559523Y-90664404D01*
X72369047Y-90712023D01*
X72226190Y-90712023D01*
X72035714Y-90664404D01*
X71940476Y-90616785D01*
X71845238Y-90521547D01*
X71797619Y-90378690D01*
X71797619Y-90283452D01*
X71845238Y-90140595D01*
X71892857Y-90092976D01*
X72226190Y-90092976D01*
X72226190Y-90283452D01*
X71797619Y-89664404D02*
X72797619Y-89664404D01*
X71797619Y-89092976D01*
X72797619Y-89092976D01*
X71797619Y-88616785D02*
X72797619Y-88616785D01*
X72797619Y-88378690D01*
X72750000Y-88235833D01*
X72654761Y-88140595D01*
X72559523Y-88092976D01*
X72369047Y-88045357D01*
X72226190Y-88045357D01*
X72035714Y-88092976D01*
X71940476Y-88140595D01*
X71845238Y-88235833D01*
X71797619Y-88378690D01*
X71797619Y-88616785D01*
X69297619Y-90664404D02*
X70297619Y-90664404D01*
X70297619Y-90426309D01*
X70250000Y-90283452D01*
X70154761Y-90188214D01*
X70059523Y-90140595D01*
X69869047Y-90092976D01*
X69726190Y-90092976D01*
X69535714Y-90140595D01*
X69440476Y-90188214D01*
X69345238Y-90283452D01*
X69297619Y-90426309D01*
X69297619Y-90664404D01*
X69583333Y-89712023D02*
X69583333Y-89235833D01*
X69297619Y-89807261D02*
X70297619Y-89473928D01*
X69297619Y-89140595D01*
X70297619Y-88950119D02*
X70297619Y-88378690D01*
X69297619Y-88664404D02*
X70297619Y-88664404D01*
X66892857Y-90092976D02*
X66845238Y-90140595D01*
X66797619Y-90283452D01*
X66797619Y-90378690D01*
X66845238Y-90521547D01*
X66940476Y-90616785D01*
X67035714Y-90664404D01*
X67226190Y-90712023D01*
X67369047Y-90712023D01*
X67559523Y-90664404D01*
X67654761Y-90616785D01*
X67750000Y-90521547D01*
X67797619Y-90378690D01*
X67797619Y-90283452D01*
X67750000Y-90140595D01*
X67702380Y-90092976D01*
X66797619Y-89188214D02*
X66797619Y-89664404D01*
X67797619Y-89664404D01*
X66797619Y-88854880D02*
X67797619Y-88854880D01*
X66797619Y-88283452D02*
X67369047Y-88712023D01*
X67797619Y-88283452D02*
X67226190Y-88854880D01*
X65297619Y-90188214D02*
X65297619Y-90664404D01*
X64821428Y-90712023D01*
X64869047Y-90664404D01*
X64916666Y-90569166D01*
X64916666Y-90331071D01*
X64869047Y-90235833D01*
X64821428Y-90188214D01*
X64726190Y-90140595D01*
X64488095Y-90140595D01*
X64392857Y-90188214D01*
X64345238Y-90235833D01*
X64297619Y-90331071D01*
X64297619Y-90569166D01*
X64345238Y-90664404D01*
X64392857Y-90712023D01*
X65297619Y-89854880D02*
X64297619Y-89521547D01*
X65297619Y-89188214D01*
D11*
%TO.C,J1*%
X74810000Y-97485000D02*
X62190000Y-97485000D01*
X74800000Y-95225000D02*
X74050000Y-95225000D01*
X74050000Y-92275000D02*
X68500000Y-92275000D01*
X62200000Y-95225000D02*
X62950000Y-95225000D01*
X62190000Y-91515000D02*
X74810000Y-91515000D01*
X62190000Y-97485000D02*
X62190000Y-91515000D01*
X74810000Y-91515000D02*
X74810000Y-97485000D01*
X73000000Y-96725000D02*
X74800000Y-96725000D01*
X71500000Y-96725000D02*
X71500000Y-97475000D01*
X63150000Y-97775000D02*
X61900000Y-97775000D01*
X74050000Y-95225000D02*
X74050000Y-92275000D01*
X64000000Y-96725000D02*
X64000000Y-97475000D01*
X61900000Y-97775000D02*
X61900000Y-96525000D01*
X62200000Y-97475000D02*
X62200000Y-96725000D01*
X74800000Y-97475000D02*
X73000000Y-97475000D01*
X62200000Y-96725000D02*
X64000000Y-96725000D01*
X73000000Y-97475000D02*
X73000000Y-96725000D01*
X62950000Y-95225000D02*
X62950000Y-92275000D01*
X71500000Y-97475000D02*
X65500000Y-97475000D01*
X64000000Y-97475000D02*
X62200000Y-97475000D01*
X74800000Y-96725000D02*
X74800000Y-97475000D01*
X62950000Y-92275000D02*
X68500000Y-92275000D01*
X65500000Y-96725000D02*
X71500000Y-96725000D01*
X65500000Y-97475000D02*
X65500000Y-96725000D01*
%TD*%
M02*
