%TF.GenerationSoftware,KiCad,Pcbnew,(6.0.4)*%
%TF.CreationDate,2022-04-07T16:53:33-04:00*%
%TF.ProjectId,larson_vu_pcb,6c617273-6f6e-45f7-9675-5f7063622e6b,rev?*%
%TF.SameCoordinates,Original*%
%TF.FileFunction,Copper,L1,Top*%
%TF.FilePolarity,Positive*%
%FSLAX46Y46*%
G04 Gerber Fmt 4.6, Leading zero omitted, Abs format (unit mm)*
G04 Created by KiCad (PCBNEW (6.0.4)) date 2022-04-07 16:53:33*
%MOMM*%
%LPD*%
G01*
G04 APERTURE LIST*
G04 Aperture macros list*
%AMRoundRect*
0 Rectangle with rounded corners*
0 $1 Rounding radius*
0 $2 $3 $4 $5 $6 $7 $8 $9 X,Y pos of 4 corners*
0 Add a 4 corners polygon primitive as box body*
4,1,4,$2,$3,$4,$5,$6,$7,$8,$9,$2,$3,0*
0 Add four circle primitives for the rounded corners*
1,1,$1+$1,$2,$3*
1,1,$1+$1,$4,$5*
1,1,$1+$1,$6,$7*
1,1,$1+$1,$8,$9*
0 Add four rect primitives between the rounded corners*
20,1,$1+$1,$2,$3,$4,$5,0*
20,1,$1+$1,$4,$5,$6,$7,0*
20,1,$1+$1,$6,$7,$8,$9,0*
20,1,$1+$1,$8,$9,$2,$3,0*%
G04 Aperture macros list end*
%TA.AperFunction,ComponentPad*%
%ADD10R,1.800000X1.800000*%
%TD*%
%TA.AperFunction,ComponentPad*%
%ADD11C,1.800000*%
%TD*%
%TA.AperFunction,ConnectorPad*%
%ADD12RoundRect,0.381000X-0.889000X-0.381000X0.889000X-0.381000X0.889000X0.381000X-0.889000X0.381000X0*%
%TD*%
%TA.AperFunction,ComponentPad*%
%ADD13RoundRect,0.250000X-0.600000X-0.725000X0.600000X-0.725000X0.600000X0.725000X-0.600000X0.725000X0*%
%TD*%
%TA.AperFunction,ComponentPad*%
%ADD14O,1.700000X1.950000*%
%TD*%
%TA.AperFunction,ViaPad*%
%ADD15C,1.000000*%
%TD*%
%TA.AperFunction,Conductor*%
%ADD16C,0.600000*%
%TD*%
G04 APERTURE END LIST*
D10*
%TO.P,C1,1*%
%TO.N,5V*%
X64250000Y-79000000D03*
D11*
%TO.P,C1,2*%
%TO.N,GND*%
X67750000Y-79000000D03*
%TD*%
D12*
%TO.P,J3,1,Pin_1*%
%TO.N,5V*%
X80000000Y-59190000D03*
%TO.P,J3,2,Pin_2*%
%TO.N,CLK*%
X80000000Y-61730000D03*
%TO.P,J3,3,Pin_3*%
%TO.N,DATA*%
X80000000Y-64270000D03*
%TO.P,J3,4,Pin_4*%
%TO.N,GND*%
X80000000Y-66810000D03*
%TD*%
%TO.P,J2,1,Pin_1*%
%TO.N,5V*%
X80000000Y-73190000D03*
%TO.P,J2,2,Pin_2*%
%TO.N,CLK*%
X80000000Y-75730000D03*
%TO.P,J2,3,Pin_3*%
%TO.N,DATA*%
X80000000Y-78270000D03*
%TO.P,J2,4,Pin_4*%
%TO.N,GND*%
X80000000Y-80810000D03*
%TD*%
D13*
%TO.P,J1,1,Pin_1*%
%TO.N,5V*%
X64750000Y-95025000D03*
D14*
%TO.P,J1,2,Pin_2*%
%TO.N,CLK*%
X67250000Y-95025000D03*
%TO.P,J1,3,Pin_3*%
%TO.N,DATA*%
X69750000Y-95025000D03*
%TO.P,J1,4,Pin_4*%
%TO.N,GND*%
X72250000Y-95025000D03*
%TD*%
D15*
%TO.N,GND*%
X80000000Y-69000000D03*
X80000000Y-83000000D03*
%TD*%
D16*
%TO.N,5V*%
X78810000Y-59190000D02*
X80000000Y-59190000D01*
X64250000Y-73750000D02*
X78810000Y-59190000D01*
X64250000Y-75750000D02*
X64250000Y-73750000D01*
%TO.N,DATA*%
X83000000Y-66000000D02*
X81270000Y-64270000D01*
X83000000Y-77000000D02*
X83000000Y-66000000D01*
X81730000Y-78270000D02*
X83000000Y-77000000D01*
X80000000Y-78270000D02*
X81730000Y-78270000D01*
X81270000Y-64270000D02*
X80000000Y-64270000D01*
%TO.N,CLK*%
X78770000Y-61730000D02*
X80000000Y-61730000D01*
X77500000Y-63000000D02*
X78770000Y-61730000D01*
X77500000Y-70000000D02*
X77500000Y-63000000D01*
X81000000Y-71000000D02*
X78500000Y-71000000D01*
X82000000Y-72000000D02*
X81000000Y-71000000D01*
X78500000Y-71000000D02*
X77500000Y-70000000D01*
X82000000Y-75000000D02*
X82000000Y-72000000D01*
X81270000Y-75730000D02*
X82000000Y-75000000D01*
X80000000Y-75730000D02*
X81270000Y-75730000D01*
X74770000Y-75730000D02*
X80000000Y-75730000D01*
X67250000Y-83250000D02*
X74770000Y-75730000D01*
X67250000Y-95025000D02*
X67250000Y-83250000D01*
%TO.N,DATA*%
X78730000Y-78270000D02*
X80000000Y-78270000D01*
X77500000Y-82500000D02*
X77500000Y-79500000D01*
X77500000Y-79500000D02*
X78730000Y-78270000D01*
X69750000Y-95025000D02*
X69750000Y-90250000D01*
X69750000Y-90250000D02*
X77500000Y-82500000D01*
%TO.N,5V*%
X66810000Y-73190000D02*
X80000000Y-73190000D01*
X64250000Y-75750000D02*
X66810000Y-73190000D01*
X64250000Y-79000000D02*
X64250000Y-75750000D01*
X64525000Y-95025000D02*
X64750000Y-95025000D01*
X61500000Y-80500000D02*
X61500000Y-92000000D01*
X61500000Y-92000000D02*
X64525000Y-95025000D01*
X63000000Y-79000000D02*
X61500000Y-80500000D01*
X64250000Y-79000000D02*
X63000000Y-79000000D01*
%TO.N,GND*%
X80000000Y-66810000D02*
X80000000Y-69000000D01*
X80000000Y-80810000D02*
X80000000Y-83000000D01*
%TD*%
%TA.AperFunction,Conductor*%
%TO.N,5V*%
G36*
X82970018Y-55510000D02*
G01*
X82984851Y-55512310D01*
X82984855Y-55512310D01*
X82993724Y-55513691D01*
X83008981Y-55511696D01*
X83034302Y-55510953D01*
X83203285Y-55523039D01*
X83221064Y-55525596D01*
X83411392Y-55566999D01*
X83428641Y-55572063D01*
X83611150Y-55640136D01*
X83627502Y-55647604D01*
X83798458Y-55740952D01*
X83813582Y-55750672D01*
X83969514Y-55867402D01*
X83983100Y-55879175D01*
X84120825Y-56016900D01*
X84132598Y-56030486D01*
X84249328Y-56186418D01*
X84259048Y-56201542D01*
X84352396Y-56372498D01*
X84359864Y-56388850D01*
X84427937Y-56571359D01*
X84433001Y-56588607D01*
X84474404Y-56778936D01*
X84476962Y-56796721D01*
X84488540Y-56958601D01*
X84487793Y-56976565D01*
X84487692Y-56984845D01*
X84486309Y-56993724D01*
X84487474Y-57002630D01*
X84490436Y-57025283D01*
X84491500Y-57041621D01*
X84491500Y-82950633D01*
X84490000Y-82970018D01*
X84487690Y-82984851D01*
X84487690Y-82984855D01*
X84486309Y-82993724D01*
X84488217Y-83008313D01*
X84488304Y-83008976D01*
X84489047Y-83034302D01*
X84477285Y-83198769D01*
X84476962Y-83203279D01*
X84474404Y-83221064D01*
X84448378Y-83340707D01*
X84433001Y-83411392D01*
X84427937Y-83428641D01*
X84359864Y-83611150D01*
X84352396Y-83627502D01*
X84259048Y-83798458D01*
X84249328Y-83813582D01*
X84132598Y-83969514D01*
X84120825Y-83983100D01*
X83983100Y-84120825D01*
X83969514Y-84132598D01*
X83813582Y-84249328D01*
X83798458Y-84259048D01*
X83627502Y-84352396D01*
X83611150Y-84359864D01*
X83428641Y-84427937D01*
X83411393Y-84433001D01*
X83221064Y-84474404D01*
X83203285Y-84476961D01*
X83041395Y-84488540D01*
X83023435Y-84487793D01*
X83015155Y-84487692D01*
X83006276Y-84486309D01*
X82974714Y-84490436D01*
X82958379Y-84491500D01*
X79053250Y-84491500D01*
X79032345Y-84489754D01*
X79017344Y-84487230D01*
X79017341Y-84487230D01*
X79012552Y-84486424D01*
X79006276Y-84486347D01*
X79004859Y-84486330D01*
X79004856Y-84486330D01*
X79000000Y-84486271D01*
X78995190Y-84486960D01*
X78992763Y-84487118D01*
X78987067Y-84487697D01*
X78700878Y-84505008D01*
X78700873Y-84505009D01*
X78697081Y-84505238D01*
X78398579Y-84559941D01*
X78108848Y-84650225D01*
X78105378Y-84651787D01*
X78105372Y-84651789D01*
X77970479Y-84712500D01*
X77832111Y-84774774D01*
X77828854Y-84776743D01*
X77828850Y-84776745D01*
X77749906Y-84824469D01*
X77572405Y-84931772D01*
X77569403Y-84934124D01*
X77569400Y-84934126D01*
X77519545Y-84973185D01*
X77453586Y-84999451D01*
X77441839Y-85000000D01*
X77000000Y-85000000D01*
X77000000Y-85441839D01*
X76979998Y-85509960D01*
X76973185Y-85519545D01*
X76931772Y-85572405D01*
X76774774Y-85832111D01*
X76650225Y-86108848D01*
X76559941Y-86398579D01*
X76505238Y-86697081D01*
X76505009Y-86700871D01*
X76505008Y-86700877D01*
X76488279Y-86977454D01*
X76487718Y-86982655D01*
X76487711Y-86983272D01*
X76487875Y-86983669D01*
X76486309Y-86993724D01*
X76486983Y-86998878D01*
X76486915Y-87000000D01*
X76487130Y-87000000D01*
X76488122Y-87007587D01*
X76490436Y-87025283D01*
X76491500Y-87041620D01*
X76491500Y-96950633D01*
X76490000Y-96970018D01*
X76487690Y-96984851D01*
X76487690Y-96984855D01*
X76486309Y-96993724D01*
X76488136Y-97007693D01*
X76488304Y-97008976D01*
X76489047Y-97034305D01*
X76476962Y-97203279D01*
X76474404Y-97221064D01*
X76456598Y-97302919D01*
X76433001Y-97411392D01*
X76427937Y-97428641D01*
X76359864Y-97611150D01*
X76352396Y-97627502D01*
X76259048Y-97798458D01*
X76249328Y-97813582D01*
X76132598Y-97969514D01*
X76120825Y-97983100D01*
X75983100Y-98120825D01*
X75969514Y-98132598D01*
X75813582Y-98249328D01*
X75798458Y-98259048D01*
X75627502Y-98352396D01*
X75611150Y-98359864D01*
X75428641Y-98427937D01*
X75411393Y-98433001D01*
X75221064Y-98474404D01*
X75203285Y-98476961D01*
X75041395Y-98488540D01*
X75023435Y-98487793D01*
X75015155Y-98487692D01*
X75006276Y-98486309D01*
X74974714Y-98490436D01*
X74958379Y-98491500D01*
X62049367Y-98491500D01*
X62029982Y-98490000D01*
X62015149Y-98487690D01*
X62015145Y-98487690D01*
X62006276Y-98486309D01*
X61991019Y-98488304D01*
X61965698Y-98489047D01*
X61796715Y-98476961D01*
X61778936Y-98474404D01*
X61588607Y-98433001D01*
X61571359Y-98427937D01*
X61388850Y-98359864D01*
X61372498Y-98352396D01*
X61201542Y-98259048D01*
X61186418Y-98249328D01*
X61030486Y-98132598D01*
X61016900Y-98120825D01*
X60879175Y-97983100D01*
X60867402Y-97969514D01*
X60750672Y-97813582D01*
X60740952Y-97798458D01*
X60647604Y-97627502D01*
X60640136Y-97611150D01*
X60572063Y-97428641D01*
X60566999Y-97411392D01*
X60543402Y-97302919D01*
X60525596Y-97221064D01*
X60523038Y-97203278D01*
X60511719Y-97045012D01*
X60512805Y-97022245D01*
X60512334Y-97022203D01*
X60512770Y-97017345D01*
X60513576Y-97012552D01*
X60513729Y-97000000D01*
X60509773Y-96972376D01*
X60508500Y-96954514D01*
X60508500Y-95797095D01*
X63392001Y-95797095D01*
X63392338Y-95803614D01*
X63402257Y-95899206D01*
X63405149Y-95912600D01*
X63456588Y-96066784D01*
X63462761Y-96079962D01*
X63548063Y-96217807D01*
X63557099Y-96229208D01*
X63671829Y-96343739D01*
X63683240Y-96352751D01*
X63821243Y-96437816D01*
X63834424Y-96443963D01*
X63988710Y-96495138D01*
X64002086Y-96498005D01*
X64096438Y-96507672D01*
X64102854Y-96508000D01*
X64477885Y-96508000D01*
X64493124Y-96503525D01*
X64494329Y-96502135D01*
X64496000Y-96494452D01*
X64496000Y-96489884D01*
X65004000Y-96489884D01*
X65008475Y-96505123D01*
X65009865Y-96506328D01*
X65017548Y-96507999D01*
X65397095Y-96507999D01*
X65403614Y-96507662D01*
X65499206Y-96497743D01*
X65512600Y-96494851D01*
X65666784Y-96443412D01*
X65679962Y-96437239D01*
X65817807Y-96351937D01*
X65829208Y-96342901D01*
X65943739Y-96228171D01*
X65952753Y-96216757D01*
X66038723Y-96077287D01*
X66091495Y-96029793D01*
X66161566Y-96018369D01*
X66226690Y-96046643D01*
X66237149Y-96056426D01*
X66346576Y-96171135D01*
X66531542Y-96308754D01*
X66536293Y-96311170D01*
X66536297Y-96311172D01*
X66598704Y-96342901D01*
X66737051Y-96413240D01*
X66742145Y-96414822D01*
X66742148Y-96414823D01*
X66942020Y-96476885D01*
X66957227Y-96481607D01*
X66962516Y-96482308D01*
X67180489Y-96511198D01*
X67180494Y-96511198D01*
X67185774Y-96511898D01*
X67191103Y-96511698D01*
X67191105Y-96511698D01*
X67300966Y-96507574D01*
X67416158Y-96503249D01*
X67421468Y-96502135D01*
X67636572Y-96457002D01*
X67641791Y-96455907D01*
X67646750Y-96453949D01*
X67646752Y-96453948D01*
X67851256Y-96373185D01*
X67851258Y-96373184D01*
X67856221Y-96371224D01*
X67955184Y-96311172D01*
X68048757Y-96254390D01*
X68048756Y-96254390D01*
X68053317Y-96251623D01*
X68093497Y-96216757D01*
X68223412Y-96104023D01*
X68223414Y-96104021D01*
X68227445Y-96100523D01*
X68294807Y-96018369D01*
X68370240Y-95926373D01*
X68370244Y-95926367D01*
X68373624Y-95922245D01*
X68391552Y-95890750D01*
X68442632Y-95841445D01*
X68512262Y-95827583D01*
X68578333Y-95853566D01*
X68605573Y-95882716D01*
X68687441Y-96004319D01*
X68691120Y-96008176D01*
X68691122Y-96008178D01*
X68747030Y-96066784D01*
X68846576Y-96171135D01*
X69031542Y-96308754D01*
X69036293Y-96311170D01*
X69036297Y-96311172D01*
X69098704Y-96342901D01*
X69237051Y-96413240D01*
X69242145Y-96414822D01*
X69242148Y-96414823D01*
X69442020Y-96476885D01*
X69457227Y-96481607D01*
X69462516Y-96482308D01*
X69680489Y-96511198D01*
X69680494Y-96511198D01*
X69685774Y-96511898D01*
X69691103Y-96511698D01*
X69691105Y-96511698D01*
X69800966Y-96507574D01*
X69916158Y-96503249D01*
X69921468Y-96502135D01*
X70136572Y-96457002D01*
X70141791Y-96455907D01*
X70146750Y-96453949D01*
X70146752Y-96453948D01*
X70351256Y-96373185D01*
X70351258Y-96373184D01*
X70356221Y-96371224D01*
X70455184Y-96311172D01*
X70548757Y-96254390D01*
X70548756Y-96254390D01*
X70553317Y-96251623D01*
X70593497Y-96216757D01*
X70723412Y-96104023D01*
X70723414Y-96104021D01*
X70727445Y-96100523D01*
X70794807Y-96018369D01*
X70870240Y-95926373D01*
X70870244Y-95926367D01*
X70873624Y-95922245D01*
X70891552Y-95890750D01*
X70942632Y-95841445D01*
X71012262Y-95827583D01*
X71078333Y-95853566D01*
X71105573Y-95882716D01*
X71187441Y-96004319D01*
X71191120Y-96008176D01*
X71191122Y-96008178D01*
X71247030Y-96066784D01*
X71346576Y-96171135D01*
X71531542Y-96308754D01*
X71536293Y-96311170D01*
X71536297Y-96311172D01*
X71598704Y-96342901D01*
X71737051Y-96413240D01*
X71742145Y-96414822D01*
X71742148Y-96414823D01*
X71942020Y-96476885D01*
X71957227Y-96481607D01*
X71962516Y-96482308D01*
X72180489Y-96511198D01*
X72180494Y-96511198D01*
X72185774Y-96511898D01*
X72191103Y-96511698D01*
X72191105Y-96511698D01*
X72300966Y-96507574D01*
X72416158Y-96503249D01*
X72421468Y-96502135D01*
X72636572Y-96457002D01*
X72641791Y-96455907D01*
X72646750Y-96453949D01*
X72646752Y-96453948D01*
X72851256Y-96373185D01*
X72851258Y-96373184D01*
X72856221Y-96371224D01*
X72955184Y-96311172D01*
X73048757Y-96254390D01*
X73048756Y-96254390D01*
X73053317Y-96251623D01*
X73093497Y-96216757D01*
X73223412Y-96104023D01*
X73223414Y-96104021D01*
X73227445Y-96100523D01*
X73294807Y-96018369D01*
X73370240Y-95926373D01*
X73370244Y-95926367D01*
X73373624Y-95922245D01*
X73379115Y-95912600D01*
X73485032Y-95726529D01*
X73487675Y-95721886D01*
X73566337Y-95505175D01*
X73589023Y-95379720D01*
X73606623Y-95282392D01*
X73606624Y-95282385D01*
X73607361Y-95278308D01*
X73608500Y-95254156D01*
X73608500Y-94842110D01*
X73593920Y-94670280D01*
X73592582Y-94665125D01*
X73592581Y-94665119D01*
X73537343Y-94452297D01*
X73537342Y-94452293D01*
X73536001Y-94447128D01*
X73441312Y-94236925D01*
X73312559Y-94045681D01*
X73153424Y-93878865D01*
X72968458Y-93741246D01*
X72963707Y-93738830D01*
X72963703Y-93738828D01*
X72841731Y-93676815D01*
X72762949Y-93636760D01*
X72757855Y-93635178D01*
X72757852Y-93635177D01*
X72547871Y-93569976D01*
X72542773Y-93568393D01*
X72537484Y-93567692D01*
X72319511Y-93538802D01*
X72319506Y-93538802D01*
X72314226Y-93538102D01*
X72308897Y-93538302D01*
X72308895Y-93538302D01*
X72210368Y-93542001D01*
X72083842Y-93546751D01*
X72078623Y-93547846D01*
X72058849Y-93551995D01*
X71858209Y-93594093D01*
X71853250Y-93596051D01*
X71853248Y-93596052D01*
X71648744Y-93676815D01*
X71648742Y-93676816D01*
X71643779Y-93678776D01*
X71639220Y-93681543D01*
X71639217Y-93681544D01*
X71540832Y-93741246D01*
X71446683Y-93798377D01*
X71442653Y-93801874D01*
X71349484Y-93882722D01*
X71272555Y-93949477D01*
X71269168Y-93953608D01*
X71129760Y-94123627D01*
X71129756Y-94123633D01*
X71126376Y-94127755D01*
X71108448Y-94159250D01*
X71057368Y-94208555D01*
X70987738Y-94222417D01*
X70921667Y-94196434D01*
X70894427Y-94167284D01*
X70815539Y-94050108D01*
X70812559Y-94045681D01*
X70653424Y-93878865D01*
X70609287Y-93846026D01*
X70566574Y-93789316D01*
X70558500Y-93744937D01*
X70558500Y-90637082D01*
X70578502Y-90568961D01*
X70595405Y-90547987D01*
X78065158Y-83078234D01*
X78066095Y-83077306D01*
X78125475Y-83019157D01*
X78125476Y-83019156D01*
X78130507Y-83014229D01*
X78153998Y-82977779D01*
X78161417Y-82967454D01*
X78188476Y-82933557D01*
X78203073Y-82903362D01*
X78210602Y-82889945D01*
X78211702Y-82888238D01*
X78228765Y-82861762D01*
X78231173Y-82855145D01*
X78231176Y-82855140D01*
X78243592Y-82821027D01*
X78248553Y-82809284D01*
X78264354Y-82776597D01*
X78264356Y-82776592D01*
X78267421Y-82770251D01*
X78274965Y-82737572D01*
X78279332Y-82722831D01*
X78290803Y-82691315D01*
X78291686Y-82684325D01*
X78291688Y-82684317D01*
X78296238Y-82648299D01*
X78298474Y-82635747D01*
X78306638Y-82600386D01*
X78306638Y-82600383D01*
X78308224Y-82593515D01*
X78308354Y-82556514D01*
X78308366Y-82552944D01*
X78308395Y-82552062D01*
X78308500Y-82551231D01*
X78308500Y-82514428D01*
X78308785Y-82432875D01*
X78308845Y-82415657D01*
X78308845Y-82415652D01*
X78308857Y-82412130D01*
X78308589Y-82410930D01*
X78308500Y-82409293D01*
X78308500Y-81949886D01*
X78328502Y-81881765D01*
X78382158Y-81835272D01*
X78452432Y-81825168D01*
X78513794Y-81851966D01*
X78618740Y-81936949D01*
X78623875Y-81941107D01*
X78790476Y-82025994D01*
X78796849Y-82027702D01*
X78796850Y-82027702D01*
X78965508Y-82072894D01*
X78965512Y-82072895D01*
X78971085Y-82074388D01*
X78976841Y-82074841D01*
X79046286Y-82080307D01*
X79046294Y-82080307D01*
X79048742Y-82080500D01*
X79065500Y-82080500D01*
X79133621Y-82100502D01*
X79180114Y-82154158D01*
X79191500Y-82206500D01*
X79191500Y-82349147D01*
X79169464Y-82420334D01*
X79167809Y-82422751D01*
X79163846Y-82427474D01*
X79068567Y-82600787D01*
X79066706Y-82606654D01*
X79066705Y-82606656D01*
X79012487Y-82777572D01*
X79008765Y-82789306D01*
X78986719Y-82985851D01*
X79003268Y-83182934D01*
X79015191Y-83224513D01*
X79048509Y-83340707D01*
X79057783Y-83373050D01*
X79148187Y-83548956D01*
X79271035Y-83703953D01*
X79421650Y-83832136D01*
X79594294Y-83928624D01*
X79782392Y-83989740D01*
X79978777Y-84013158D01*
X79984912Y-84012686D01*
X79984914Y-84012686D01*
X80169830Y-83998457D01*
X80169834Y-83998456D01*
X80175972Y-83997984D01*
X80366463Y-83944798D01*
X80371967Y-83942018D01*
X80371969Y-83942017D01*
X80537495Y-83858404D01*
X80537497Y-83858403D01*
X80542996Y-83855625D01*
X80698847Y-83733861D01*
X80828078Y-83584145D01*
X80925769Y-83412179D01*
X80988197Y-83224513D01*
X81012985Y-83028295D01*
X81013380Y-83000000D01*
X80994080Y-82803167D01*
X80988839Y-82785806D01*
X80969594Y-82722067D01*
X80936916Y-82613831D01*
X80844066Y-82439204D01*
X80836857Y-82430365D01*
X80809303Y-82364934D01*
X80808500Y-82350729D01*
X80808500Y-82206500D01*
X80828502Y-82138379D01*
X80882158Y-82091886D01*
X80934500Y-82080500D01*
X80951258Y-82080500D01*
X80953706Y-82080307D01*
X80953714Y-82080307D01*
X81023159Y-82074841D01*
X81028915Y-82074388D01*
X81034488Y-82072895D01*
X81034492Y-82072894D01*
X81203150Y-82027702D01*
X81203151Y-82027702D01*
X81209524Y-82025994D01*
X81376125Y-81941107D01*
X81521436Y-81823436D01*
X81584111Y-81746039D01*
X81634953Y-81683255D01*
X81634954Y-81683254D01*
X81639107Y-81678125D01*
X81723994Y-81511524D01*
X81728145Y-81496033D01*
X81770894Y-81336492D01*
X81770895Y-81336488D01*
X81772388Y-81330915D01*
X81778500Y-81253258D01*
X81778500Y-80366742D01*
X81777605Y-80355364D01*
X81772841Y-80294841D01*
X81772388Y-80289085D01*
X81768997Y-80276427D01*
X81725702Y-80114850D01*
X81725702Y-80114849D01*
X81723994Y-80108476D01*
X81639107Y-79941875D01*
X81552334Y-79834719D01*
X81525587Y-79801690D01*
X81521436Y-79796564D01*
X81440175Y-79730760D01*
X81381255Y-79683047D01*
X81381254Y-79683046D01*
X81376125Y-79678893D01*
X81370248Y-79675898D01*
X81370241Y-79675894D01*
X81323869Y-79652267D01*
X81272253Y-79603519D01*
X81255187Y-79534604D01*
X81278087Y-79467403D01*
X81323869Y-79427733D01*
X81370241Y-79404106D01*
X81370248Y-79404102D01*
X81376125Y-79401107D01*
X81429326Y-79358026D01*
X81516310Y-79287587D01*
X81521436Y-79283436D01*
X81639107Y-79138125D01*
X81640546Y-79135302D01*
X81693454Y-79089895D01*
X81746570Y-79078763D01*
X81812221Y-79079451D01*
X81854597Y-79070289D01*
X81867163Y-79068231D01*
X81910255Y-79063397D01*
X81916906Y-79061081D01*
X81916910Y-79061080D01*
X81941930Y-79052367D01*
X81956742Y-79048204D01*
X81982619Y-79042609D01*
X81989510Y-79041119D01*
X82028813Y-79022792D01*
X82040589Y-79018010D01*
X82081552Y-79003745D01*
X82087527Y-79000011D01*
X82087530Y-79000010D01*
X82109995Y-78985973D01*
X82123512Y-78978634D01*
X82147514Y-78967441D01*
X82147515Y-78967440D01*
X82153902Y-78964462D01*
X82188153Y-78937894D01*
X82198612Y-78930598D01*
X82229404Y-78911358D01*
X82229407Y-78911356D01*
X82235376Y-78907626D01*
X82264179Y-78879024D01*
X82264804Y-78878439D01*
X82265470Y-78877922D01*
X82291460Y-78851932D01*
X82364082Y-78779815D01*
X82364740Y-78778778D01*
X82365843Y-78777549D01*
X83565158Y-77578234D01*
X83566095Y-77577306D01*
X83625475Y-77519157D01*
X83625476Y-77519156D01*
X83630507Y-77514229D01*
X83653998Y-77477779D01*
X83661417Y-77467454D01*
X83688476Y-77433557D01*
X83703073Y-77403362D01*
X83710602Y-77389945D01*
X83724948Y-77367684D01*
X83728765Y-77361762D01*
X83731173Y-77355145D01*
X83731176Y-77355140D01*
X83743592Y-77321027D01*
X83748553Y-77309284D01*
X83764354Y-77276597D01*
X83764356Y-77276592D01*
X83767421Y-77270251D01*
X83769398Y-77261690D01*
X83774965Y-77237574D01*
X83779332Y-77222831D01*
X83790803Y-77191315D01*
X83791686Y-77184325D01*
X83791688Y-77184317D01*
X83796238Y-77148299D01*
X83798474Y-77135747D01*
X83806638Y-77100386D01*
X83806638Y-77100383D01*
X83808224Y-77093515D01*
X83808366Y-77052944D01*
X83808395Y-77052062D01*
X83808500Y-77051231D01*
X83808500Y-77014428D01*
X83808857Y-76912130D01*
X83808589Y-76910930D01*
X83808500Y-76909293D01*
X83808500Y-66009164D01*
X83808507Y-66007845D01*
X83809376Y-65924826D01*
X83809450Y-65917779D01*
X83800290Y-65875414D01*
X83798230Y-65862835D01*
X83794182Y-65826741D01*
X83794181Y-65826738D01*
X83793397Y-65819745D01*
X83782366Y-65788068D01*
X83778204Y-65773258D01*
X83772609Y-65747378D01*
X83772608Y-65747374D01*
X83771119Y-65740489D01*
X83768142Y-65734105D01*
X83768140Y-65734099D01*
X83752796Y-65701193D01*
X83748000Y-65689383D01*
X83744347Y-65678893D01*
X83733745Y-65648448D01*
X83730013Y-65642476D01*
X83730010Y-65642469D01*
X83715973Y-65620005D01*
X83708634Y-65606488D01*
X83697439Y-65582481D01*
X83697437Y-65582477D01*
X83694462Y-65576098D01*
X83667892Y-65541844D01*
X83660598Y-65531388D01*
X83637626Y-65494624D01*
X83609017Y-65465815D01*
X83608434Y-65465192D01*
X83607921Y-65464530D01*
X83582073Y-65438682D01*
X83553477Y-65409886D01*
X83512304Y-65368424D01*
X83512300Y-65368420D01*
X83509815Y-65365918D01*
X83508777Y-65365259D01*
X83507544Y-65364153D01*
X81848235Y-63704843D01*
X81847307Y-63703906D01*
X81789157Y-63644525D01*
X81789156Y-63644524D01*
X81784229Y-63639493D01*
X81774048Y-63632932D01*
X81727626Y-63579217D01*
X81725535Y-63574228D01*
X81723994Y-63568476D01*
X81639107Y-63401875D01*
X81521436Y-63256564D01*
X81376125Y-63138893D01*
X81370248Y-63135898D01*
X81370241Y-63135894D01*
X81323869Y-63112267D01*
X81272253Y-63063519D01*
X81255187Y-62994604D01*
X81278087Y-62927403D01*
X81323869Y-62887733D01*
X81370241Y-62864106D01*
X81370248Y-62864102D01*
X81376125Y-62861107D01*
X81387741Y-62851701D01*
X81516310Y-62747587D01*
X81521436Y-62743436D01*
X81532520Y-62729749D01*
X81634953Y-62603255D01*
X81634954Y-62603254D01*
X81639107Y-62598125D01*
X81723994Y-62431524D01*
X81772388Y-62250915D01*
X81778500Y-62173258D01*
X81778500Y-61286742D01*
X81772388Y-61209085D01*
X81723994Y-61028476D01*
X81639107Y-60861875D01*
X81594426Y-60806698D01*
X81525587Y-60721690D01*
X81521436Y-60716564D01*
X81376125Y-60598893D01*
X81323317Y-60571986D01*
X81271702Y-60523238D01*
X81254636Y-60454323D01*
X81277537Y-60387121D01*
X81323318Y-60347452D01*
X81369965Y-60323684D01*
X81380982Y-60316530D01*
X81515955Y-60207232D01*
X81525232Y-60197955D01*
X81634530Y-60062982D01*
X81641682Y-60051968D01*
X81720529Y-59897223D01*
X81725233Y-59884970D01*
X81770398Y-59716413D01*
X81772345Y-59705081D01*
X81777807Y-59635681D01*
X81778000Y-59630755D01*
X81778000Y-59462115D01*
X81773525Y-59446876D01*
X81772135Y-59445671D01*
X81764452Y-59444000D01*
X78240115Y-59444000D01*
X78224876Y-59448475D01*
X78223671Y-59449865D01*
X78222000Y-59457548D01*
X78222000Y-59630755D01*
X78222193Y-59635681D01*
X78227655Y-59705081D01*
X78229602Y-59716413D01*
X78274767Y-59884970D01*
X78279471Y-59897223D01*
X78358318Y-60051968D01*
X78365470Y-60062982D01*
X78474768Y-60197955D01*
X78484045Y-60207232D01*
X78619018Y-60316530D01*
X78630035Y-60323684D01*
X78676682Y-60347452D01*
X78728298Y-60396200D01*
X78745364Y-60465114D01*
X78722464Y-60532316D01*
X78676683Y-60571986D01*
X78623875Y-60598893D01*
X78478564Y-60716564D01*
X78474413Y-60721690D01*
X78405575Y-60806698D01*
X78360893Y-60861875D01*
X78276006Y-61028476D01*
X78274298Y-61034849D01*
X78274298Y-61034850D01*
X78265664Y-61067073D01*
X78233052Y-61123557D01*
X78208681Y-61147928D01*
X78147096Y-61209085D01*
X78135918Y-61220185D01*
X78135259Y-61221223D01*
X78134153Y-61222456D01*
X76934843Y-62421765D01*
X76933906Y-62422693D01*
X76869493Y-62485771D01*
X76846002Y-62522221D01*
X76838583Y-62532546D01*
X76811524Y-62566443D01*
X76808459Y-62572784D01*
X76808458Y-62572785D01*
X76796928Y-62596637D01*
X76789399Y-62610054D01*
X76771235Y-62638238D01*
X76768827Y-62644855D01*
X76768824Y-62644860D01*
X76756408Y-62678973D01*
X76751447Y-62690716D01*
X76735646Y-62723403D01*
X76735644Y-62723408D01*
X76732579Y-62729749D01*
X76730996Y-62736607D01*
X76730995Y-62736609D01*
X76725035Y-62762426D01*
X76720668Y-62777169D01*
X76709197Y-62808685D01*
X76708314Y-62815675D01*
X76708312Y-62815683D01*
X76703762Y-62851701D01*
X76701526Y-62864253D01*
X76691776Y-62906485D01*
X76691751Y-62913531D01*
X76691751Y-62913534D01*
X76691634Y-62947056D01*
X76691605Y-62947938D01*
X76691500Y-62948769D01*
X76691500Y-62985572D01*
X76691143Y-63087870D01*
X76691411Y-63089070D01*
X76691500Y-63090707D01*
X76691500Y-69990786D01*
X76691493Y-69992106D01*
X76690549Y-70082221D01*
X76699711Y-70124597D01*
X76701769Y-70137163D01*
X76706603Y-70180255D01*
X76708919Y-70186906D01*
X76708920Y-70186910D01*
X76717633Y-70211930D01*
X76721796Y-70226742D01*
X76728881Y-70259510D01*
X76747208Y-70298813D01*
X76751990Y-70310589D01*
X76766255Y-70351552D01*
X76769989Y-70357527D01*
X76769990Y-70357530D01*
X76784027Y-70379995D01*
X76791366Y-70393512D01*
X76802559Y-70417514D01*
X76805538Y-70423902D01*
X76809855Y-70429467D01*
X76809856Y-70429469D01*
X76832106Y-70458153D01*
X76839402Y-70468612D01*
X76862374Y-70505376D01*
X76867334Y-70510371D01*
X76867335Y-70510372D01*
X76890976Y-70534179D01*
X76891561Y-70534804D01*
X76892078Y-70535470D01*
X76918065Y-70561457D01*
X76990185Y-70634082D01*
X76991222Y-70634740D01*
X76992446Y-70635838D01*
X77921720Y-71565111D01*
X77922649Y-71566049D01*
X77985771Y-71630507D01*
X77991690Y-71634322D01*
X77991698Y-71634328D01*
X78022214Y-71653994D01*
X78032559Y-71661427D01*
X78066443Y-71688476D01*
X78072782Y-71691540D01*
X78072783Y-71691541D01*
X78096637Y-71703072D01*
X78110054Y-71710601D01*
X78138238Y-71728765D01*
X78144855Y-71731173D01*
X78144860Y-71731176D01*
X78178973Y-71743592D01*
X78190716Y-71748553D01*
X78223400Y-71764353D01*
X78223409Y-71764356D01*
X78229749Y-71767421D01*
X78236614Y-71769006D01*
X78262428Y-71774966D01*
X78277168Y-71779332D01*
X78308685Y-71790803D01*
X78315670Y-71791685D01*
X78315677Y-71791687D01*
X78351692Y-71796237D01*
X78364243Y-71798472D01*
X78406485Y-71808225D01*
X78413529Y-71808250D01*
X78413533Y-71808250D01*
X78447074Y-71808367D01*
X78447943Y-71808396D01*
X78448769Y-71808500D01*
X78485133Y-71808500D01*
X78485573Y-71808501D01*
X78584336Y-71808846D01*
X78584342Y-71808846D01*
X78587870Y-71808858D01*
X78589073Y-71808589D01*
X78590717Y-71808500D01*
X78591573Y-71808500D01*
X78659694Y-71828502D01*
X78706187Y-71882158D01*
X78716291Y-71952432D01*
X78686797Y-72017012D01*
X78648776Y-72046767D01*
X78630031Y-72056318D01*
X78619018Y-72063470D01*
X78484045Y-72172768D01*
X78474768Y-72182045D01*
X78365470Y-72317018D01*
X78358318Y-72328032D01*
X78279471Y-72482777D01*
X78274767Y-72495030D01*
X78229602Y-72663587D01*
X78227655Y-72674919D01*
X78222193Y-72744319D01*
X78222000Y-72749246D01*
X78222000Y-72917885D01*
X78226475Y-72933124D01*
X78227865Y-72934329D01*
X78235548Y-72936000D01*
X80128000Y-72936000D01*
X80196121Y-72956002D01*
X80242614Y-73009658D01*
X80254000Y-73062000D01*
X80254000Y-73318000D01*
X80233998Y-73386121D01*
X80180342Y-73432614D01*
X80128000Y-73444000D01*
X78240115Y-73444000D01*
X78224876Y-73448475D01*
X78223671Y-73449865D01*
X78222000Y-73457548D01*
X78222000Y-73630755D01*
X78222193Y-73635681D01*
X78227655Y-73705081D01*
X78229602Y-73716413D01*
X78274767Y-73884970D01*
X78279471Y-73897223D01*
X78358318Y-74051968D01*
X78365470Y-74062982D01*
X78474768Y-74197955D01*
X78484045Y-74207232D01*
X78619018Y-74316530D01*
X78630035Y-74323684D01*
X78676682Y-74347452D01*
X78728298Y-74396200D01*
X78745364Y-74465114D01*
X78722464Y-74532316D01*
X78676683Y-74571986D01*
X78623875Y-74598893D01*
X78478564Y-74716564D01*
X78360893Y-74861875D01*
X78359352Y-74864900D01*
X78306381Y-74910361D01*
X78254583Y-74921500D01*
X74779214Y-74921500D01*
X74777894Y-74921493D01*
X74776819Y-74921482D01*
X74687779Y-74920549D01*
X74645403Y-74929711D01*
X74632837Y-74931769D01*
X74589745Y-74936603D01*
X74583094Y-74938919D01*
X74583090Y-74938920D01*
X74558070Y-74947633D01*
X74543257Y-74951796D01*
X74510490Y-74958881D01*
X74471187Y-74977208D01*
X74459411Y-74981990D01*
X74418448Y-74996255D01*
X74412473Y-74999989D01*
X74412470Y-74999990D01*
X74390005Y-75014027D01*
X74376488Y-75021366D01*
X74352486Y-75032559D01*
X74346098Y-75035538D01*
X74340533Y-75039855D01*
X74340531Y-75039856D01*
X74311847Y-75062106D01*
X74301388Y-75069402D01*
X74270596Y-75088642D01*
X74270593Y-75088644D01*
X74264624Y-75092374D01*
X74259629Y-75097334D01*
X74259628Y-75097335D01*
X74235821Y-75120976D01*
X74235196Y-75121561D01*
X74234530Y-75122078D01*
X74208540Y-75148068D01*
X74135918Y-75220185D01*
X74135260Y-75221222D01*
X74134157Y-75222451D01*
X66684842Y-82671766D01*
X66683905Y-82672694D01*
X66625317Y-82730068D01*
X66619493Y-82735771D01*
X66596002Y-82772221D01*
X66588583Y-82782546D01*
X66561524Y-82816443D01*
X66558459Y-82822784D01*
X66558458Y-82822785D01*
X66546928Y-82846637D01*
X66539399Y-82860054D01*
X66521235Y-82888238D01*
X66518827Y-82894855D01*
X66518824Y-82894860D01*
X66506408Y-82928973D01*
X66501447Y-82940716D01*
X66485646Y-82973403D01*
X66485644Y-82973408D01*
X66482579Y-82979749D01*
X66480996Y-82986607D01*
X66480995Y-82986609D01*
X66478713Y-82996495D01*
X66475985Y-83008313D01*
X66475035Y-83012426D01*
X66470668Y-83027169D01*
X66459197Y-83058685D01*
X66458314Y-83065675D01*
X66458312Y-83065683D01*
X66453762Y-83101701D01*
X66451526Y-83114253D01*
X66441776Y-83156485D01*
X66441751Y-83163531D01*
X66441751Y-83163534D01*
X66441634Y-83197056D01*
X66441605Y-83197938D01*
X66441500Y-83198769D01*
X66441500Y-83235572D01*
X66441143Y-83337870D01*
X66441411Y-83339070D01*
X66441500Y-83340707D01*
X66441500Y-93745387D01*
X66421498Y-93813508D01*
X66398081Y-93840552D01*
X66272555Y-93949477D01*
X66269168Y-93953608D01*
X66242994Y-93985529D01*
X66184334Y-94025524D01*
X66113364Y-94027455D01*
X66052616Y-93990710D01*
X66038416Y-93971941D01*
X65951937Y-93832193D01*
X65942901Y-93820792D01*
X65828171Y-93706261D01*
X65816760Y-93697249D01*
X65678757Y-93612184D01*
X65665576Y-93606037D01*
X65511290Y-93554862D01*
X65497914Y-93551995D01*
X65403562Y-93542328D01*
X65397145Y-93542000D01*
X65022115Y-93542000D01*
X65006876Y-93546475D01*
X65005671Y-93547865D01*
X65004000Y-93555548D01*
X65004000Y-96489884D01*
X64496000Y-96489884D01*
X64496000Y-95297115D01*
X64491525Y-95281876D01*
X64490135Y-95280671D01*
X64482452Y-95279000D01*
X63410116Y-95279000D01*
X63394877Y-95283475D01*
X63393672Y-95284865D01*
X63392001Y-95292548D01*
X63392001Y-95797095D01*
X60508500Y-95797095D01*
X60508500Y-94752885D01*
X63392000Y-94752885D01*
X63396475Y-94768124D01*
X63397865Y-94769329D01*
X63405548Y-94771000D01*
X64477885Y-94771000D01*
X64493124Y-94766525D01*
X64494329Y-94765135D01*
X64496000Y-94757452D01*
X64496000Y-93560116D01*
X64491525Y-93544877D01*
X64490135Y-93543672D01*
X64482452Y-93542001D01*
X64102905Y-93542001D01*
X64096386Y-93542338D01*
X64000794Y-93552257D01*
X63987400Y-93555149D01*
X63833216Y-93606588D01*
X63820038Y-93612761D01*
X63682193Y-93698063D01*
X63670792Y-93707099D01*
X63556261Y-93821829D01*
X63547249Y-93833240D01*
X63462184Y-93971243D01*
X63456037Y-93984424D01*
X63404862Y-94138710D01*
X63401995Y-94152086D01*
X63392328Y-94246438D01*
X63392000Y-94252855D01*
X63392000Y-94752885D01*
X60508500Y-94752885D01*
X60508500Y-79944669D01*
X62842001Y-79944669D01*
X62842371Y-79951490D01*
X62847895Y-80002352D01*
X62851521Y-80017604D01*
X62896676Y-80138054D01*
X62905214Y-80153649D01*
X62981715Y-80255724D01*
X62994276Y-80268285D01*
X63096351Y-80344786D01*
X63111946Y-80353324D01*
X63232394Y-80398478D01*
X63247649Y-80402105D01*
X63298514Y-80407631D01*
X63305328Y-80408000D01*
X63977885Y-80408000D01*
X63993124Y-80403525D01*
X63994329Y-80402135D01*
X63996000Y-80394452D01*
X63996000Y-80389884D01*
X64504000Y-80389884D01*
X64508475Y-80405123D01*
X64509865Y-80406328D01*
X64517548Y-80407999D01*
X65194669Y-80407999D01*
X65201490Y-80407629D01*
X65252352Y-80402105D01*
X65267604Y-80398479D01*
X65388054Y-80353324D01*
X65403649Y-80344786D01*
X65505724Y-80268285D01*
X65518285Y-80255724D01*
X65594786Y-80153649D01*
X65603324Y-80138054D01*
X65648478Y-80017606D01*
X65652105Y-80002351D01*
X65657631Y-79951486D01*
X65658000Y-79944672D01*
X65658000Y-79272115D01*
X65653525Y-79256876D01*
X65652135Y-79255671D01*
X65644452Y-79254000D01*
X64522115Y-79254000D01*
X64506876Y-79258475D01*
X64505671Y-79259865D01*
X64504000Y-79267548D01*
X64504000Y-80389884D01*
X63996000Y-80389884D01*
X63996000Y-79272115D01*
X63991525Y-79256876D01*
X63990135Y-79255671D01*
X63982452Y-79254000D01*
X62860116Y-79254000D01*
X62844877Y-79258475D01*
X62843672Y-79259865D01*
X62842001Y-79267548D01*
X62842001Y-79944669D01*
X60508500Y-79944669D01*
X60508500Y-78965469D01*
X66337095Y-78965469D01*
X66337392Y-78970622D01*
X66337392Y-78970625D01*
X66343667Y-79079451D01*
X66350427Y-79196697D01*
X66351564Y-79201743D01*
X66351565Y-79201749D01*
X66375540Y-79308132D01*
X66401346Y-79422642D01*
X66403288Y-79427424D01*
X66403289Y-79427428D01*
X66475127Y-79604343D01*
X66488484Y-79637237D01*
X66609501Y-79834719D01*
X66761147Y-80009784D01*
X66939349Y-80157730D01*
X67139322Y-80274584D01*
X67355694Y-80357209D01*
X67360760Y-80358240D01*
X67360761Y-80358240D01*
X67402550Y-80366742D01*
X67582656Y-80403385D01*
X67713324Y-80408176D01*
X67808949Y-80411683D01*
X67808953Y-80411683D01*
X67814113Y-80411872D01*
X67819233Y-80411216D01*
X67819235Y-80411216D01*
X67918668Y-80398478D01*
X68043847Y-80382442D01*
X68048795Y-80380957D01*
X68048802Y-80380956D01*
X68260747Y-80317369D01*
X68265690Y-80315886D01*
X68270324Y-80313616D01*
X68469049Y-80216262D01*
X68469052Y-80216260D01*
X68473684Y-80213991D01*
X68662243Y-80079494D01*
X68826303Y-79916005D01*
X68961458Y-79727917D01*
X68998847Y-79652267D01*
X69061784Y-79524922D01*
X69061785Y-79524920D01*
X69064078Y-79520280D01*
X69131408Y-79298671D01*
X69161640Y-79069041D01*
X69161838Y-79060942D01*
X69163245Y-79003365D01*
X69163245Y-79003361D01*
X69163327Y-79000000D01*
X69153381Y-78879024D01*
X69144773Y-78774318D01*
X69144772Y-78774312D01*
X69144349Y-78769167D01*
X69087925Y-78544533D01*
X69085866Y-78539797D01*
X68997630Y-78336868D01*
X68997628Y-78336865D01*
X68995570Y-78332131D01*
X68869764Y-78137665D01*
X68713887Y-77966358D01*
X68709836Y-77963159D01*
X68709832Y-77963155D01*
X68536177Y-77826011D01*
X68536172Y-77826008D01*
X68532123Y-77822810D01*
X68527607Y-77820317D01*
X68527604Y-77820315D01*
X68333879Y-77713373D01*
X68333875Y-77713371D01*
X68329355Y-77710876D01*
X68324486Y-77709152D01*
X68324482Y-77709150D01*
X68115903Y-77635288D01*
X68115899Y-77635287D01*
X68111028Y-77633562D01*
X68105935Y-77632655D01*
X68105932Y-77632654D01*
X67888095Y-77593851D01*
X67888089Y-77593850D01*
X67883006Y-77592945D01*
X67805644Y-77592000D01*
X67656581Y-77590179D01*
X67656579Y-77590179D01*
X67651411Y-77590116D01*
X67422464Y-77625150D01*
X67202314Y-77697106D01*
X67197726Y-77699494D01*
X67197722Y-77699496D01*
X67081140Y-77760185D01*
X66996872Y-77804052D01*
X66992739Y-77807155D01*
X66992736Y-77807157D01*
X66815790Y-77940012D01*
X66811655Y-77943117D01*
X66651639Y-78110564D01*
X66648725Y-78114836D01*
X66648724Y-78114837D01*
X66633152Y-78137665D01*
X66521119Y-78301899D01*
X66423602Y-78511981D01*
X66361707Y-78735169D01*
X66337095Y-78965469D01*
X60508500Y-78965469D01*
X60508500Y-78727885D01*
X62842000Y-78727885D01*
X62846475Y-78743124D01*
X62847865Y-78744329D01*
X62855548Y-78746000D01*
X63977885Y-78746000D01*
X63993124Y-78741525D01*
X63994329Y-78740135D01*
X63996000Y-78732452D01*
X63996000Y-78727885D01*
X64504000Y-78727885D01*
X64508475Y-78743124D01*
X64509865Y-78744329D01*
X64517548Y-78746000D01*
X65639884Y-78746000D01*
X65655123Y-78741525D01*
X65656328Y-78740135D01*
X65657999Y-78732452D01*
X65657999Y-78055331D01*
X65657629Y-78048510D01*
X65652105Y-77997648D01*
X65648479Y-77982396D01*
X65603324Y-77861946D01*
X65594786Y-77846351D01*
X65518285Y-77744276D01*
X65505724Y-77731715D01*
X65403649Y-77655214D01*
X65388054Y-77646676D01*
X65267606Y-77601522D01*
X65252351Y-77597895D01*
X65201486Y-77592369D01*
X65194672Y-77592000D01*
X64522115Y-77592000D01*
X64506876Y-77596475D01*
X64505671Y-77597865D01*
X64504000Y-77605548D01*
X64504000Y-78727885D01*
X63996000Y-78727885D01*
X63996000Y-77610116D01*
X63991525Y-77594877D01*
X63990135Y-77593672D01*
X63982452Y-77592001D01*
X63305331Y-77592001D01*
X63298510Y-77592371D01*
X63247648Y-77597895D01*
X63232396Y-77601521D01*
X63111946Y-77646676D01*
X63096351Y-77655214D01*
X62994276Y-77731715D01*
X62981715Y-77744276D01*
X62905214Y-77846351D01*
X62896676Y-77861946D01*
X62851522Y-77982394D01*
X62847895Y-77997649D01*
X62842369Y-78048514D01*
X62842000Y-78055328D01*
X62842000Y-78727885D01*
X60508500Y-78727885D01*
X60508500Y-59042277D01*
X72137009Y-59042277D01*
X72162625Y-59310769D01*
X72163710Y-59315203D01*
X72163711Y-59315209D01*
X72225645Y-59568312D01*
X72226731Y-59572750D01*
X72327985Y-59822733D01*
X72464265Y-60055482D01*
X72467118Y-60059049D01*
X72584686Y-60206060D01*
X72632716Y-60266119D01*
X72829809Y-60450234D01*
X73051416Y-60603968D01*
X73055499Y-60605999D01*
X73055502Y-60606001D01*
X73171013Y-60663466D01*
X73292894Y-60724101D01*
X73297228Y-60725522D01*
X73297231Y-60725523D01*
X73544853Y-60806698D01*
X73544859Y-60806699D01*
X73549186Y-60808118D01*
X73553677Y-60808898D01*
X73553678Y-60808898D01*
X73811140Y-60853601D01*
X73811148Y-60853602D01*
X73814921Y-60854257D01*
X73818758Y-60854448D01*
X73898578Y-60858422D01*
X73898586Y-60858422D01*
X73900149Y-60858500D01*
X74068512Y-60858500D01*
X74070780Y-60858335D01*
X74070792Y-60858335D01*
X74201884Y-60848823D01*
X74269004Y-60843953D01*
X74273459Y-60842969D01*
X74273462Y-60842969D01*
X74527912Y-60786791D01*
X74527916Y-60786790D01*
X74532372Y-60785806D01*
X74658480Y-60738028D01*
X74780318Y-60691868D01*
X74780321Y-60691867D01*
X74784588Y-60690250D01*
X75020368Y-60559286D01*
X75234773Y-60395657D01*
X75423312Y-60202792D01*
X75582034Y-59984730D01*
X75665190Y-59826676D01*
X75705490Y-59750079D01*
X75705493Y-59750073D01*
X75707615Y-59746039D01*
X75748327Y-59630755D01*
X75795902Y-59496033D01*
X75795902Y-59496032D01*
X75797425Y-59491720D01*
X75849581Y-59227100D01*
X75858782Y-59042277D01*
X75862764Y-58962292D01*
X75862764Y-58962286D01*
X75862991Y-58957723D01*
X75859190Y-58917885D01*
X78222000Y-58917885D01*
X78226475Y-58933124D01*
X78227865Y-58934329D01*
X78235548Y-58936000D01*
X79727885Y-58936000D01*
X79743124Y-58931525D01*
X79744329Y-58930135D01*
X79746000Y-58922452D01*
X79746000Y-58917885D01*
X80254000Y-58917885D01*
X80258475Y-58933124D01*
X80259865Y-58934329D01*
X80267548Y-58936000D01*
X81759885Y-58936000D01*
X81775124Y-58931525D01*
X81776329Y-58930135D01*
X81778000Y-58922452D01*
X81778000Y-58749246D01*
X81777807Y-58744319D01*
X81772345Y-58674919D01*
X81770398Y-58663587D01*
X81725233Y-58495030D01*
X81720529Y-58482777D01*
X81641682Y-58328032D01*
X81634530Y-58317018D01*
X81525232Y-58182045D01*
X81515955Y-58172768D01*
X81380982Y-58063470D01*
X81369968Y-58056318D01*
X81215223Y-57977471D01*
X81202970Y-57972767D01*
X81034413Y-57927602D01*
X81023081Y-57925655D01*
X80953681Y-57920193D01*
X80948754Y-57920000D01*
X80272115Y-57920000D01*
X80256876Y-57924475D01*
X80255671Y-57925865D01*
X80254000Y-57933548D01*
X80254000Y-58917885D01*
X79746000Y-58917885D01*
X79746000Y-57938115D01*
X79741525Y-57922876D01*
X79740135Y-57921671D01*
X79732452Y-57920000D01*
X79051246Y-57920000D01*
X79046319Y-57920193D01*
X78976919Y-57925655D01*
X78965587Y-57927602D01*
X78797030Y-57972767D01*
X78784777Y-57977471D01*
X78630032Y-58056318D01*
X78619018Y-58063470D01*
X78484045Y-58172768D01*
X78474768Y-58182045D01*
X78365470Y-58317018D01*
X78358318Y-58328032D01*
X78279471Y-58482777D01*
X78274767Y-58495030D01*
X78229602Y-58663587D01*
X78227655Y-58674919D01*
X78222193Y-58744319D01*
X78222000Y-58749246D01*
X78222000Y-58917885D01*
X75859190Y-58917885D01*
X75837375Y-58689231D01*
X75792042Y-58503967D01*
X75774355Y-58431688D01*
X75773269Y-58427250D01*
X75672015Y-58177267D01*
X75555030Y-57977471D01*
X75538045Y-57948463D01*
X75538044Y-57948462D01*
X75535735Y-57944518D01*
X75417928Y-57797208D01*
X75370136Y-57737447D01*
X75370135Y-57737445D01*
X75367284Y-57733881D01*
X75170191Y-57549766D01*
X74948584Y-57396032D01*
X74944501Y-57394001D01*
X74944498Y-57393999D01*
X74779606Y-57311967D01*
X74707106Y-57275899D01*
X74702772Y-57274478D01*
X74702769Y-57274477D01*
X74455147Y-57193302D01*
X74455141Y-57193301D01*
X74450814Y-57191882D01*
X74446322Y-57191102D01*
X74188860Y-57146399D01*
X74188852Y-57146398D01*
X74185079Y-57145743D01*
X74173817Y-57145182D01*
X74101422Y-57141578D01*
X74101414Y-57141578D01*
X74099851Y-57141500D01*
X73931488Y-57141500D01*
X73929220Y-57141665D01*
X73929208Y-57141665D01*
X73798116Y-57151177D01*
X73730996Y-57156047D01*
X73726541Y-57157031D01*
X73726538Y-57157031D01*
X73472088Y-57213209D01*
X73472084Y-57213210D01*
X73467628Y-57214194D01*
X73341520Y-57261972D01*
X73219682Y-57308132D01*
X73219679Y-57308133D01*
X73215412Y-57309750D01*
X72979632Y-57440714D01*
X72765227Y-57604343D01*
X72576688Y-57797208D01*
X72417966Y-58015270D01*
X72415844Y-58019304D01*
X72294510Y-58249921D01*
X72294507Y-58249927D01*
X72292385Y-58253961D01*
X72290865Y-58258266D01*
X72290863Y-58258270D01*
X72211581Y-58482777D01*
X72202575Y-58508280D01*
X72150419Y-58772900D01*
X72150192Y-58777453D01*
X72150192Y-58777456D01*
X72140991Y-58962292D01*
X72137009Y-59042277D01*
X60508500Y-59042277D01*
X60508500Y-57053250D01*
X60510246Y-57032345D01*
X60512770Y-57017344D01*
X60512770Y-57017341D01*
X60513576Y-57012552D01*
X60513729Y-57000000D01*
X60513040Y-56995186D01*
X60513039Y-56995176D01*
X60512157Y-56989017D01*
X60511206Y-56962172D01*
X60523038Y-56796723D01*
X60525596Y-56778934D01*
X60566999Y-56588607D01*
X60572063Y-56571359D01*
X60640136Y-56388850D01*
X60647604Y-56372498D01*
X60740952Y-56201542D01*
X60750672Y-56186418D01*
X60867402Y-56030486D01*
X60879175Y-56016900D01*
X61016900Y-55879175D01*
X61030486Y-55867402D01*
X61186418Y-55750672D01*
X61201542Y-55740952D01*
X61372498Y-55647604D01*
X61388850Y-55640136D01*
X61571359Y-55572063D01*
X61588608Y-55566999D01*
X61778936Y-55525596D01*
X61796715Y-55523039D01*
X61958605Y-55511460D01*
X61976565Y-55512207D01*
X61984845Y-55512308D01*
X61993724Y-55513691D01*
X62025286Y-55509564D01*
X62041621Y-55508500D01*
X82950633Y-55508500D01*
X82970018Y-55510000D01*
G37*
%TD.AperFunction*%
%TD*%
M02*
